<svg width="1078" height="625" viewBox="0 0 1078 625" fill="none" xmlns="http://www.w3.org/2000/svg">
<path d="M240.313 291.678C240.313 305.729 228.95 317.092 214.899 317.092H91.1407C77.102 317.092 65.7263 305.729 65.7263 291.678V168.141C65.7263 154.102 77.102 142.726 91.1407 142.726H214.899C228.95 142.726 240.313 154.102 240.313 168.141V291.678ZM214.678 124H91.1407C66.8431 124 47 143.843 47 168.141V291.911C47 316.209 66.8431 336.052 91.1407 336.052H214.899C239.209 336.052 259.052 316.209 259.052 291.911V168.141C258.819 143.843 238.976 124 214.678 124Z" fill="#FF5757"/>
<path d="M118.801 167.92C128.778 167.92 136.852 176.02 136.852 185.996C136.852 195.973 128.778 204.048 118.801 204.048C108.824 204.048 100.75 195.973 100.75 185.996C100.75 176.02 108.824 167.92 118.801 167.92Z" fill="#FF5757"/>
<path d="M187.018 167.92C196.994 167.92 205.069 176.02 205.069 185.996C205.069 195.973 196.994 204.048 187.018 204.048C177.041 204.048 168.966 195.973 168.966 185.996C168.966 176.02 177.041 167.92 187.018 167.92Z" fill="#FF5757"/>
<path d="M206.653 227.021H99.1786C95.1535 227.021 91.8157 230.372 91.8157 234.372C91.8157 250.656 98.0496 266.045 109.646 277.408C121.243 289.005 136.423 295.239 152.682 295.239C168.967 295.239 184.343 289.005 195.719 277.408C207.315 265.812 213.561 250.656 213.561 234.372C213.77 230.138 210.665 227.021 206.653 227.021Z" fill="#FF5757"/>
<path d="M57.5207 398.675L50.3107 423H45.7957L40.6857 404.59L35.2607 423L30.7807 423.035L23.8857 398.675H28.1207L33.1607 418.485L38.6207 398.675H43.1007L48.1757 418.38L53.2507 398.675H57.5207ZM62.8415 401.16C62.1182 401.16 61.5115 400.915 61.0215 400.425C60.5315 399.935 60.2865 399.328 60.2865 398.605C60.2865 397.882 60.5315 397.275 61.0215 396.785C61.5115 396.295 62.1182 396.05 62.8415 396.05C63.5415 396.05 64.1365 396.295 64.6265 396.785C65.1165 397.275 65.3615 397.882 65.3615 398.605C65.3615 399.328 65.1165 399.935 64.6265 400.425C64.1365 400.915 63.5415 401.16 62.8415 401.16ZM64.8015 403.715V423H60.8115V403.715H64.8015ZM74.03 406.515C74.6134 405.535 75.3834 404.777 76.34 404.24C77.32 403.68 78.475 403.4 79.805 403.4V407.53H78.79C77.2267 407.53 76.0367 407.927 75.22 408.72C74.4267 409.513 74.03 410.89 74.03 412.85V423H70.04V403.715H74.03V406.515ZM118.464 403.715L112.479 423H108.279L104.394 408.755L100.509 423H96.3095L90.2895 403.715H94.3495L98.3745 419.22L102.469 403.715H106.634L110.554 419.15L114.544 403.715H118.464ZM129.811 423.315C127.991 423.315 126.346 422.907 124.876 422.09C123.406 421.25 122.251 420.083 121.411 418.59C120.571 417.073 120.151 415.323 120.151 413.34C120.151 411.38 120.583 409.642 121.446 408.125C122.31 406.608 123.488 405.442 124.981 404.625C126.475 403.808 128.143 403.4 129.986 403.4C131.83 403.4 133.498 403.808 134.991 404.625C136.485 405.442 137.663 406.608 138.526 408.125C139.39 409.642 139.821 411.38 139.821 413.34C139.821 415.3 139.378 417.038 138.491 418.555C137.605 420.072 136.391 421.25 134.851 422.09C133.335 422.907 131.655 423.315 129.811 423.315ZM129.811 419.85C130.838 419.85 131.795 419.605 132.681 419.115C133.591 418.625 134.326 417.89 134.886 416.91C135.446 415.93 135.726 414.74 135.726 413.34C135.726 411.94 135.458 410.762 134.921 409.805C134.385 408.825 133.673 408.09 132.786 407.6C131.9 407.11 130.943 406.865 129.916 406.865C128.89 406.865 127.933 407.11 127.046 407.6C126.183 408.09 125.495 408.825 124.981 409.805C124.468 410.762 124.211 411.94 124.211 413.34C124.211 415.417 124.736 417.027 125.786 418.17C126.86 419.29 128.201 419.85 129.811 419.85ZM147.756 397.1V423H143.766V397.1H147.756ZM156.984 397.1V423H152.994V397.1H156.984ZM179.898 412.885C179.898 413.608 179.851 414.262 179.758 414.845H165.023C165.139 416.385 165.711 417.622 166.738 418.555C167.764 419.488 169.024 419.955 170.518 419.955C172.664 419.955 174.181 419.057 175.068 417.26H179.373C178.789 419.033 177.728 420.492 176.188 421.635C174.671 422.755 172.781 423.315 170.518 423.315C168.674 423.315 167.018 422.907 165.548 422.09C164.101 421.25 162.958 420.083 162.118 418.59C161.301 417.073 160.893 415.323 160.893 413.34C160.893 411.357 161.289 409.618 162.083 408.125C162.899 406.608 164.031 405.442 165.478 404.625C166.948 403.808 168.628 403.4 170.518 403.4C172.338 403.4 173.959 403.797 175.383 404.59C176.806 405.383 177.914 406.503 178.708 407.95C179.501 409.373 179.898 411.018 179.898 412.885ZM175.733 411.625C175.709 410.155 175.184 408.977 174.158 408.09C173.131 407.203 171.859 406.76 170.343 406.76C168.966 406.76 167.788 407.203 166.808 408.09C165.828 408.953 165.244 410.132 165.058 411.625H175.733ZM193.554 403.4C195.071 403.4 196.424 403.715 197.614 404.345C198.828 404.975 199.773 405.908 200.449 407.145C201.126 408.382 201.464 409.875 201.464 411.625V423H197.509V412.22C197.509 410.493 197.078 409.175 196.214 408.265C195.351 407.332 194.173 406.865 192.679 406.865C191.186 406.865 189.996 407.332 189.109 408.265C188.246 409.175 187.814 410.493 187.814 412.22V423H183.824V403.715H187.814V405.92C188.468 405.127 189.296 404.508 190.299 404.065C191.326 403.622 192.411 403.4 193.554 403.4ZM223.591 398.675C226.181 398.675 228.444 399.177 230.381 400.18C232.341 401.16 233.846 402.583 234.896 404.45C235.969 406.293 236.506 408.452 236.506 410.925C236.506 413.398 235.969 415.545 234.896 417.365C233.846 419.185 232.341 420.585 230.381 421.565C228.444 422.522 226.181 423 223.591 423H215.646V398.675H223.591ZM223.591 419.745C226.437 419.745 228.619 418.975 230.136 417.435C231.652 415.895 232.411 413.725 232.411 410.925C232.411 408.102 231.652 405.897 230.136 404.31C228.619 402.723 226.437 401.93 223.591 401.93H219.636V419.745H223.591ZM242.49 401.16C241.767 401.16 241.16 400.915 240.67 400.425C240.18 399.935 239.935 399.328 239.935 398.605C239.935 397.882 240.18 397.275 240.67 396.785C241.16 396.295 241.767 396.05 242.49 396.05C243.19 396.05 243.785 396.295 244.275 396.785C244.765 397.275 245.01 397.882 245.01 398.605C245.01 399.328 244.765 399.935 244.275 400.425C243.785 400.915 243.19 401.16 242.49 401.16ZM244.45 403.715V423H240.46V403.715H244.45ZM248.358 413.34C248.358 411.357 248.755 409.618 249.548 408.125C250.365 406.608 251.485 405.442 252.908 404.625C254.332 403.808 255.965 403.4 257.808 403.4C260.142 403.4 262.067 403.96 263.583 405.08C265.123 406.177 266.162 407.752 266.698 409.805H262.393C262.043 408.848 261.483 408.102 260.713 407.565C259.943 407.028 258.975 406.76 257.808 406.76C256.175 406.76 254.868 407.343 253.888 408.51C252.932 409.653 252.453 411.263 252.453 413.34C252.453 415.417 252.932 417.038 253.888 418.205C254.868 419.372 256.175 419.955 257.808 419.955C260.118 419.955 261.647 418.94 262.393 416.91H266.698C266.138 418.87 265.088 420.433 263.548 421.6C262.008 422.743 260.095 423.315 257.808 423.315C255.965 423.315 254.332 422.907 252.908 422.09C251.485 421.25 250.365 420.083 249.548 418.59C248.755 417.073 248.358 415.323 248.358 413.34ZM280.65 403.4C282.12 403.4 283.426 403.715 284.57 404.345C285.736 404.975 286.646 405.908 287.3 407.145C287.976 408.382 288.315 409.875 288.315 411.625V423H284.36V412.22C284.36 410.493 283.928 409.175 283.065 408.265C282.201 407.332 281.023 406.865 279.53 406.865C278.036 406.865 276.846 407.332 275.96 408.265C275.096 409.175 274.665 410.493 274.665 412.22V423H270.675V397.1H274.665V405.955C275.341 405.138 276.193 404.508 277.22 404.065C278.27 403.622 279.413 403.4 280.65 403.4ZM86.9631 467.885C86.9631 468.608 86.9164 469.262 86.8231 469.845H72.0881C72.2048 471.385 72.7764 472.622 73.8031 473.555C74.8298 474.488 76.0898 474.955 77.5831 474.955C79.7298 474.955 81.2464 474.057 82.1331 472.26H86.4381C85.8548 474.033 84.7931 475.492 83.2531 476.635C81.7364 477.755 79.8464 478.315 77.5831 478.315C75.7398 478.315 74.0831 477.907 72.6131 477.09C71.1664 476.25 70.0231 475.083 69.1831 473.59C68.3664 472.073 67.9581 470.323 67.9581 468.34C67.9581 466.357 68.3548 464.618 69.1481 463.125C69.9648 461.608 71.0964 460.442 72.5431 459.625C74.0131 458.808 75.6931 458.4 77.5831 458.4C79.4031 458.4 81.0248 458.797 82.4481 459.59C83.8714 460.383 84.9798 461.503 85.7731 462.95C86.5664 464.373 86.9631 466.018 86.9631 467.885ZM82.7981 466.625C82.7748 465.155 82.2498 463.977 81.2231 463.09C80.1964 462.203 78.9248 461.76 77.4081 461.76C76.0314 461.76 74.8531 462.203 73.8731 463.09C72.8931 463.953 72.3098 465.132 72.1231 466.625H82.7981ZM94.8796 461.515C95.463 460.535 96.233 459.777 97.1896 459.24C98.1696 458.68 99.3246 458.4 100.655 458.4V462.53H99.6396C98.0763 462.53 96.8863 462.927 96.0696 463.72C95.2763 464.513 94.8796 465.89 94.8796 467.85V478H90.8896V458.715H94.8796V461.515ZM112.407 461.97H108.837V478H104.812V461.97H102.537V458.715H104.812V457.35C104.812 455.133 105.396 453.523 106.562 452.52C107.752 451.493 109.607 450.98 112.127 450.98V454.305C110.914 454.305 110.062 454.538 109.572 455.005C109.082 455.448 108.837 456.23 108.837 457.35V458.715H112.407V461.97ZM124.308 478.315C122.488 478.315 120.843 477.907 119.373 477.09C117.903 476.25 116.748 475.083 115.908 473.59C115.068 472.073 114.648 470.323 114.648 468.34C114.648 466.38 115.08 464.642 115.943 463.125C116.807 461.608 117.985 460.442 119.478 459.625C120.972 458.808 122.64 458.4 124.483 458.4C126.327 458.4 127.995 458.808 129.488 459.625C130.982 460.442 132.16 461.608 133.023 463.125C133.887 464.642 134.318 466.38 134.318 468.34C134.318 470.3 133.875 472.038 132.988 473.555C132.102 475.072 130.888 476.25 129.348 477.09C127.832 477.907 126.152 478.315 124.308 478.315ZM124.308 474.85C125.335 474.85 126.292 474.605 127.178 474.115C128.088 473.625 128.823 472.89 129.383 471.91C129.943 470.93 130.223 469.74 130.223 468.34C130.223 466.94 129.955 465.762 129.418 464.805C128.882 463.825 128.17 463.09 127.283 462.6C126.397 462.11 125.44 461.865 124.413 461.865C123.387 461.865 122.43 462.11 121.543 462.6C120.68 463.09 119.992 463.825 119.478 464.805C118.965 465.762 118.708 466.94 118.708 468.34C118.708 470.417 119.233 472.027 120.283 473.17C121.357 474.29 122.698 474.85 124.308 474.85ZM146.033 458.4C147.526 458.4 148.844 458.703 149.988 459.31C151.154 459.893 152.064 460.628 152.718 461.515V458.715H156.743V478.315C156.743 480.088 156.369 481.663 155.623 483.04C154.876 484.44 153.791 485.537 152.368 486.33C150.968 487.123 149.288 487.52 147.328 487.52C144.714 487.52 142.544 486.902 140.818 485.665C139.091 484.452 138.111 482.795 137.878 480.695H141.833C142.136 481.698 142.778 482.503 143.758 483.11C144.761 483.74 145.951 484.055 147.328 484.055C148.938 484.055 150.233 483.565 151.213 482.585C152.216 481.605 152.718 480.182 152.718 478.315V475.095C152.041 476.005 151.119 476.775 149.953 477.405C148.809 478.012 147.503 478.315 146.033 478.315C144.353 478.315 142.813 477.895 141.413 477.055C140.036 476.192 138.939 475.002 138.123 473.485C137.329 471.945 136.933 470.207 136.933 468.27C136.933 466.333 137.329 464.618 138.123 463.125C138.939 461.632 140.036 460.477 141.413 459.66C142.813 458.82 144.353 458.4 146.033 458.4ZM152.718 468.34C152.718 467.01 152.438 465.855 151.878 464.875C151.341 463.895 150.629 463.148 149.743 462.635C148.856 462.122 147.899 461.865 146.873 461.865C145.846 461.865 144.889 462.122 144.003 462.635C143.116 463.125 142.393 463.86 141.833 464.84C141.296 465.797 141.028 466.94 141.028 468.27C141.028 469.6 141.296 470.767 141.833 471.77C142.393 472.773 143.116 473.543 144.003 474.08C144.913 474.593 145.869 474.85 146.873 474.85C147.899 474.85 148.856 474.593 149.743 474.08C150.629 473.567 151.341 472.82 151.878 471.84C152.438 470.837 152.718 469.67 152.718 468.34ZM165.973 461.515C166.557 460.535 167.327 459.777 168.283 459.24C169.263 458.68 170.418 458.4 171.748 458.4V462.53H170.733C169.17 462.53 167.98 462.927 167.163 463.72C166.37 464.513 165.973 465.89 165.973 467.85V478H161.983V458.715H165.973V461.515ZM193.091 467.885C193.091 468.608 193.044 469.262 192.951 469.845H178.216C178.333 471.385 178.904 472.622 179.931 473.555C180.958 474.488 182.218 474.955 183.711 474.955C185.858 474.955 187.374 474.057 188.261 472.26H192.566C191.983 474.033 190.921 475.492 189.381 476.635C187.864 477.755 185.974 478.315 183.711 478.315C181.868 478.315 180.211 477.907 178.741 477.09C177.294 476.25 176.151 475.083 175.311 473.59C174.494 472.073 174.086 470.323 174.086 468.34C174.086 466.357 174.483 464.618 175.276 463.125C176.093 461.608 177.224 460.442 178.671 459.625C180.141 458.808 181.821 458.4 183.711 458.4C185.531 458.4 187.153 458.797 188.576 459.59C189.999 460.383 191.108 461.503 191.901 462.95C192.694 464.373 193.091 466.018 193.091 467.885ZM188.926 466.625C188.903 465.155 188.378 463.977 187.351 463.09C186.324 462.203 185.053 461.76 183.536 461.76C182.159 461.76 180.981 462.203 180.001 463.09C179.021 463.953 178.438 465.132 178.251 466.625H188.926ZM199.048 456.16C198.324 456.16 197.718 455.915 197.228 455.425C196.738 454.935 196.493 454.328 196.493 453.605C196.493 452.882 196.738 452.275 197.228 451.785C197.718 451.295 198.324 451.05 199.048 451.05C199.748 451.05 200.343 451.295 200.833 451.785C201.323 452.275 201.568 452.882 201.568 453.605C201.568 454.328 201.323 454.935 200.833 455.425C200.343 455.915 199.748 456.16 199.048 456.16ZM201.008 458.715V478H197.018V458.715H201.008ZM204.916 468.34C204.916 466.357 205.313 464.618 206.106 463.125C206.923 461.608 208.043 460.442 209.466 459.625C210.889 458.808 212.523 458.4 214.366 458.4C216.699 458.4 218.624 458.96 220.141 460.08C221.681 461.177 222.719 462.752 223.256 464.805H218.951C218.601 463.848 218.041 463.102 217.271 462.565C216.501 462.028 215.533 461.76 214.366 461.76C212.733 461.76 211.426 462.343 210.446 463.51C209.489 464.653 209.011 466.263 209.011 468.34C209.011 470.417 209.489 472.038 210.446 473.205C211.426 474.372 212.733 474.955 214.366 474.955C216.676 474.955 218.204 473.94 218.951 471.91H223.256C222.696 473.87 221.646 475.433 220.106 476.6C218.566 477.743 216.653 478.315 214.366 478.315C212.523 478.315 210.889 477.907 209.466 477.09C208.043 476.25 206.923 475.083 206.106 473.59C205.313 472.073 204.916 470.323 204.916 468.34ZM237.207 458.4C238.677 458.4 239.984 458.715 241.127 459.345C242.294 459.975 243.204 460.908 243.857 462.145C244.534 463.382 244.872 464.875 244.872 466.625V478H240.917V467.22C240.917 465.493 240.486 464.175 239.622 463.265C238.759 462.332 237.581 461.865 236.087 461.865C234.594 461.865 233.404 462.332 232.517 463.265C231.654 464.175 231.222 465.493 231.222 467.22V478H227.232V452.1H231.222V460.955C231.899 460.138 232.751 459.508 233.777 459.065C234.827 458.622 235.971 458.4 237.207 458.4ZM108.903 513.4C110.419 513.4 111.773 513.715 112.963 514.345C114.176 514.975 115.121 515.908 115.798 517.145C116.498 518.382 116.848 519.875 116.848 521.625V533H112.893V522.22C112.893 520.493 112.461 519.175 111.598 518.265C110.734 517.332 109.556 516.865 108.063 516.865C106.569 516.865 105.379 517.332 104.493 518.265C103.629 519.175 103.198 520.493 103.198 522.22V533H99.2426V522.22C99.2426 520.493 98.811 519.175 97.9476 518.265C97.0843 517.332 95.906 516.865 94.4126 516.865C92.9193 516.865 91.7293 517.332 90.8426 518.265C89.9793 519.175 89.5476 520.493 89.5476 522.22V533H85.5576V513.715H89.5476V515.92C90.201 515.127 91.0293 514.508 92.0326 514.065C93.036 513.622 94.1093 513.4 95.2526 513.4C96.7926 513.4 98.1693 513.727 99.3826 514.38C100.596 515.033 101.529 515.978 102.183 517.215C102.766 516.048 103.676 515.127 104.913 514.45C106.149 513.75 107.479 513.4 108.903 513.4ZM120.595 523.27C120.595 521.333 120.991 519.618 121.785 518.125C122.601 516.632 123.698 515.477 125.075 514.66C126.475 513.82 128.015 513.4 129.695 513.4C131.211 513.4 132.53 513.703 133.65 514.31C134.793 514.893 135.703 515.628 136.38 516.515V513.715H140.405V533H136.38V530.13C135.703 531.04 134.781 531.798 133.615 532.405C132.448 533.012 131.118 533.315 129.625 533.315C127.968 533.315 126.451 532.895 125.075 532.055C123.698 531.192 122.601 530.002 121.785 528.485C120.991 526.945 120.595 525.207 120.595 523.27ZM136.38 523.34C136.38 522.01 136.1 520.855 135.54 519.875C135.003 518.895 134.291 518.148 133.405 517.635C132.518 517.122 131.561 516.865 130.535 516.865C129.508 516.865 128.551 517.122 127.665 517.635C126.778 518.125 126.055 518.86 125.495 519.84C124.958 520.797 124.69 521.94 124.69 523.27C124.69 524.6 124.958 525.767 125.495 526.77C126.055 527.773 126.778 528.543 127.665 529.08C128.575 529.593 129.531 529.85 130.535 529.85C131.561 529.85 132.518 529.593 133.405 529.08C134.291 528.567 135.003 527.82 135.54 526.84C136.1 525.837 136.38 524.67 136.38 523.34ZM144.316 523.34C144.316 521.357 144.712 519.618 145.506 518.125C146.322 516.608 147.442 515.442 148.866 514.625C150.289 513.808 151.922 513.4 153.766 513.4C156.099 513.4 158.024 513.96 159.541 515.08C161.081 516.177 162.119 517.752 162.656 519.805H158.351C158.001 518.848 157.441 518.102 156.671 517.565C155.901 517.028 154.932 516.76 153.766 516.76C152.132 516.76 150.826 517.343 149.846 518.51C148.889 519.653 148.411 521.263 148.411 523.34C148.411 525.417 148.889 527.038 149.846 528.205C150.826 529.372 152.132 529.955 153.766 529.955C156.076 529.955 157.604 528.94 158.351 526.91H162.656C162.096 528.87 161.046 530.433 159.506 531.6C157.966 532.743 156.052 533.315 153.766 533.315C151.922 533.315 150.289 532.907 148.866 532.09C147.442 531.25 146.322 530.083 145.506 528.59C144.712 527.073 144.316 525.323 144.316 523.34ZM176.607 513.4C178.077 513.4 179.384 513.715 180.527 514.345C181.694 514.975 182.604 515.908 183.257 517.145C183.934 518.382 184.272 519.875 184.272 521.625V533H180.317V522.22C180.317 520.493 179.885 519.175 179.022 518.265C178.159 517.332 176.98 516.865 175.487 516.865C173.994 516.865 172.804 517.332 171.917 518.265C171.054 519.175 170.622 520.493 170.622 522.22V533H166.632V507.1H170.622V515.955C171.299 515.138 172.15 514.508 173.177 514.065C174.227 513.622 175.37 513.4 176.607 513.4ZM207.036 522.885C207.036 523.608 206.99 524.262 206.896 524.845H192.161C192.278 526.385 192.85 527.622 193.876 528.555C194.903 529.488 196.163 529.955 197.656 529.955C199.803 529.955 201.32 529.057 202.206 527.26H206.511C205.928 529.033 204.866 530.492 203.326 531.635C201.81 532.755 199.92 533.315 197.656 533.315C195.813 533.315 194.156 532.907 192.686 532.09C191.24 531.25 190.096 530.083 189.256 528.59C188.44 527.073 188.031 525.323 188.031 523.34C188.031 521.357 188.428 519.618 189.221 518.125C190.038 516.608 191.17 515.442 192.616 514.625C194.086 513.808 195.766 513.4 197.656 513.4C199.476 513.4 201.098 513.797 202.521 514.59C203.945 515.383 205.053 516.503 205.846 517.95C206.64 519.373 207.036 521.018 207.036 522.885ZM202.871 521.625C202.848 520.155 202.323 518.977 201.296 518.09C200.27 517.203 198.998 516.76 197.481 516.76C196.105 516.76 194.926 517.203 193.946 518.09C192.966 518.953 192.383 520.132 192.196 521.625H202.871ZM220.693 513.4C222.21 513.4 223.563 513.715 224.753 514.345C225.966 514.975 226.911 515.908 227.588 517.145C228.265 518.382 228.603 519.875 228.603 521.625V533H224.648V522.22C224.648 520.493 224.216 519.175 223.353 518.265C222.49 517.332 221.311 516.865 219.818 516.865C218.325 516.865 217.135 517.332 216.248 518.265C215.385 519.175 214.953 520.493 214.953 522.22V533H210.963V513.715H214.953V515.92C215.606 515.127 216.435 514.508 217.438 514.065C218.465 513.622 219.55 513.4 220.693 513.4Z" fill="black"/>
<path d="M1034.73 72.6746C1087.45 132.771 1087.88 240.427 1058.07 328.627C1027.82 416.826 967.328 485.57 885.229 535.723C802.699 585.444 698.564 616.141 640.663 577.661C583.195 539.182 571.528 431.959 550.356 329.059C528.751 226.592 497.64 128.88 533.072 72.2423C568.504 16.0366 670.478 0.904262 774.181 0.0395585C877.452 -0.825145 982.019 12.1454 1034.73 72.6746Z" fill="#FF5757"/>
<g filter="url(#filter0_d_54_2335)">
<path d="M485 50C485 43.3726 490.373 38 497 38H924C930.627 38 936 43.3726 936 50V549C936 555.627 930.627 561 924 561H497C490.373 561 485 555.627 485 549V50Z" fill="white"/>
</g>
<path d="M534.726 103.925C534.126 103.925 533.576 103.783 533.076 103.5C532.593 103.2 532.201 102.808 531.901 102.325C531.618 101.825 531.476 101.275 531.476 100.675C531.476 99.7583 531.793 98.9833 532.426 98.35C533.059 97.7167 533.826 97.4 534.726 97.4C535.659 97.4 536.443 97.7167 537.076 98.35C537.709 98.9833 538.026 99.7583 538.026 100.675C538.026 101.592 537.709 102.367 537.076 103C536.443 103.617 535.659 103.925 534.726 103.925ZM723.887 102.125L730.237 109H726.387L721.287 103.075V109H718.437V90.5H721.287V101.25L726.287 95.225H730.237L723.887 102.125ZM735.129 90.5V109H732.279V90.5H735.129ZM740.321 93.4C739.804 93.4 739.371 93.225 739.021 92.875C738.671 92.525 738.496 92.0917 738.496 91.575C738.496 91.0583 738.671 90.625 739.021 90.275C739.371 89.925 739.804 89.75 740.321 89.75C740.821 89.75 741.246 89.925 741.596 90.275C741.946 90.625 742.121 91.0583 742.121 91.575C742.121 92.0917 741.946 92.525 741.596 92.875C741.246 93.225 740.821 93.4 740.321 93.4ZM741.721 95.225V109H738.871V95.225H741.721ZM744.513 102.1C744.513 100.683 744.796 99.4417 745.363 98.375C745.946 97.2917 746.746 96.4583 747.763 95.875C748.78 95.2917 749.946 95 751.263 95C752.93 95 754.305 95.4 755.388 96.2C756.488 96.9833 757.23 98.1083 757.613 99.575H754.538C754.288 98.8917 753.888 98.3583 753.338 97.975C752.788 97.5917 752.096 97.4 751.263 97.4C750.096 97.4 749.163 97.8167 748.463 98.65C747.78 99.4667 747.438 100.617 747.438 102.1C747.438 103.583 747.78 104.742 748.463 105.575C749.163 106.408 750.096 106.825 751.263 106.825C752.913 106.825 754.005 106.1 754.538 104.65H757.613C757.213 106.05 756.463 107.167 755.363 108C754.263 108.817 752.896 109.225 751.263 109.225C749.946 109.225 748.78 108.933 747.763 108.35C746.746 107.75 745.946 106.917 745.363 105.85C744.796 104.767 744.513 103.517 744.513 102.1ZM765.903 102.125L772.253 109H768.403L763.303 103.075V109H760.453V90.5H763.303V101.25L768.303 95.225H772.253L765.903 102.125ZM786.921 101.775C786.921 102.292 786.888 102.758 786.821 103.175H776.296C776.379 104.275 776.788 105.158 777.521 105.825C778.254 106.492 779.154 106.825 780.221 106.825C781.754 106.825 782.838 106.183 783.471 104.9H786.546C786.129 106.167 785.371 107.208 784.271 108.025C783.188 108.825 781.838 109.225 780.221 109.225C778.904 109.225 777.721 108.933 776.671 108.35C775.638 107.75 774.821 106.917 774.221 105.85C773.638 104.767 773.346 103.517 773.346 102.1C773.346 100.683 773.629 99.4417 774.196 98.375C774.779 97.2917 775.588 96.4583 776.621 95.875C777.671 95.2917 778.871 95 780.221 95C781.521 95 782.679 95.2833 783.696 95.85C784.713 96.4167 785.504 97.2167 786.071 98.25C786.638 99.2667 786.921 100.442 786.921 101.775ZM783.946 100.875C783.929 99.825 783.554 98.9833 782.821 98.35C782.088 97.7167 781.179 97.4 780.096 97.4C779.113 97.4 778.271 97.7167 777.571 98.35C776.871 98.9667 776.454 99.8083 776.321 100.875H783.946ZM796.676 95C797.759 95 798.726 95.225 799.576 95.675C800.442 96.125 801.117 96.7917 801.601 97.675C802.084 98.5583 802.326 99.625 802.326 100.875V109H799.501V101.3C799.501 100.067 799.192 99.125 798.576 98.475C797.959 97.8083 797.117 97.475 796.051 97.475C794.984 97.475 794.134 97.8083 793.501 98.475C792.884 99.125 792.576 100.067 792.576 101.3V109H789.726V95.225H792.576V96.8C793.042 96.2333 793.634 95.7917 794.351 95.475C795.084 95.1583 795.859 95 796.676 95ZM534.726 158.925C534.126 158.925 533.576 158.783 533.076 158.5C532.593 158.2 532.201 157.808 531.901 157.325C531.618 156.825 531.476 156.275 531.476 155.675C531.476 154.758 531.793 153.983 532.426 153.35C533.059 152.717 533.826 152.4 534.726 152.4C535.659 152.4 536.443 152.717 537.076 153.35C537.709 153.983 538.026 154.758 538.026 155.675C538.026 156.592 537.709 157.367 537.076 158C536.443 158.617 535.659 158.925 534.726 158.925ZM578 146.625L572.85 164H569.625L565.975 150.85L562.1 164L558.9 164.025L553.975 146.625H557L560.6 160.775L564.5 146.625H567.7L571.325 160.7L574.95 146.625H578ZM581.801 148.4C581.284 148.4 580.851 148.225 580.501 147.875C580.151 147.525 579.976 147.092 579.976 146.575C579.976 146.058 580.151 145.625 580.501 145.275C580.851 144.925 581.284 144.75 581.801 144.75C582.301 144.75 582.726 144.925 583.076 145.275C583.426 145.625 583.601 146.058 583.601 146.575C583.601 147.092 583.426 147.525 583.076 147.875C582.726 148.225 582.301 148.4 581.801 148.4ZM583.201 150.225V164H580.351V150.225H583.201ZM589.792 152.225C590.209 151.525 590.759 150.983 591.442 150.6C592.142 150.2 592.967 150 593.917 150V152.95H593.192C592.076 152.95 591.226 153.233 590.642 153.8C590.076 154.367 589.792 155.35 589.792 156.75V164H586.942V150.225H589.792V152.225ZM608.481 157.125L614.831 164H610.981L605.881 158.075V164H603.031V145.5H605.881V156.25L610.881 150.225H614.831L608.481 157.125ZM622.849 164.225C621.549 164.225 620.374 163.933 619.324 163.35C618.274 162.75 617.449 161.917 616.849 160.85C616.249 159.767 615.949 158.517 615.949 157.1C615.949 155.7 616.257 154.458 616.874 153.375C617.491 152.292 618.332 151.458 619.399 150.875C620.466 150.292 621.657 150 622.974 150C624.291 150 625.482 150.292 626.549 150.875C627.616 151.458 628.457 152.292 629.074 153.375C629.691 154.458 629.999 155.7 629.999 157.1C629.999 158.5 629.682 159.742 629.049 160.825C628.416 161.908 627.549 162.75 626.449 163.35C625.366 163.933 624.166 164.225 622.849 164.225ZM622.849 161.75C623.582 161.75 624.266 161.575 624.899 161.225C625.549 160.875 626.074 160.35 626.474 159.65C626.874 158.95 627.074 158.1 627.074 157.1C627.074 156.1 626.882 155.258 626.499 154.575C626.116 153.875 625.607 153.35 624.974 153C624.341 152.65 623.657 152.475 622.924 152.475C622.191 152.475 621.507 152.65 620.874 153C620.257 153.35 619.766 153.875 619.399 154.575C619.032 155.258 618.849 156.1 618.849 157.1C618.849 158.583 619.224 159.733 619.974 160.55C620.741 161.35 621.699 161.75 622.849 161.75ZM639.766 150C640.85 150 641.816 150.225 642.666 150.675C643.533 151.125 644.208 151.792 644.691 152.675C645.175 153.558 645.416 154.625 645.416 155.875V164H642.591V156.3C642.591 155.067 642.283 154.125 641.666 153.475C641.05 152.808 640.208 152.475 639.141 152.475C638.075 152.475 637.225 152.808 636.591 153.475C635.975 154.125 635.666 155.067 635.666 156.3V164H632.816V150.225H635.666V151.8C636.133 151.233 636.725 150.792 637.441 150.475C638.175 150.158 638.95 150 639.766 150ZM652.377 152.55V160.175C652.377 160.692 652.493 161.067 652.727 161.3C652.977 161.517 653.393 161.625 653.977 161.625H655.727V164H653.477C652.193 164 651.21 163.7 650.527 163.1C649.843 162.5 649.502 161.525 649.502 160.175V152.55H647.877V150.225H649.502V146.8H652.377V150.225H655.727V152.55H652.377ZM657.404 157.05C657.404 155.667 657.687 154.442 658.254 153.375C658.837 152.308 659.62 151.483 660.604 150.9C661.604 150.3 662.704 150 663.904 150C664.987 150 665.929 150.217 666.729 150.65C667.545 151.067 668.195 151.592 668.679 152.225V150.225H671.554V164H668.679V161.95C668.195 162.6 667.537 163.142 666.704 163.575C665.87 164.008 664.92 164.225 663.854 164.225C662.67 164.225 661.587 163.925 660.604 163.325C659.62 162.708 658.837 161.858 658.254 160.775C657.687 159.675 657.404 158.433 657.404 157.05ZM668.679 157.1C668.679 156.15 668.479 155.325 668.079 154.625C667.695 153.925 667.187 153.392 666.554 153.025C665.92 152.658 665.237 152.475 664.504 152.475C663.77 152.475 663.087 152.658 662.454 153.025C661.82 153.375 661.304 153.9 660.904 154.6C660.52 155.283 660.329 156.1 660.329 157.05C660.329 158 660.52 158.833 660.904 159.55C661.304 160.267 661.82 160.817 662.454 161.2C663.104 161.567 663.787 161.75 664.504 161.75C665.237 161.75 665.92 161.567 666.554 161.2C667.187 160.833 667.695 160.3 668.079 159.6C668.479 158.883 668.679 158.05 668.679 157.1ZM680.747 157.125L687.097 164H683.247L678.147 158.075V164H675.297V145.5H678.147V156.25L683.147 150.225H687.097L680.747 157.125ZM692.465 152.55V160.175C692.465 160.692 692.581 161.067 692.815 161.3C693.065 161.517 693.481 161.625 694.065 161.625H695.815V164H693.565C692.281 164 691.298 163.7 690.615 163.1C689.931 162.5 689.59 161.525 689.59 160.175V152.55H687.965V150.225H689.59V146.8H692.465V150.225H695.815V152.55H692.465ZM699.891 148.4C699.375 148.4 698.941 148.225 698.591 147.875C698.241 147.525 698.066 147.092 698.066 146.575C698.066 146.058 698.241 145.625 698.591 145.275C698.941 144.925 699.375 144.75 699.891 144.75C700.391 144.75 700.816 144.925 701.166 145.275C701.516 145.625 701.691 146.058 701.691 146.575C701.691 147.092 701.516 147.525 701.166 147.875C700.816 148.225 700.391 148.4 699.891 148.4ZM701.291 150.225V164H698.441V150.225H701.291ZM717.658 156.775C717.658 157.292 717.625 157.758 717.558 158.175H707.033C707.117 159.275 707.525 160.158 708.258 160.825C708.992 161.492 709.892 161.825 710.958 161.825C712.492 161.825 713.575 161.183 714.208 159.9H717.283C716.867 161.167 716.108 162.208 715.008 163.025C713.925 163.825 712.575 164.225 710.958 164.225C709.642 164.225 708.458 163.933 707.408 163.35C706.375 162.75 705.558 161.917 704.958 160.85C704.375 159.767 704.083 158.517 704.083 157.1C704.083 155.683 704.367 154.442 704.933 153.375C705.517 152.292 706.325 151.458 707.358 150.875C708.408 150.292 709.608 150 710.958 150C712.258 150 713.417 150.283 714.433 150.85C715.45 151.417 716.242 152.217 716.808 153.25C717.375 154.267 717.658 155.442 717.658 156.775ZM714.683 155.875C714.667 154.825 714.292 153.983 713.558 153.35C712.825 152.717 711.917 152.4 710.833 152.4C709.85 152.4 709.008 152.717 708.308 153.35C707.608 153.967 707.192 154.808 707.058 155.875H714.683ZM723.313 152.225C723.73 151.525 724.28 150.983 724.963 150.6C725.663 150.2 726.488 150 727.438 150V152.95H726.713C725.596 152.95 724.746 153.233 724.163 153.8C723.596 154.367 723.313 155.35 723.313 156.75V164H720.463V150.225H723.313V152.225ZM742.683 156.775C742.683 157.292 742.649 157.758 742.583 158.175H732.058C732.141 159.275 732.549 160.158 733.283 160.825C734.016 161.492 734.916 161.825 735.983 161.825C737.516 161.825 738.599 161.183 739.233 159.9H742.308C741.891 161.167 741.133 162.208 740.033 163.025C738.949 163.825 737.599 164.225 735.983 164.225C734.666 164.225 733.483 163.933 732.433 163.35C731.399 162.75 730.583 161.917 729.983 160.85C729.399 159.767 729.108 158.517 729.108 157.1C729.108 155.683 729.391 154.442 729.958 153.375C730.541 152.292 731.349 151.458 732.383 150.875C733.433 150.292 734.633 150 735.983 150C737.283 150 738.441 150.283 739.458 150.85C740.474 151.417 741.266 152.217 741.833 153.25C742.399 154.267 742.683 155.442 742.683 156.775ZM739.708 155.875C739.691 154.825 739.316 153.983 738.583 153.35C737.849 152.717 736.941 152.4 735.858 152.4C734.874 152.4 734.033 152.717 733.333 153.35C732.633 153.967 732.216 154.808 732.083 155.875H739.708ZM752.437 150C753.521 150 754.487 150.225 755.337 150.675C756.204 151.125 756.879 151.792 757.362 152.675C757.846 153.558 758.087 154.625 758.087 155.875V164H755.262V156.3C755.262 155.067 754.954 154.125 754.337 153.475C753.721 152.808 752.879 152.475 751.812 152.475C750.746 152.475 749.896 152.808 749.262 153.475C748.646 154.125 748.337 155.067 748.337 156.3V164H745.487V150.225H748.337V151.8C748.804 151.233 749.396 150.792 750.112 150.475C750.846 150.158 751.621 150 752.437 150ZM773.892 146.625C775.742 146.625 777.358 146.983 778.742 147.7C780.142 148.4 781.217 149.417 781.967 150.75C782.733 152.067 783.117 153.608 783.117 155.375C783.117 157.142 782.733 158.675 781.967 159.975C781.217 161.275 780.142 162.275 778.742 162.975C777.358 163.658 775.742 164 773.892 164H768.217V146.625H773.892ZM773.892 161.675C775.925 161.675 777.483 161.125 778.567 160.025C779.65 158.925 780.192 157.375 780.192 155.375C780.192 153.358 779.65 151.783 778.567 150.65C777.483 149.517 775.925 148.95 773.892 148.95H771.067V161.675H773.892ZM787.391 148.4C786.875 148.4 786.441 148.225 786.091 147.875C785.741 147.525 785.566 147.092 785.566 146.575C785.566 146.058 785.741 145.625 786.091 145.275C786.441 144.925 786.875 144.75 787.391 144.75C787.891 144.75 788.316 144.925 788.666 145.275C789.016 145.625 789.191 146.058 789.191 146.575C789.191 147.092 789.016 147.525 788.666 147.875C788.316 148.225 787.891 148.4 787.391 148.4ZM788.791 150.225V164H785.941V150.225H788.791ZM791.583 157.1C791.583 155.683 791.867 154.442 792.433 153.375C793.017 152.292 793.817 151.458 794.833 150.875C795.85 150.292 797.017 150 798.333 150C800 150 801.375 150.4 802.458 151.2C803.558 151.983 804.3 153.108 804.683 154.575H801.608C801.358 153.892 800.958 153.358 800.408 152.975C799.858 152.592 799.167 152.4 798.333 152.4C797.167 152.4 796.233 152.817 795.533 153.65C794.85 154.467 794.508 155.617 794.508 157.1C794.508 158.583 794.85 159.742 795.533 160.575C796.233 161.408 797.167 161.825 798.333 161.825C799.983 161.825 801.075 161.1 801.608 159.65H804.683C804.283 161.05 803.533 162.167 802.433 163C801.333 163.817 799.967 164.225 798.333 164.225C797.017 164.225 795.85 163.933 794.833 163.35C793.817 162.75 793.017 161.917 792.433 160.85C791.867 159.767 791.583 158.517 791.583 157.1ZM814.648 150C815.698 150 816.632 150.225 817.448 150.675C818.282 151.125 818.932 151.792 819.398 152.675C819.882 153.558 820.123 154.625 820.123 155.875V164H817.298V156.3C817.298 155.067 816.99 154.125 816.373 153.475C815.757 152.808 814.915 152.475 813.848 152.475C812.782 152.475 811.932 152.808 811.298 153.475C810.682 154.125 810.373 155.067 810.373 156.3V164H807.523V145.5H810.373V151.825C810.857 151.242 811.465 150.792 812.198 150.475C812.948 150.158 813.765 150 814.648 150ZM842.728 150.225V164H839.878V162.375C839.428 162.942 838.836 163.392 838.103 163.725C837.386 164.042 836.62 164.2 835.803 164.2C834.72 164.2 833.745 163.975 832.878 163.525C832.028 163.075 831.353 162.408 830.853 161.525C830.37 160.642 830.128 159.575 830.128 158.325V150.225H832.953V157.9C832.953 159.133 833.261 160.083 833.878 160.75C834.495 161.4 835.336 161.725 836.403 161.725C837.47 161.725 838.311 161.4 838.928 160.75C839.561 160.083 839.878 159.133 839.878 157.9V150.225H842.728ZM853.438 150C854.522 150 855.488 150.225 856.338 150.675C857.205 151.125 857.88 151.792 858.363 152.675C858.847 153.558 859.088 154.625 859.088 155.875V164H856.263V156.3C856.263 155.067 855.955 154.125 855.338 153.475C854.722 152.808 853.88 152.475 852.813 152.475C851.747 152.475 850.897 152.808 850.263 153.475C849.647 154.125 849.338 155.067 849.338 156.3V164H846.488V150.225H849.338V151.8C849.805 151.233 850.397 150.792 851.113 150.475C851.847 150.158 852.622 150 853.438 150ZM861.774 157.05C861.774 155.667 862.057 154.442 862.624 153.375C863.207 152.308 863.99 151.483 864.974 150.9C865.974 150.3 867.082 150 868.299 150C869.199 150 870.082 150.2 870.949 150.6C871.832 150.983 872.532 151.5 873.049 152.15V145.5H875.924V164H873.049V161.925C872.582 162.592 871.932 163.142 871.099 163.575C870.282 164.008 869.34 164.225 868.274 164.225C867.074 164.225 865.974 163.925 864.974 163.325C863.99 162.708 863.207 161.858 862.624 160.775C862.057 159.675 861.774 158.433 861.774 157.05ZM873.049 157.1C873.049 156.15 872.849 155.325 872.449 154.625C872.065 153.925 871.557 153.392 870.924 153.025C870.29 152.658 869.607 152.475 868.874 152.475C868.14 152.475 867.457 152.658 866.824 153.025C866.19 153.375 865.674 153.9 865.274 154.6C864.89 155.283 864.699 156.1 864.699 157.05C864.699 158 864.89 158.833 865.274 159.55C865.674 160.267 866.19 160.817 866.824 161.2C867.474 161.567 868.157 161.75 868.874 161.75C869.607 161.75 870.29 161.567 870.924 161.2C871.557 160.833 872.065 160.3 872.449 159.6C872.849 158.883 873.049 158.05 873.049 157.1ZM572.05 205C573.133 205 574.1 205.225 574.95 205.675C575.817 206.125 576.492 206.792 576.975 207.675C577.475 208.558 577.725 209.625 577.725 210.875V219H574.9V211.3C574.9 210.067 574.592 209.125 573.975 208.475C573.358 207.808 572.517 207.475 571.45 207.475C570.383 207.475 569.533 207.808 568.9 208.475C568.283 209.125 567.975 210.067 567.975 211.3V219H565.15V211.3C565.15 210.067 564.842 209.125 564.225 208.475C563.608 207.808 562.767 207.475 561.7 207.475C560.633 207.475 559.783 207.808 559.15 208.475C558.533 209.125 558.225 210.067 558.225 211.3V219H555.375V205.225H558.225V206.8C558.692 206.233 559.283 205.792 560 205.475C560.717 205.158 561.483 205 562.3 205C563.4 205 564.383 205.233 565.25 205.7C566.117 206.167 566.783 206.842 567.25 207.725C567.667 206.892 568.317 206.233 569.2 205.75C570.083 205.25 571.033 205 572.05 205ZM580.402 212.05C580.402 210.667 580.685 209.442 581.252 208.375C581.835 207.308 582.618 206.483 583.602 205.9C584.602 205.3 585.702 205 586.902 205C587.985 205 588.927 205.217 589.727 205.65C590.543 206.067 591.193 206.592 591.677 207.225V205.225H594.552V219H591.677V216.95C591.193 217.6 590.535 218.142 589.702 218.575C588.868 219.008 587.918 219.225 586.852 219.225C585.668 219.225 584.585 218.925 583.602 218.325C582.618 217.708 581.835 216.858 581.252 215.775C580.685 214.675 580.402 213.433 580.402 212.05ZM591.677 212.1C591.677 211.15 591.477 210.325 591.077 209.625C590.693 208.925 590.185 208.392 589.552 208.025C588.918 207.658 588.235 207.475 587.502 207.475C586.768 207.475 586.085 207.658 585.452 208.025C584.818 208.375 584.302 208.9 583.902 209.6C583.518 210.283 583.327 211.1 583.327 212.05C583.327 213 583.518 213.833 583.902 214.55C584.302 215.267 584.818 215.817 585.452 216.2C586.102 216.567 586.785 216.75 587.502 216.75C588.235 216.75 588.918 216.567 589.552 216.2C590.185 215.833 590.693 215.3 591.077 214.6C591.477 213.883 591.677 213.05 591.677 212.1ZM597.345 212.1C597.345 210.683 597.628 209.442 598.195 208.375C598.778 207.292 599.578 206.458 600.595 205.875C601.612 205.292 602.778 205 604.095 205C605.762 205 607.137 205.4 608.22 206.2C609.32 206.983 610.062 208.108 610.445 209.575H607.37C607.12 208.892 606.72 208.358 606.17 207.975C605.62 207.592 604.928 207.4 604.095 207.4C602.928 207.4 601.995 207.817 601.295 208.65C600.612 209.467 600.27 210.617 600.27 212.1C600.27 213.583 600.612 214.742 601.295 215.575C601.995 216.408 602.928 216.825 604.095 216.825C605.745 216.825 606.837 216.1 607.37 214.65H610.445C610.045 216.05 609.295 217.167 608.195 218C607.095 218.817 605.728 219.225 604.095 219.225C602.778 219.225 601.612 218.933 600.595 218.35C599.578 217.75 598.778 216.917 598.195 215.85C597.628 214.767 597.345 213.517 597.345 212.1ZM620.41 205C621.46 205 622.393 205.225 623.21 205.675C624.043 206.125 624.693 206.792 625.16 207.675C625.643 208.558 625.885 209.625 625.885 210.875V219H623.06V211.3C623.06 210.067 622.752 209.125 622.135 208.475C621.518 207.808 620.677 207.475 619.61 207.475C618.543 207.475 617.693 207.808 617.06 208.475C616.443 209.125 616.135 210.067 616.135 211.3V219H613.285V200.5H616.135V206.825C616.618 206.242 617.227 205.792 617.96 205.475C618.71 205.158 619.527 205 620.41 205ZM642.146 211.775C642.146 212.292 642.112 212.758 642.046 213.175H631.521C631.604 214.275 632.012 215.158 632.746 215.825C633.479 216.492 634.379 216.825 635.446 216.825C636.979 216.825 638.062 216.183 638.696 214.9H641.771C641.354 216.167 640.596 217.208 639.496 218.025C638.412 218.825 637.062 219.225 635.446 219.225C634.129 219.225 632.946 218.933 631.896 218.35C630.862 217.75 630.046 216.917 629.446 215.85C628.862 214.767 628.571 213.517 628.571 212.1C628.571 210.683 628.854 209.442 629.421 208.375C630.004 207.292 630.812 206.458 631.846 205.875C632.896 205.292 634.096 205 635.446 205C636.746 205 637.904 205.283 638.921 205.85C639.937 206.417 640.729 207.217 641.296 208.25C641.862 209.267 642.146 210.442 642.146 211.775ZM639.171 210.875C639.154 209.825 638.779 208.983 638.046 208.35C637.312 207.717 636.404 207.4 635.321 207.4C634.337 207.4 633.496 207.717 632.796 208.35C632.096 208.967 631.679 209.808 631.546 210.875H639.171ZM651.9 205C652.984 205 653.95 205.225 654.8 205.675C655.667 206.125 656.342 206.792 656.825 207.675C657.309 208.558 657.55 209.625 657.55 210.875V219H654.725V211.3C654.725 210.067 654.417 209.125 653.8 208.475C653.184 207.808 652.342 207.475 651.275 207.475C650.209 207.475 649.359 207.808 648.725 208.475C648.109 209.125 647.8 210.067 647.8 211.3V219H644.95V205.225H647.8V206.8C648.267 206.233 648.859 205.792 649.575 205.475C650.309 205.158 651.084 205 651.9 205ZM680.155 205.225V219H677.305V217.375C676.855 217.942 676.263 218.392 675.53 218.725C674.813 219.042 674.046 219.2 673.23 219.2C672.146 219.2 671.171 218.975 670.305 218.525C669.455 218.075 668.78 217.408 668.28 216.525C667.796 215.642 667.555 214.575 667.555 213.325V205.225H670.38V212.9C670.38 214.133 670.688 215.083 671.305 215.75C671.921 216.4 672.763 216.725 673.83 216.725C674.896 216.725 675.738 216.4 676.355 215.75C676.988 215.083 677.305 214.133 677.305 212.9V205.225H680.155ZM690.865 205C691.948 205 692.915 205.225 693.765 205.675C694.632 206.125 695.307 206.792 695.79 207.675C696.273 208.558 696.515 209.625 696.515 210.875V219H693.69V211.3C693.69 210.067 693.382 209.125 692.765 208.475C692.148 207.808 691.307 207.475 690.24 207.475C689.173 207.475 688.323 207.808 687.69 208.475C687.073 209.125 686.765 210.067 686.765 211.3V219H683.915V205.225H686.765V206.8C687.232 206.233 687.823 205.792 688.54 205.475C689.273 205.158 690.048 205 690.865 205ZM705.15 219.225C704.067 219.225 703.092 219.033 702.225 218.65C701.375 218.25 700.7 217.717 700.2 217.05C699.7 216.367 699.434 215.608 699.4 214.775H702.35C702.4 215.358 702.675 215.85 703.175 216.25C703.692 216.633 704.334 216.825 705.1 216.825C705.9 216.825 706.517 216.675 706.95 216.375C707.4 216.058 707.625 215.658 707.625 215.175C707.625 214.658 707.375 214.275 706.875 214.025C706.392 213.775 705.617 213.5 704.55 213.2C703.517 212.917 702.675 212.642 702.025 212.375C701.375 212.108 700.809 211.7 700.325 211.15C699.859 210.6 699.625 209.875 699.625 208.975C699.625 208.242 699.842 207.575 700.275 206.975C700.709 206.358 701.325 205.875 702.125 205.525C702.942 205.175 703.875 205 704.925 205C706.492 205 707.75 205.4 708.7 206.2C709.667 206.983 710.184 208.058 710.25 209.425H707.4C707.35 208.808 707.1 208.317 706.65 207.95C706.2 207.583 705.592 207.4 704.825 207.4C704.075 207.4 703.5 207.542 703.1 207.825C702.7 208.108 702.5 208.483 702.5 208.95C702.5 209.317 702.634 209.625 702.9 209.875C703.167 210.125 703.492 210.325 703.875 210.475C704.259 210.608 704.825 210.783 705.575 211C706.575 211.267 707.392 211.542 708.025 211.825C708.675 212.092 709.234 212.492 709.7 213.025C710.167 213.558 710.409 214.267 710.425 215.15C710.425 215.933 710.209 216.633 709.775 217.25C709.342 217.867 708.725 218.35 707.925 218.7C707.142 219.05 706.217 219.225 705.15 219.225ZM732.624 211.775C732.624 212.292 732.591 212.758 732.524 213.175H721.999C722.082 214.275 722.491 215.158 723.224 215.825C723.957 216.492 724.857 216.825 725.924 216.825C727.457 216.825 728.541 216.183 729.174 214.9H732.249C731.832 216.167 731.074 217.208 729.974 218.025C728.891 218.825 727.541 219.225 725.924 219.225C724.607 219.225 723.424 218.933 722.374 218.35C721.341 217.75 720.524 216.917 719.924 215.85C719.341 214.767 719.049 213.517 719.049 212.1C719.049 210.683 719.332 209.442 719.899 208.375C720.482 207.292 721.291 206.458 722.324 205.875C723.374 205.292 724.574 205 725.924 205C727.224 205 728.382 205.283 729.399 205.85C730.416 206.417 731.207 207.217 731.774 208.25C732.341 209.267 732.624 210.442 732.624 211.775ZM729.649 210.875C729.632 209.825 729.257 208.983 728.524 208.35C727.791 207.717 726.882 207.4 725.799 207.4C724.816 207.4 723.974 207.717 723.274 208.35C722.574 208.967 722.157 209.808 722.024 210.875H729.649ZM736.879 203.4C736.362 203.4 735.929 203.225 735.579 202.875C735.229 202.525 735.054 202.092 735.054 201.575C735.054 201.058 735.229 200.625 735.579 200.275C735.929 199.925 736.362 199.75 736.879 199.75C737.379 199.75 737.804 199.925 738.154 200.275C738.504 200.625 738.679 201.058 738.679 201.575C738.679 202.092 738.504 202.525 738.154 202.875C737.804 203.225 737.379 203.4 736.879 203.4ZM738.279 205.225V219H735.429V205.225H738.279ZM748.971 205C750.054 205 751.021 205.225 751.871 205.675C752.737 206.125 753.412 206.792 753.896 207.675C754.379 208.558 754.621 209.625 754.621 210.875V219H751.796V211.3C751.796 210.067 751.487 209.125 750.871 208.475C750.254 207.808 749.412 207.475 748.346 207.475C747.279 207.475 746.429 207.808 745.796 208.475C745.179 209.125 744.871 210.067 744.871 211.3V219H742.021V205.225H744.871V206.8C745.337 206.233 745.929 205.792 746.646 205.475C747.379 205.158 748.154 205 748.971 205ZM770.881 211.775C770.881 212.292 770.848 212.758 770.781 213.175H760.256C760.339 214.275 760.748 215.158 761.481 215.825C762.214 216.492 763.114 216.825 764.181 216.825C765.714 216.825 766.798 216.183 767.431 214.9H770.506C770.089 216.167 769.331 217.208 768.231 218.025C767.148 218.825 765.798 219.225 764.181 219.225C762.864 219.225 761.681 218.933 760.631 218.35C759.598 217.75 758.781 216.917 758.181 215.85C757.598 214.767 757.306 213.517 757.306 212.1C757.306 210.683 757.589 209.442 758.156 208.375C758.739 207.292 759.548 206.458 760.581 205.875C761.631 205.292 762.831 205 764.181 205C765.481 205 766.639 205.283 767.656 205.85C768.673 206.417 769.464 207.217 770.031 208.25C770.598 209.267 770.881 210.442 770.881 211.775ZM767.906 210.875C767.889 209.825 767.514 208.983 766.781 208.35C766.048 207.717 765.139 207.4 764.056 207.4C763.073 207.4 762.231 207.717 761.531 208.35C760.831 208.967 760.414 209.808 760.281 210.875H767.906ZM780.636 205C781.719 205 782.686 205.225 783.536 205.675C784.402 206.125 785.077 206.792 785.561 207.675C786.044 208.558 786.286 209.625 786.286 210.875V219H783.461V211.3C783.461 210.067 783.152 209.125 782.536 208.475C781.919 207.808 781.077 207.475 780.011 207.475C778.944 207.475 778.094 207.808 777.461 208.475C776.844 209.125 776.536 210.067 776.536 211.3V219H773.686V205.225H776.536V206.8C777.002 206.233 777.594 205.792 778.311 205.475C779.044 205.158 779.819 205 780.636 205ZM807.64 201.625V203.95H803.015V219H800.165V203.95H795.515V201.625H807.64ZM823.151 211.775C823.151 212.292 823.118 212.758 823.051 213.175H812.526C812.61 214.275 813.018 215.158 813.751 215.825C814.485 216.492 815.385 216.825 816.451 216.825C817.985 216.825 819.068 216.183 819.701 214.9H822.776C822.36 216.167 821.601 217.208 820.501 218.025C819.418 218.825 818.068 219.225 816.451 219.225C815.135 219.225 813.951 218.933 812.901 218.35C811.868 217.75 811.051 216.917 810.451 215.85C809.868 214.767 809.576 213.517 809.576 212.1C809.576 210.683 809.86 209.442 810.426 208.375C811.01 207.292 811.818 206.458 812.851 205.875C813.901 205.292 815.101 205 816.451 205C817.751 205 818.91 205.283 819.926 205.85C820.943 206.417 821.735 207.217 822.301 208.25C822.868 209.267 823.151 210.442 823.151 211.775ZM820.176 210.875C820.16 209.825 819.785 208.983 819.051 208.35C818.318 207.717 817.41 207.4 816.326 207.4C815.343 207.4 814.501 207.717 813.801 208.35C813.101 208.967 812.685 209.808 812.551 210.875H820.176ZM828.806 207.225C829.223 206.525 829.773 205.983 830.456 205.6C831.156 205.2 831.981 205 832.931 205V207.95H832.206C831.089 207.95 830.239 208.233 829.656 208.8C829.089 209.367 828.806 210.35 828.806 211.75V219H825.956V205.225H828.806V207.225ZM852.226 205C853.309 205 854.276 205.225 855.126 205.675C855.992 206.125 856.667 206.792 857.151 207.675C857.651 208.558 857.901 209.625 857.901 210.875V219H855.076V211.3C855.076 210.067 854.767 209.125 854.151 208.475C853.534 207.808 852.692 207.475 851.626 207.475C850.559 207.475 849.709 207.808 849.076 208.475C848.459 209.125 848.151 210.067 848.151 211.3V219H845.326V211.3C845.326 210.067 845.017 209.125 844.401 208.475C843.784 207.808 842.942 207.475 841.876 207.475C840.809 207.475 839.959 207.808 839.326 208.475C838.709 209.125 838.401 210.067 838.401 211.3V219H835.551V205.225H838.401V206.8C838.867 206.233 839.459 205.792 840.176 205.475C840.892 205.158 841.659 205 842.476 205C843.576 205 844.559 205.233 845.426 205.7C846.292 206.167 846.959 206.842 847.426 207.725C847.842 206.892 848.492 206.233 849.376 205.75C850.259 205.25 851.209 205 852.226 205ZM862.977 203.4C862.461 203.4 862.027 203.225 861.677 202.875C861.327 202.525 861.152 202.092 861.152 201.575C861.152 201.058 861.327 200.625 861.677 200.275C862.027 199.925 862.461 199.75 862.977 199.75C863.477 199.75 863.902 199.925 864.252 200.275C864.602 200.625 864.777 201.058 864.777 201.575C864.777 202.092 864.602 202.525 864.252 202.875C863.902 203.225 863.477 203.4 862.977 203.4ZM864.377 205.225V219H861.527V205.225H864.377ZM875.069 205C876.152 205 877.119 205.225 877.969 205.675C878.836 206.125 879.511 206.792 879.994 207.675C880.477 208.558 880.719 209.625 880.719 210.875V219H877.894V211.3C877.894 210.067 877.586 209.125 876.969 208.475C876.352 207.808 875.511 207.475 874.444 207.475C873.377 207.475 872.527 207.808 871.894 208.475C871.277 209.125 870.969 210.067 870.969 211.3V219H868.119V205.225H870.969V206.8C871.436 206.233 872.027 205.792 872.744 205.475C873.477 205.158 874.252 205 875.069 205ZM554.425 267.05C554.425 265.667 554.708 264.442 555.275 263.375C555.858 262.308 556.642 261.483 557.625 260.9C558.625 260.3 559.725 260 560.925 260C562.008 260 562.95 260.217 563.75 260.65C564.567 261.067 565.217 261.592 565.7 262.225V260.225H568.575V274H565.7V271.95C565.217 272.6 564.558 273.142 563.725 273.575C562.892 274.008 561.942 274.225 560.875 274.225C559.692 274.225 558.608 273.925 557.625 273.325C556.642 272.708 555.858 271.858 555.275 270.775C554.708 269.675 554.425 268.433 554.425 267.05ZM565.7 267.1C565.7 266.15 565.5 265.325 565.1 264.625C564.717 263.925 564.208 263.392 563.575 263.025C562.942 262.658 562.258 262.475 561.525 262.475C560.792 262.475 560.108 262.658 559.475 263.025C558.842 263.375 558.325 263.9 557.925 264.6C557.542 265.283 557.35 266.1 557.35 267.05C557.35 268 557.542 268.833 557.925 269.55C558.325 270.267 558.842 270.817 559.475 271.2C560.125 271.567 560.808 271.75 561.525 271.75C562.258 271.75 562.942 271.567 563.575 271.2C564.208 270.833 564.717 270.3 565.1 269.6C565.5 268.883 565.7 268.05 565.7 267.1ZM584.793 260.225V274H581.943V272.375C581.493 272.942 580.902 273.392 580.168 273.725C579.452 274.042 578.685 274.2 577.868 274.2C576.785 274.2 575.81 273.975 574.943 273.525C574.093 273.075 573.418 272.408 572.918 271.525C572.435 270.642 572.193 269.575 572.193 268.325V260.225H575.018V267.9C575.018 269.133 575.327 270.083 575.943 270.75C576.56 271.4 577.402 271.725 578.468 271.725C579.535 271.725 580.377 271.4 580.993 270.75C581.627 270.083 581.943 269.133 581.943 267.9V260.225H584.793ZM593.554 274.225C592.47 274.225 591.495 274.033 590.629 273.65C589.779 273.25 589.104 272.717 588.604 272.05C588.104 271.367 587.837 270.608 587.804 269.775H590.754C590.804 270.358 591.079 270.85 591.579 271.25C592.095 271.633 592.737 271.825 593.504 271.825C594.304 271.825 594.92 271.675 595.354 271.375C595.804 271.058 596.029 270.658 596.029 270.175C596.029 269.658 595.779 269.275 595.279 269.025C594.795 268.775 594.02 268.5 592.954 268.2C591.92 267.917 591.079 267.642 590.429 267.375C589.779 267.108 589.212 266.7 588.729 266.15C588.262 265.6 588.029 264.875 588.029 263.975C588.029 263.242 588.245 262.575 588.679 261.975C589.112 261.358 589.729 260.875 590.529 260.525C591.345 260.175 592.279 260 593.329 260C594.895 260 596.154 260.4 597.104 261.2C598.07 261.983 598.587 263.058 598.654 264.425H595.804C595.754 263.808 595.504 263.317 595.054 262.95C594.604 262.583 593.995 262.4 593.229 262.4C592.479 262.4 591.904 262.542 591.504 262.825C591.104 263.108 590.904 263.483 590.904 263.95C590.904 264.317 591.037 264.625 591.304 264.875C591.57 265.125 591.895 265.325 592.279 265.475C592.662 265.608 593.229 265.783 593.979 266C594.979 266.267 595.795 266.542 596.429 266.825C597.079 267.092 597.637 267.492 598.104 268.025C598.57 268.558 598.812 269.267 598.829 270.15C598.829 270.933 598.612 271.633 598.179 272.25C597.745 272.867 597.129 273.35 596.329 273.7C595.545 274.05 594.62 274.225 593.554 274.225ZM534.726 323.925C534.126 323.925 533.576 323.783 533.076 323.5C532.593 323.2 532.201 322.808 531.901 322.325C531.618 321.825 531.476 321.275 531.476 320.675C531.476 319.758 531.793 318.983 532.426 318.35C533.059 317.717 533.826 317.4 534.726 317.4C535.659 317.4 536.443 317.717 537.076 318.35C537.709 318.983 538.026 319.758 538.026 320.675C538.026 321.592 537.709 322.367 537.076 323C536.443 323.617 535.659 323.925 534.726 323.925ZM578 311.625L572.85 329H569.625L565.975 315.85L562.1 329L558.9 329.025L553.975 311.625H557L560.6 325.775L564.5 311.625H567.7L571.325 325.7L574.95 311.625H578ZM581.801 313.4C581.284 313.4 580.851 313.225 580.501 312.875C580.151 312.525 579.976 312.092 579.976 311.575C579.976 311.058 580.151 310.625 580.501 310.275C580.851 309.925 581.284 309.75 581.801 309.75C582.301 309.75 582.726 309.925 583.076 310.275C583.426 310.625 583.601 311.058 583.601 311.575C583.601 312.092 583.426 312.525 583.076 312.875C582.726 313.225 582.301 313.4 581.801 313.4ZM583.201 315.225V329H580.351V315.225H583.201ZM589.792 317.225C590.209 316.525 590.759 315.983 591.442 315.6C592.142 315.2 592.967 315 593.917 315V317.95H593.192C592.076 317.95 591.226 318.233 590.642 318.8C590.076 319.367 589.792 320.35 589.792 321.75V329H586.942V315.225H589.792V317.225ZM615.656 321.775C615.656 322.292 615.623 322.758 615.556 323.175H605.031C605.115 324.275 605.523 325.158 606.256 325.825C606.99 326.492 607.89 326.825 608.956 326.825C610.49 326.825 611.573 326.183 612.206 324.9H615.281C614.865 326.167 614.106 327.208 613.006 328.025C611.923 328.825 610.573 329.225 608.956 329.225C607.64 329.225 606.456 328.933 605.406 328.35C604.373 327.75 603.556 326.917 602.956 325.85C602.373 324.767 602.081 323.517 602.081 322.1C602.081 320.683 602.365 319.442 602.931 318.375C603.515 317.292 604.323 316.458 605.356 315.875C606.406 315.292 607.606 315 608.956 315C610.256 315 611.415 315.283 612.431 315.85C613.448 316.417 614.24 317.217 614.806 318.25C615.373 319.267 615.656 320.442 615.656 321.775ZM612.681 320.875C612.665 319.825 612.29 318.983 611.556 318.35C610.823 317.717 609.915 317.4 608.831 317.4C607.848 317.4 607.006 317.717 606.306 318.35C605.606 318.967 605.19 319.808 605.056 320.875H612.681ZM621.311 317.225C621.728 316.525 622.278 315.983 622.961 315.6C623.661 315.2 624.486 315 625.436 315V317.95H624.711C623.594 317.95 622.744 318.233 622.161 318.8C621.594 319.367 621.311 320.35 621.311 321.75V329H618.461V315.225H621.311V317.225ZM633.056 329.225C631.972 329.225 630.997 329.033 630.131 328.65C629.281 328.25 628.606 327.717 628.106 327.05C627.606 326.367 627.339 325.608 627.306 324.775H630.256C630.306 325.358 630.581 325.85 631.081 326.25C631.597 326.633 632.239 326.825 633.006 326.825C633.806 326.825 634.422 326.675 634.856 326.375C635.306 326.058 635.531 325.658 635.531 325.175C635.531 324.658 635.281 324.275 634.781 324.025C634.297 323.775 633.522 323.5 632.456 323.2C631.422 322.917 630.581 322.642 629.931 322.375C629.281 322.108 628.714 321.7 628.231 321.15C627.764 320.6 627.531 319.875 627.531 318.975C627.531 318.242 627.747 317.575 628.181 316.975C628.614 316.358 629.231 315.875 630.031 315.525C630.847 315.175 631.781 315 632.831 315C634.397 315 635.656 315.4 636.606 316.2C637.572 316.983 638.089 318.058 638.156 319.425H635.306C635.256 318.808 635.006 318.317 634.556 317.95C634.106 317.583 633.497 317.4 632.731 317.4C631.981 317.4 631.406 317.542 631.006 317.825C630.606 318.108 630.406 318.483 630.406 318.95C630.406 319.317 630.539 319.625 630.806 319.875C631.072 320.125 631.397 320.325 631.781 320.475C632.164 320.608 632.731 320.783 633.481 321C634.481 321.267 635.297 321.542 635.931 321.825C636.581 322.092 637.139 322.492 637.606 323.025C638.072 323.558 638.314 324.267 638.331 325.15C638.331 325.933 638.114 326.633 637.681 327.25C637.247 327.867 636.631 328.35 635.831 328.7C635.047 329.05 634.122 329.225 633.056 329.225ZM644.735 317.55V325.175C644.735 325.692 644.852 326.067 645.085 326.3C645.335 326.517 645.752 326.625 646.335 326.625H648.085V329H645.835C644.552 329 643.568 328.7 642.885 328.1C642.202 327.5 641.86 326.525 641.86 325.175V317.55H640.235V315.225H641.86V311.8H644.735V315.225H648.085V317.55H644.735ZM663.337 321.775C663.337 322.292 663.304 322.758 663.237 323.175H652.712C652.795 324.275 653.204 325.158 653.937 325.825C654.67 326.492 655.57 326.825 656.637 326.825C658.17 326.825 659.254 326.183 659.887 324.9H662.962C662.545 326.167 661.787 327.208 660.687 328.025C659.604 328.825 658.254 329.225 656.637 329.225C655.32 329.225 654.137 328.933 653.087 328.35C652.054 327.75 651.237 326.917 650.637 325.85C650.054 324.767 649.762 323.517 649.762 322.1C649.762 320.683 650.045 319.442 650.612 318.375C651.195 317.292 652.004 316.458 653.037 315.875C654.087 315.292 655.287 315 656.637 315C657.937 315 659.095 315.283 660.112 315.85C661.129 316.417 661.92 317.217 662.487 318.25C663.054 319.267 663.337 320.442 663.337 321.775ZM660.362 320.875C660.345 319.825 659.97 318.983 659.237 318.35C658.504 317.717 657.595 317.4 656.512 317.4C655.529 317.4 654.687 317.717 653.987 318.35C653.287 318.967 652.87 319.808 652.737 320.875H660.362ZM668.992 310.5V329H666.142V310.5H668.992ZM675.583 310.5V329H672.733V310.5H675.583ZM691.95 321.775C691.95 322.292 691.917 322.758 691.85 323.175H681.325C681.409 324.275 681.817 325.158 682.55 325.825C683.284 326.492 684.184 326.825 685.25 326.825C686.784 326.825 687.867 326.183 688.5 324.9H691.575C691.159 326.167 690.4 327.208 689.3 328.025C688.217 328.825 686.867 329.225 685.25 329.225C683.934 329.225 682.75 328.933 681.7 328.35C680.667 327.75 679.85 326.917 679.25 325.85C678.667 324.767 678.375 323.517 678.375 322.1C678.375 320.683 678.659 319.442 679.225 318.375C679.809 317.292 680.617 316.458 681.65 315.875C682.7 315.292 683.9 315 685.25 315C686.55 315 687.709 315.283 688.725 315.85C689.742 316.417 690.534 317.217 691.1 318.25C691.667 319.267 691.95 320.442 691.95 321.775ZM688.975 320.875C688.959 319.825 688.584 318.983 687.85 318.35C687.117 317.717 686.209 317.4 685.125 317.4C684.142 317.4 683.3 317.717 682.6 318.35C681.9 318.967 681.484 319.808 681.35 320.875H688.975ZM701.705 315C702.788 315 703.755 315.225 704.605 315.675C705.472 316.125 706.147 316.792 706.63 317.675C707.113 318.558 707.355 319.625 707.355 320.875V329H704.53V321.3C704.53 320.067 704.222 319.125 703.605 318.475C702.988 317.808 702.147 317.475 701.08 317.475C700.013 317.475 699.163 317.808 698.53 318.475C697.913 319.125 697.605 320.067 697.605 321.3V329H694.755V315.225H697.605V316.8C698.072 316.233 698.663 315.792 699.38 315.475C700.113 315.158 700.888 315 701.705 315ZM730.109 321.775C730.109 322.292 730.076 322.758 730.009 323.175H719.484C719.568 324.275 719.976 325.158 720.709 325.825C721.443 326.492 722.343 326.825 723.409 326.825C724.943 326.825 726.026 326.183 726.659 324.9H729.734C729.318 326.167 728.559 327.208 727.459 328.025C726.376 328.825 725.026 329.225 723.409 329.225C722.093 329.225 720.909 328.933 719.859 328.35C718.826 327.75 718.009 326.917 717.409 325.85C716.826 324.767 716.534 323.517 716.534 322.1C716.534 320.683 716.818 319.442 717.384 318.375C717.968 317.292 718.776 316.458 719.809 315.875C720.859 315.292 722.059 315 723.409 315C724.709 315 725.868 315.283 726.884 315.85C727.901 316.417 728.693 317.217 729.259 318.25C729.826 319.267 730.109 320.442 730.109 321.775ZM727.134 320.875C727.118 319.825 726.743 318.983 726.009 318.35C725.276 317.717 724.368 317.4 723.284 317.4C722.301 317.4 721.459 317.717 720.759 318.35C720.059 318.967 719.643 319.808 719.509 320.875H727.134ZM734.364 313.4C733.847 313.4 733.414 313.225 733.064 312.875C732.714 312.525 732.539 312.092 732.539 311.575C732.539 311.058 732.714 310.625 733.064 310.275C733.414 309.925 733.847 309.75 734.364 309.75C734.864 309.75 735.289 309.925 735.639 310.275C735.989 310.625 736.164 311.058 736.164 311.575C736.164 312.092 735.989 312.525 735.639 312.875C735.289 313.225 734.864 313.4 734.364 313.4ZM735.764 315.225V329H732.914V315.225H735.764ZM746.456 315C747.539 315 748.506 315.225 749.356 315.675C750.223 316.125 750.898 316.792 751.381 317.675C751.864 318.558 752.106 319.625 752.106 320.875V329H749.281V321.3C749.281 320.067 748.973 319.125 748.356 318.475C747.739 317.808 746.898 317.475 745.831 317.475C744.764 317.475 743.914 317.808 743.281 318.475C742.664 319.125 742.356 320.067 742.356 321.3V329H739.506V315.225H742.356V316.8C742.823 316.233 743.414 315.792 744.131 315.475C744.864 315.158 745.639 315 746.456 315ZM768.366 321.775C768.366 322.292 768.333 322.758 768.266 323.175H757.741C757.825 324.275 758.233 325.158 758.966 325.825C759.7 326.492 760.6 326.825 761.666 326.825C763.2 326.825 764.283 326.183 764.916 324.9H767.991C767.575 326.167 766.816 327.208 765.716 328.025C764.633 328.825 763.283 329.225 761.666 329.225C760.35 329.225 759.166 328.933 758.116 328.35C757.083 327.75 756.266 326.917 755.666 325.85C755.083 324.767 754.791 323.517 754.791 322.1C754.791 320.683 755.075 319.442 755.641 318.375C756.225 317.292 757.033 316.458 758.066 315.875C759.116 315.292 760.316 315 761.666 315C762.966 315 764.125 315.283 765.141 315.85C766.158 316.417 766.95 317.217 767.516 318.25C768.083 319.267 768.366 320.442 768.366 321.775ZM765.391 320.875C765.375 319.825 765 318.983 764.266 318.35C763.533 317.717 762.625 317.4 761.541 317.4C760.558 317.4 759.716 317.717 759.016 318.35C758.316 318.967 757.9 319.808 757.766 320.875H765.391ZM556.825 368.4C556.308 368.4 555.875 368.225 555.525 367.875C555.175 367.525 555 367.092 555 366.575C555 366.058 555.175 365.625 555.525 365.275C555.875 364.925 556.308 364.75 556.825 364.75C557.325 364.75 557.75 364.925 558.1 365.275C558.45 365.625 558.625 366.058 558.625 366.575C558.625 367.092 558.45 367.525 558.1 367.875C557.75 368.225 557.325 368.4 556.825 368.4ZM558.225 370.225V384H555.375V370.225H558.225ZM568.917 370C570 370 570.967 370.225 571.817 370.675C572.683 371.125 573.358 371.792 573.842 372.675C574.325 373.558 574.567 374.625 574.567 375.875V384H571.742V376.3C571.742 375.067 571.433 374.125 570.817 373.475C570.2 372.808 569.358 372.475 568.292 372.475C567.225 372.475 566.375 372.808 565.742 373.475C565.125 374.125 564.817 375.067 564.817 376.3V384H561.967V370.225H564.817V371.8C565.283 371.233 565.875 370.792 566.592 370.475C567.325 370.158 568.1 370 568.917 370ZM577.252 377.05C577.252 375.667 577.535 374.442 578.102 373.375C578.685 372.308 579.469 371.483 580.452 370.9C581.452 370.3 582.56 370 583.777 370C584.677 370 585.56 370.2 586.427 370.6C587.31 370.983 588.01 371.5 588.527 372.15V365.5H591.402V384H588.527V381.925C588.06 382.592 587.41 383.142 586.577 383.575C585.76 384.008 584.819 384.225 583.752 384.225C582.552 384.225 581.452 383.925 580.452 383.325C579.469 382.708 578.685 381.858 578.102 380.775C577.535 379.675 577.252 378.433 577.252 377.05ZM588.527 377.1C588.527 376.15 588.327 375.325 587.927 374.625C587.544 373.925 587.035 373.392 586.402 373.025C585.769 372.658 585.085 372.475 584.352 372.475C583.619 372.475 582.935 372.658 582.302 373.025C581.669 373.375 581.152 373.9 580.752 374.6C580.369 375.283 580.177 376.1 580.177 377.05C580.177 378 580.369 378.833 580.752 379.55C581.152 380.267 581.669 380.817 582.302 381.2C582.952 381.567 583.635 381.75 584.352 381.75C585.085 381.75 585.769 381.567 586.402 381.2C587.035 380.833 587.544 380.3 587.927 379.6C588.327 378.883 588.527 378.05 588.527 377.1ZM596.596 368.4C596.079 368.4 595.646 368.225 595.296 367.875C594.946 367.525 594.771 367.092 594.771 366.575C594.771 366.058 594.946 365.625 595.296 365.275C595.646 364.925 596.079 364.75 596.596 364.75C597.096 364.75 597.521 364.925 597.871 365.275C598.221 365.625 598.396 366.058 598.396 366.575C598.396 367.092 598.221 367.525 597.871 367.875C597.521 368.225 597.096 368.4 596.596 368.4ZM597.996 370.225V384H595.146V370.225H597.996ZM607.062 381.45L610.962 370.225H613.987L608.737 384H605.337L600.112 370.225H603.162L607.062 381.45ZM617.592 368.4C617.075 368.4 616.642 368.225 616.292 367.875C615.942 367.525 615.767 367.092 615.767 366.575C615.767 366.058 615.942 365.625 616.292 365.275C616.642 364.925 617.075 364.75 617.592 364.75C618.092 364.75 618.517 364.925 618.867 365.275C619.217 365.625 619.392 366.058 619.392 366.575C619.392 367.092 619.217 367.525 618.867 367.875C618.517 368.225 618.092 368.4 617.592 368.4ZM618.992 370.225V384H616.142V370.225H618.992ZM621.783 377.05C621.783 375.667 622.067 374.442 622.633 373.375C623.217 372.308 624 371.483 624.983 370.9C625.983 370.3 627.092 370 628.308 370C629.208 370 630.092 370.2 630.958 370.6C631.842 370.983 632.542 371.5 633.058 372.15V365.5H635.933V384H633.058V381.925C632.592 382.592 631.942 383.142 631.108 383.575C630.292 384.008 629.35 384.225 628.283 384.225C627.083 384.225 625.983 383.925 624.983 383.325C624 382.708 623.217 381.858 622.633 380.775C622.067 379.675 621.783 378.433 621.783 377.05ZM633.058 377.1C633.058 376.15 632.858 375.325 632.458 374.625C632.075 373.925 631.567 373.392 630.933 373.025C630.3 372.658 629.617 372.475 628.883 372.475C628.15 372.475 627.467 372.658 626.833 373.025C626.2 373.375 625.683 373.9 625.283 374.6C624.9 375.283 624.708 376.1 624.708 377.05C624.708 378 624.9 378.833 625.283 379.55C625.683 380.267 626.2 380.817 626.833 381.2C627.483 381.567 628.167 381.75 628.883 381.75C629.617 381.75 630.3 381.567 630.933 381.2C631.567 380.833 632.075 380.3 632.458 379.6C632.858 378.883 633.058 378.05 633.058 377.1ZM652.152 370.225V384H649.302V382.375C648.852 382.942 648.26 383.392 647.527 383.725C646.81 384.042 646.043 384.2 645.227 384.2C644.143 384.2 643.168 383.975 642.302 383.525C641.452 383.075 640.777 382.408 640.277 381.525C639.793 380.642 639.552 379.575 639.552 378.325V370.225H642.377V377.9C642.377 379.133 642.685 380.083 643.302 380.75C643.918 381.4 644.76 381.725 645.827 381.725C646.893 381.725 647.735 381.4 648.352 380.75C648.985 380.083 649.302 379.133 649.302 377.9V370.225H652.152ZM668.537 376.775C668.537 377.292 668.504 377.758 668.437 378.175H657.912C657.995 379.275 658.404 380.158 659.137 380.825C659.87 381.492 660.77 381.825 661.837 381.825C663.37 381.825 664.454 381.183 665.087 379.9H668.162C667.745 381.167 666.987 382.208 665.887 383.025C664.804 383.825 663.454 384.225 661.837 384.225C660.52 384.225 659.337 383.933 658.287 383.35C657.254 382.75 656.437 381.917 655.837 380.85C655.254 379.767 654.962 378.517 654.962 377.1C654.962 375.683 655.245 374.442 655.812 373.375C656.395 372.292 657.204 371.458 658.237 370.875C659.287 370.292 660.487 370 661.837 370C663.137 370 664.295 370.283 665.312 370.85C666.329 371.417 667.12 372.217 667.687 373.25C668.254 374.267 668.537 375.442 668.537 376.775ZM665.562 375.875C665.545 374.825 665.17 373.983 664.437 373.35C663.704 372.717 662.795 372.4 661.712 372.4C660.729 372.4 659.887 372.717 659.187 373.35C658.487 373.967 658.07 374.808 657.937 375.875H665.562ZM674.192 365.5V384H671.342V365.5H674.192ZM680.784 365.5V384H677.934V365.5H680.784ZM697.15 376.775C697.15 377.292 697.117 377.758 697.05 378.175H686.525C686.609 379.275 687.017 380.158 687.75 380.825C688.484 381.492 689.384 381.825 690.45 381.825C691.984 381.825 693.067 381.183 693.7 379.9H696.775C696.359 381.167 695.6 382.208 694.5 383.025C693.417 383.825 692.067 384.225 690.45 384.225C689.134 384.225 687.95 383.933 686.9 383.35C685.867 382.75 685.05 381.917 684.45 380.85C683.867 379.767 683.575 378.517 683.575 377.1C683.575 375.683 683.859 374.442 684.425 373.375C685.009 372.292 685.817 371.458 686.85 370.875C687.9 370.292 689.1 370 690.45 370C691.75 370 692.909 370.283 693.925 370.85C694.942 371.417 695.734 372.217 696.3 373.25C696.867 374.267 697.15 375.442 697.15 376.775ZM694.175 375.875C694.159 374.825 693.784 373.983 693.05 373.35C692.317 372.717 691.409 372.4 690.325 372.4C689.342 372.4 688.5 372.717 687.8 373.35C687.1 373.967 686.684 374.808 686.55 375.875H694.175ZM716.924 380.45H709.649L708.399 384H705.424L711.649 366.6H714.949L721.174 384H718.174L716.924 380.45ZM716.124 378.125L713.299 370.05L710.449 378.125H716.124ZM726.731 372.25C727.214 371.617 727.873 371.083 728.706 370.65C729.539 370.217 730.481 370 731.531 370C732.731 370 733.823 370.3 734.806 370.9C735.806 371.483 736.589 372.308 737.156 373.375C737.723 374.442 738.006 375.667 738.006 377.05C738.006 378.433 737.723 379.675 737.156 380.775C736.589 381.858 735.806 382.708 734.806 383.325C733.823 383.925 732.731 384.225 731.531 384.225C730.481 384.225 729.548 384.017 728.731 383.6C727.914 383.167 727.248 382.633 726.731 382V390.55H723.881V370.225H726.731V372.25ZM735.106 377.05C735.106 376.1 734.906 375.283 734.506 374.6C734.123 373.9 733.606 373.375 732.956 373.025C732.323 372.658 731.639 372.475 730.906 372.475C730.189 372.475 729.506 372.658 728.856 373.025C728.223 373.392 727.706 373.925 727.306 374.625C726.923 375.325 726.731 376.15 726.731 377.1C726.731 378.05 726.923 378.883 727.306 379.6C727.706 380.3 728.223 380.833 728.856 381.2C729.506 381.567 730.189 381.75 730.906 381.75C731.639 381.75 732.323 381.567 732.956 381.2C733.606 380.817 734.123 380.267 734.506 379.55C734.906 378.833 735.106 378 735.106 377.05ZM743.674 372.25C744.158 371.617 744.816 371.083 745.649 370.65C746.483 370.217 747.424 370 748.474 370C749.674 370 750.766 370.3 751.749 370.9C752.749 371.483 753.533 372.308 754.099 373.375C754.666 374.442 754.949 375.667 754.949 377.05C754.949 378.433 754.666 379.675 754.099 380.775C753.533 381.858 752.749 382.708 751.749 383.325C750.766 383.925 749.674 384.225 748.474 384.225C747.424 384.225 746.491 384.017 745.674 383.6C744.858 383.167 744.191 382.633 743.674 382V390.55H740.824V370.225H743.674V372.25ZM752.049 377.05C752.049 376.1 751.849 375.283 751.449 374.6C751.066 373.9 750.549 373.375 749.899 373.025C749.266 372.658 748.583 372.475 747.849 372.475C747.133 372.475 746.449 372.658 745.799 373.025C745.166 373.392 744.649 373.925 744.249 374.625C743.866 375.325 743.674 376.15 743.674 377.1C743.674 378.05 743.866 378.883 744.249 379.6C744.649 380.3 745.166 380.833 745.799 381.2C746.449 381.567 747.133 381.75 747.849 381.75C748.583 381.75 749.266 381.567 749.899 381.2C750.549 380.817 751.066 380.267 751.449 379.55C751.849 378.833 752.049 378 752.049 377.05ZM770.037 372.55H767.487V384H764.612V372.55H762.987V370.225H764.612V369.25C764.612 367.667 765.028 366.517 765.862 365.8C766.712 365.067 768.037 364.7 769.837 364.7V367.075C768.97 367.075 768.362 367.242 768.012 367.575C767.662 367.892 767.487 368.45 767.487 369.25V370.225H770.037V372.55ZM785.038 370.225V384H782.188V382.375C781.738 382.942 781.146 383.392 780.413 383.725C779.696 384.042 778.929 384.2 778.113 384.2C777.029 384.2 776.054 383.975 775.188 383.525C774.338 383.075 773.663 382.408 773.163 381.525C772.679 380.642 772.438 379.575 772.438 378.325V370.225H775.263V377.9C775.263 379.133 775.571 380.083 776.188 380.75C776.804 381.4 777.646 381.725 778.713 381.725C779.779 381.725 780.621 381.4 781.238 380.75C781.871 380.083 782.188 379.133 782.188 377.9V370.225H785.038ZM776.663 368.5C776.246 368.5 775.888 368.358 775.588 368.075C775.304 367.775 775.163 367.417 775.163 367C775.163 366.583 775.304 366.233 775.588 365.95C775.888 365.65 776.246 365.5 776.663 365.5C777.079 365.5 777.429 365.65 777.713 365.95C778.013 366.233 778.163 366.583 778.163 367C778.163 367.417 778.013 367.775 777.713 368.075C777.429 368.358 777.079 368.5 776.663 368.5ZM780.963 368.5C780.546 368.5 780.188 368.358 779.888 368.075C779.604 367.775 779.463 367.417 779.463 367C779.463 366.583 779.604 366.233 779.888 365.95C780.188 365.65 780.546 365.5 780.963 365.5C781.379 365.5 781.729 365.65 782.013 365.95C782.313 366.233 782.463 366.583 782.463 367C782.463 367.417 782.313 367.775 782.013 368.075C781.729 368.358 781.379 368.5 780.963 368.5ZM791.648 372.225C792.065 371.525 792.615 370.983 793.298 370.6C793.998 370.2 794.823 370 795.773 370V372.95H795.048C793.931 372.95 793.081 373.233 792.498 373.8C791.931 374.367 791.648 375.35 791.648 376.75V384H788.798V370.225H791.648V372.225ZM810.562 366.625C812.412 366.625 814.028 366.983 815.412 367.7C816.812 368.4 817.887 369.417 818.637 370.75C819.403 372.067 819.787 373.608 819.787 375.375C819.787 377.142 819.403 378.675 818.637 379.975C817.887 381.275 816.812 382.275 815.412 382.975C814.028 383.658 812.412 384 810.562 384H804.887V366.625H810.562ZM810.562 381.675C812.595 381.675 814.153 381.125 815.237 380.025C816.32 378.925 816.862 377.375 816.862 375.375C816.862 373.358 816.32 371.783 815.237 370.65C814.153 369.517 812.595 368.95 810.562 368.95H807.737V381.675H810.562ZM824.061 368.4C823.545 368.4 823.111 368.225 822.761 367.875C822.411 367.525 822.236 367.092 822.236 366.575C822.236 366.058 822.411 365.625 822.761 365.275C823.111 364.925 823.545 364.75 824.061 364.75C824.561 364.75 824.986 364.925 825.336 365.275C825.686 365.625 825.861 366.058 825.861 366.575C825.861 367.092 825.686 367.525 825.336 367.875C824.986 368.225 824.561 368.4 824.061 368.4ZM825.461 370.225V384H822.611V370.225H825.461ZM828.253 377.1C828.253 375.683 828.536 374.442 829.103 373.375C829.686 372.292 830.486 371.458 831.503 370.875C832.52 370.292 833.686 370 835.003 370C836.67 370 838.045 370.4 839.128 371.2C840.228 371.983 840.97 373.108 841.353 374.575H838.278C838.028 373.892 837.628 373.358 837.078 372.975C836.528 372.592 835.836 372.4 835.003 372.4C833.836 372.4 832.903 372.817 832.203 373.65C831.52 374.467 831.178 375.617 831.178 377.1C831.178 378.583 831.52 379.742 832.203 380.575C832.903 381.408 833.836 381.825 835.003 381.825C836.653 381.825 837.745 381.1 838.278 379.65H841.353C840.953 381.05 840.203 382.167 839.103 383C838.003 383.817 836.636 384.225 835.003 384.225C833.686 384.225 832.52 383.933 831.503 383.35C830.486 382.75 829.686 381.917 829.103 380.85C828.536 379.767 828.253 378.517 828.253 377.1ZM851.318 370C852.368 370 853.302 370.225 854.118 370.675C854.952 371.125 855.602 371.792 856.068 372.675C856.552 373.558 856.793 374.625 856.793 375.875V384H853.968V376.3C853.968 375.067 853.66 374.125 853.043 373.475C852.427 372.808 851.585 372.475 850.518 372.475C849.452 372.475 848.602 372.808 847.968 373.475C847.352 374.125 847.043 375.067 847.043 376.3V384H844.193V365.5H847.043V371.825C847.527 371.242 848.135 370.792 848.868 370.475C849.618 370.158 850.435 370 851.318 370Z" fill="black"/>
<path d="M564.85 91.625V104.15C564.85 105.7 564.375 106.925 563.425 107.825C562.492 108.725 561.258 109.175 559.725 109.175C558.192 109.175 556.95 108.725 556 107.825C555.067 106.925 554.6 105.7 554.6 104.15H557.475C557.492 104.917 557.683 105.525 558.05 105.975C558.433 106.425 558.992 106.65 559.725 106.65C560.458 106.65 561.017 106.425 561.4 105.975C561.783 105.508 561.975 104.9 561.975 104.15V91.625H564.85ZM582.111 101.775C582.111 102.292 582.078 102.758 582.011 103.175H571.486C571.57 104.275 571.978 105.158 572.711 105.825C573.445 106.492 574.345 106.825 575.411 106.825C576.945 106.825 578.028 106.183 578.661 104.9H581.736C581.32 106.167 580.561 107.208 579.461 108.025C578.378 108.825 577.028 109.225 575.411 109.225C574.095 109.225 572.911 108.933 571.861 108.35C570.828 107.75 570.011 106.917 569.411 105.85C568.828 104.767 568.536 103.517 568.536 102.1C568.536 100.683 568.82 99.4417 569.386 98.375C569.97 97.2917 570.778 96.4583 571.811 95.875C572.861 95.2917 574.061 95 575.411 95C576.711 95 577.87 95.2833 578.886 95.85C579.903 96.4167 580.695 97.2167 581.261 98.25C581.828 99.2667 582.111 100.442 582.111 101.775ZM579.136 100.875C579.12 99.825 578.745 98.9833 578.011 98.35C577.278 97.7167 576.37 97.4 575.286 97.4C574.303 97.4 573.461 97.7167 572.761 98.35C572.061 98.9667 571.645 99.8083 571.511 100.875H579.136ZM588.241 97.55V105.175C588.241 105.692 588.358 106.067 588.591 106.3C588.841 106.517 589.258 106.625 589.841 106.625H591.591V109H589.341C588.058 109 587.074 108.7 586.391 108.1C585.708 107.5 585.366 106.525 585.366 105.175V97.55H583.741V95.225H585.366V91.8H588.241V95.225H591.591V97.55H588.241ZM596.743 106.675H602.993V109H593.443V106.675L599.718 97.55H593.443V95.225H602.993V97.55L596.743 106.675ZM609.31 97.55V105.175C609.31 105.692 609.427 106.067 609.66 106.3C609.91 106.517 610.327 106.625 610.91 106.625H612.66V109H610.41C609.127 109 608.144 108.7 607.46 108.1C606.777 107.5 606.435 106.525 606.435 105.175V97.55H604.81V95.225H606.435V91.8H609.31V95.225H612.66V97.55H609.31ZM626.781 109.225C625.698 109.225 624.723 109.033 623.856 108.65C623.006 108.25 622.331 107.717 621.831 107.05C621.331 106.367 621.065 105.608 621.031 104.775H623.981C624.031 105.358 624.306 105.85 624.806 106.25C625.323 106.633 625.965 106.825 626.731 106.825C627.531 106.825 628.148 106.675 628.581 106.375C629.031 106.058 629.256 105.658 629.256 105.175C629.256 104.658 629.006 104.275 628.506 104.025C628.023 103.775 627.248 103.5 626.181 103.2C625.148 102.917 624.306 102.642 623.656 102.375C623.006 102.108 622.44 101.7 621.956 101.15C621.49 100.6 621.256 99.875 621.256 98.975C621.256 98.2417 621.473 97.575 621.906 96.975C622.34 96.3583 622.956 95.875 623.756 95.525C624.573 95.175 625.506 95 626.556 95C628.123 95 629.381 95.4 630.331 96.2C631.298 96.9833 631.815 98.0583 631.881 99.425H629.031C628.981 98.8083 628.731 98.3167 628.281 97.95C627.831 97.5833 627.223 97.4 626.456 97.4C625.706 97.4 625.131 97.5417 624.731 97.825C624.331 98.1083 624.131 98.4833 624.131 98.95C624.131 99.3167 624.265 99.625 624.531 99.875C624.798 100.125 625.123 100.325 625.506 100.475C625.89 100.608 626.456 100.783 627.206 101C628.206 101.267 629.023 101.542 629.656 101.825C630.306 102.092 630.865 102.492 631.331 103.025C631.798 103.558 632.04 104.267 632.056 105.15C632.056 105.933 631.84 106.633 631.406 107.25C630.973 107.867 630.356 108.35 629.556 108.7C628.773 109.05 627.848 109.225 626.781 109.225ZM638.461 97.55V105.175C638.461 105.692 638.577 106.067 638.811 106.3C639.061 106.517 639.477 106.625 640.061 106.625H641.811V109H639.561C638.277 109 637.294 108.7 636.611 108.1C635.927 107.5 635.586 106.525 635.586 105.175V97.55H633.961V95.225H635.586V91.8H638.461V95.225H641.811V97.55H638.461ZM643.488 102.05C643.488 100.667 643.771 99.4417 644.338 98.375C644.921 97.3083 645.704 96.4833 646.688 95.9C647.688 95.3 648.788 95 649.988 95C651.071 95 652.013 95.2167 652.813 95.65C653.629 96.0667 654.279 96.5917 654.763 97.225V95.225H657.638V109H654.763V106.95C654.279 107.6 653.621 108.142 652.788 108.575C651.954 109.008 651.004 109.225 649.938 109.225C648.754 109.225 647.671 108.925 646.688 108.325C645.704 107.708 644.921 106.858 644.338 105.775C643.771 104.675 643.488 103.433 643.488 102.05ZM654.763 102.1C654.763 101.15 654.563 100.325 654.163 99.625C653.779 98.925 653.271 98.3917 652.638 98.025C652.004 97.6583 651.321 97.475 650.588 97.475C649.854 97.475 649.171 97.6583 648.538 98.025C647.904 98.375 647.388 98.9 646.988 99.6C646.604 100.283 646.413 101.1 646.413 102.05C646.413 103 646.604 103.833 646.988 104.55C647.388 105.267 647.904 105.817 648.538 106.2C649.188 106.567 649.871 106.75 650.588 106.75C651.321 106.75 652.004 106.567 652.638 106.2C653.271 105.833 653.779 105.3 654.163 104.6C654.563 103.883 654.763 103.05 654.763 102.1ZM664.231 97.225C664.648 96.525 665.198 95.9833 665.881 95.6C666.581 95.2 667.406 95 668.356 95V97.95H667.631C666.514 97.95 665.664 98.2333 665.081 98.8C664.514 99.3667 664.231 100.35 664.231 101.75V109H661.381V95.225H664.231V97.225ZM674.301 97.55V105.175C674.301 105.692 674.417 106.067 674.651 106.3C674.901 106.517 675.317 106.625 675.901 106.625H677.651V109H675.401C674.117 109 673.134 108.7 672.451 108.1C671.767 107.5 671.426 106.525 671.426 105.175V97.55H669.801V95.225H671.426V91.8H674.301V95.225H677.651V97.55H674.301ZM692.902 101.775C692.902 102.292 692.869 102.758 692.802 103.175H682.277C682.361 104.275 682.769 105.158 683.502 105.825C684.236 106.492 685.136 106.825 686.202 106.825C687.736 106.825 688.819 106.183 689.452 104.9H692.527C692.111 106.167 691.352 107.208 690.252 108.025C689.169 108.825 687.819 109.225 686.202 109.225C684.886 109.225 683.702 108.933 682.652 108.35C681.619 107.75 680.802 106.917 680.202 105.85C679.619 104.767 679.327 103.517 679.327 102.1C679.327 100.683 679.611 99.4417 680.177 98.375C680.761 97.2917 681.569 96.4583 682.602 95.875C683.652 95.2917 684.852 95 686.202 95C687.502 95 688.661 95.2833 689.677 95.85C690.694 96.4167 691.486 97.2167 692.052 98.25C692.619 99.2667 692.902 100.442 692.902 101.775ZM689.927 100.875C689.911 99.825 689.536 98.9833 688.802 98.35C688.069 97.7167 687.161 97.4 686.077 97.4C685.094 97.4 684.252 97.7167 683.552 98.35C682.852 98.9667 682.436 99.8083 682.302 100.875H689.927ZM702.657 95C703.74 95 704.707 95.225 705.557 95.675C706.424 96.125 707.099 96.7917 707.582 97.675C708.065 98.5583 708.307 99.625 708.307 100.875V109H705.482V101.3C705.482 100.067 705.174 99.125 704.557 98.475C703.94 97.8083 703.099 97.475 702.032 97.475C700.965 97.475 700.115 97.8083 699.482 98.475C698.865 99.125 698.557 100.067 698.557 101.3V109H695.707V95.225H698.557V96.8C699.024 96.2333 699.615 95.7917 700.332 95.475C701.065 95.1583 701.84 95 702.657 95Z" fill="#FF5757"/>
<path d="M526 478C526 458.118 542.118 442 562 442H859C878.882 442 895 458.118 895 478V478C895 497.882 878.882 514 859 514H562C542.118 514 526 497.882 526 478V478Z" fill="#FFDE59"/>
<path d="M629.68 468.15V483.18C629.68 485.04 629.11 486.51 627.97 487.59C626.85 488.67 625.37 489.21 623.53 489.21C621.69 489.21 620.2 488.67 619.06 487.59C617.94 486.51 617.38 485.04 617.38 483.18H620.83C620.85 484.1 621.08 484.83 621.52 485.37C621.98 485.91 622.65 486.18 623.53 486.18C624.41 486.18 625.08 485.91 625.54 485.37C626 484.81 626.23 484.08 626.23 483.18V468.15H629.68ZM650.393 480.33C650.393 480.95 650.353 481.51 650.273 482.01H637.643C637.743 483.33 638.233 484.39 639.113 485.19C639.993 485.99 641.073 486.39 642.353 486.39C644.193 486.39 645.493 485.62 646.253 484.08H649.943C649.443 485.6 648.533 486.85 647.213 487.83C645.913 488.79 644.293 489.27 642.353 489.27C640.773 489.27 639.353 488.92 638.093 488.22C636.853 487.5 635.873 486.5 635.153 485.22C634.453 483.92 634.103 482.42 634.103 480.72C634.103 479.02 634.443 477.53 635.123 476.25C635.823 474.95 636.793 473.95 638.033 473.25C639.293 472.55 640.733 472.2 642.353 472.2C643.913 472.2 645.303 472.54 646.523 473.22C647.743 473.9 648.693 474.86 649.373 476.1C650.053 477.32 650.393 478.73 650.393 480.33ZM646.823 479.25C646.803 477.99 646.353 476.98 645.473 476.22C644.593 475.46 643.503 475.08 642.203 475.08C641.023 475.08 640.013 475.46 639.173 476.22C638.333 476.96 637.833 477.97 637.673 479.25H646.823ZM657.749 475.26V484.41C657.749 485.03 657.889 485.48 658.169 485.76C658.469 486.02 658.969 486.15 659.669 486.15H661.769V489H659.069C657.529 489 656.349 488.64 655.529 487.92C654.709 487.2 654.299 486.03 654.299 484.41V475.26H652.349V472.47H654.299V468.36H657.749V472.47H661.769V475.26H657.749ZM667.951 486.21H675.451V489H663.991V486.21L671.521 475.26H663.991V472.47H675.451V475.26L667.951 486.21ZM683.032 475.26V484.41C683.032 485.03 683.172 485.48 683.452 485.76C683.752 486.02 684.252 486.15 684.952 486.15H687.052V489H684.352C682.812 489 681.632 488.64 680.812 487.92C679.992 487.2 679.582 486.03 679.582 484.41V475.26H677.632V472.47H679.582V468.36H683.032V472.47H687.052V475.26H683.032ZM703.997 489.27C702.697 489.27 701.527 489.04 700.487 488.58C699.467 488.1 698.657 487.46 698.057 486.66C697.457 485.84 697.137 484.93 697.097 483.93H700.637C700.697 484.63 701.027 485.22 701.627 485.7C702.247 486.16 703.017 486.39 703.937 486.39C704.897 486.39 705.637 486.21 706.157 485.85C706.697 485.47 706.967 484.99 706.967 484.41C706.967 483.79 706.667 483.33 706.067 483.03C705.487 482.73 704.557 482.4 703.277 482.04C702.037 481.7 701.027 481.37 700.247 481.05C699.467 480.73 698.787 480.24 698.207 479.58C697.647 478.92 697.367 478.05 697.367 476.97C697.367 476.09 697.627 475.29 698.147 474.57C698.667 473.83 699.407 473.25 700.367 472.83C701.347 472.41 702.467 472.2 703.727 472.2C705.607 472.2 707.117 472.68 708.257 473.64C709.417 474.58 710.037 475.87 710.117 477.51H706.697C706.637 476.77 706.337 476.18 705.797 475.74C705.257 475.3 704.527 475.08 703.607 475.08C702.707 475.08 702.017 475.25 701.537 475.59C701.057 475.93 700.817 476.38 700.817 476.94C700.817 477.38 700.977 477.75 701.297 478.05C701.617 478.35 702.007 478.59 702.467 478.77C702.927 478.93 703.607 479.14 704.507 479.4C705.707 479.72 706.687 480.05 707.447 480.39C708.227 480.71 708.897 481.19 709.457 481.83C710.017 482.47 710.307 483.32 710.327 484.38C710.327 485.32 710.067 486.16 709.547 486.9C709.027 487.64 708.287 488.22 707.327 488.64C706.387 489.06 705.277 489.27 703.997 489.27ZM718.012 475.26V484.41C718.012 485.03 718.152 485.48 718.432 485.76C718.732 486.02 719.232 486.15 719.932 486.15H722.032V489H719.332C717.792 489 716.612 488.64 715.792 487.92C714.972 487.2 714.562 486.03 714.562 484.41V475.26H712.612V472.47H714.562V468.36H718.012V472.47H722.032V475.26H718.012ZM724.045 480.66C724.045 479 724.385 477.53 725.065 476.25C725.765 474.97 726.705 473.98 727.885 473.28C729.085 472.56 730.405 472.2 731.845 472.2C733.145 472.2 734.275 472.46 735.235 472.98C736.215 473.48 736.995 474.11 737.575 474.87V472.47H741.025V489H737.575V486.54C736.995 487.32 736.205 487.97 735.205 488.49C734.205 489.01 733.065 489.27 731.785 489.27C730.365 489.27 729.065 488.91 727.885 488.19C726.705 487.45 725.765 486.43 725.065 485.13C724.385 483.81 724.045 482.32 724.045 480.66ZM737.575 480.72C737.575 479.58 737.335 478.59 736.855 477.75C736.395 476.91 735.785 476.27 735.025 475.83C734.265 475.39 733.445 475.17 732.565 475.17C731.685 475.17 730.865 475.39 730.105 475.83C729.345 476.25 728.725 476.88 728.245 477.72C727.785 478.54 727.555 479.52 727.555 480.66C727.555 481.8 727.785 482.8 728.245 483.66C728.725 484.52 729.345 485.18 730.105 485.64C730.885 486.08 731.705 486.3 732.565 486.3C733.445 486.3 734.265 486.08 735.025 485.64C735.785 485.2 736.395 484.56 736.855 483.72C737.335 482.86 737.575 481.86 737.575 480.72ZM748.937 474.87C749.437 474.03 750.097 473.38 750.917 472.92C751.757 472.44 752.747 472.2 753.887 472.2V475.74H753.017C751.677 475.74 750.657 476.08 749.957 476.76C749.277 477.44 748.937 478.62 748.937 480.3V489H745.517V472.47H748.937V474.87ZM761.02 475.26V484.41C761.02 485.03 761.16 485.48 761.44 485.76C761.74 486.02 762.24 486.15 762.94 486.15H765.04V489H762.34C760.8 489 759.62 488.64 758.8 487.92C757.98 487.2 757.57 486.03 757.57 484.41V475.26H755.62V472.47H757.57V468.36H761.02V472.47H765.04V475.26H761.02ZM783.342 480.33C783.342 480.95 783.302 481.51 783.222 482.01H770.592C770.692 483.33 771.182 484.39 772.062 485.19C772.942 485.99 774.022 486.39 775.302 486.39C777.142 486.39 778.442 485.62 779.202 484.08H782.892C782.392 485.6 781.482 486.85 780.162 487.83C778.862 488.79 777.242 489.27 775.302 489.27C773.722 489.27 772.302 488.92 771.042 488.22C769.802 487.5 768.822 486.5 768.102 485.22C767.402 483.92 767.052 482.42 767.052 480.72C767.052 479.02 767.392 477.53 768.072 476.25C768.772 474.95 769.742 473.95 770.982 473.25C772.242 472.55 773.682 472.2 775.302 472.2C776.862 472.2 778.252 472.54 779.472 473.22C780.692 473.9 781.642 474.86 782.322 476.1C783.002 477.32 783.342 478.73 783.342 480.33ZM779.772 479.25C779.752 477.99 779.302 476.98 778.422 476.22C777.542 475.46 776.452 475.08 775.152 475.08C773.972 475.08 772.962 475.46 772.122 476.22C771.282 476.96 770.782 477.97 770.622 479.25H779.772ZM795.048 472.2C796.348 472.2 797.508 472.47 798.528 473.01C799.568 473.55 800.378 474.35 800.958 475.41C801.538 476.47 801.828 477.75 801.828 479.25V489H798.438V479.76C798.438 478.28 798.068 477.15 797.328 476.37C796.588 475.57 795.578 475.17 794.298 475.17C793.018 475.17 791.998 475.57 791.238 476.37C790.498 477.15 790.128 478.28 790.128 479.76V489H786.708V472.47H790.128V474.36C790.688 473.68 791.398 473.15 792.258 472.77C793.138 472.39 794.068 472.2 795.048 472.2Z" fill="black"/>
<defs>
<filter id="filter0_d_54_2335" x="475" y="32" width="471" height="543" filterUnits="userSpaceOnUse" color-interpolation-filters="sRGB">
<feFlood flood-opacity="0" result="BackgroundImageFix"/>
<feColorMatrix in="SourceAlpha" type="matrix" values="0 0 0 0 0 0 0 0 0 0 0 0 0 0 0 0 0 0 127 0" result="hardAlpha"/>
<feOffset dy="4"/>
<feGaussianBlur stdDeviation="5"/>
<feComposite in2="hardAlpha" operator="out"/>
<feColorMatrix type="matrix" values="0 0 0 0 0 0 0 0 0 0 0 0 0 0 0 0 0 0 0.25 0"/>
<feBlend mode="normal" in2="BackgroundImageFix" result="effect1_dropShadow_54_2335"/>
<feBlend mode="normal" in="SourceGraphic" in2="effect1_dropShadow_54_2335" result="shape"/>
</filter>
</defs>
</svg>
