<svg width="589" height="393" viewBox="0 0 589 393" fill="none" xmlns="http://www.w3.org/2000/svg">
<path d="M204.21 304.158C207.797 294.771 208.317 286.248 205.37 285.122C202.423 283.995 197.126 290.692 193.538 300.079C189.95 309.467 189.43 317.99 192.377 319.116C195.324 320.243 200.622 313.546 204.21 304.158Z" fill="#2F2E41"/>
<path d="M150.561 363.444H139.505V383.253H150.561V363.444Z" fill="#2F2E41"/>
<path d="M172.673 363.444H161.617V383.253H172.673V363.444Z" fill="#2F2E41"/>
<path d="M148.718 386.938C153.807 386.938 157.932 385.391 157.932 383.483C157.932 381.575 153.807 380.028 148.718 380.028C143.63 380.028 139.505 381.575 139.505 383.483C139.505 385.391 143.63 386.938 148.718 386.938Z" fill="#2F2E41"/>
<path d="M170.83 386.477C175.919 386.477 180.044 384.931 180.044 383.022C180.044 381.114 175.919 379.567 170.83 379.567C165.742 379.567 161.617 381.114 161.617 383.022C161.617 384.931 165.742 386.477 170.83 386.477Z" fill="#2F2E41"/>
<path d="M120.787 301.038C117.848 287.878 127.242 274.58 141.768 271.336C156.293 268.093 170.451 276.132 173.39 289.292C176.328 302.452 166.701 307.306 152.175 310.55C137.65 313.793 123.725 314.198 120.787 301.038Z" fill="#E6E6E6"/>
<path d="M122.658 325.81C124.01 322.959 117.745 317.157 108.665 312.851C99.5851 308.544 91.1283 307.364 89.7763 310.214C88.4243 313.065 94.6892 318.867 103.769 323.173C112.849 327.48 121.306 328.66 122.658 325.81Z" fill="#2F2E41"/>
<path d="M412.036 235.984L372.506 274.998L283.171 363.151L281.363 364.934L271.29 374.872L250.173 354.008L248.314 352.174L209.704 314.038H209.696L197.325 301.811L190.016 294.586L168.248 273.089L165.307 270.182L130.611 235.908C123.718 229.017 117.875 221.15 113.271 212.56C112.848 211.791 112.451 211.013 112.062 210.236C103.834 193.831 100.314 175.467 101.892 157.182C103.47 138.897 110.084 121.407 121.001 106.654C131.918 91.9011 146.71 80.4624 163.735 73.608C180.76 66.7536 199.351 64.7517 217.445 67.8246H217.454C217.775 67.8753 218.087 67.926 218.408 67.9936C221.803 68.5926 225.163 69.374 228.473 70.3343C237.135 72.8382 245.413 76.5143 253.08 81.2604C253.882 81.759 254.677 82.266 255.463 82.7815C261.082 86.4947 266.311 90.7669 271.07 95.5328L271.366 95.2371L271.662 95.5328C274.545 92.6507 277.601 89.9472 280.813 87.4375C281.514 86.8883 282.224 86.3475 282.934 85.8235C293.802 77.8106 306.19 72.0994 319.341 69.0394C332.492 65.9795 346.129 65.6351 359.417 68.0274C362.815 68.6261 366.178 69.4104 369.49 70.3765C370.597 70.6893 371.695 71.0273 372.785 71.3906C373.664 71.6779 374.543 71.9736 375.413 72.2947C382.66 74.8852 389.577 78.3169 396.023 82.5195C397.435 83.4405 398.826 84.4039 400.198 85.4095C411.809 93.8503 421.453 104.708 428.466 117.234C435.478 129.76 439.692 143.657 440.817 157.968C441.942 172.28 439.952 186.665 434.983 200.133C430.015 213.601 422.186 225.832 412.036 235.984V235.984Z" fill="#FFDE59"/>
<path opacity="0.15" d="M372.506 274.999L283.17 363.151L281.362 364.934L271.29 374.872L250.173 354.008L248.313 352.174L209.704 314.039C215.907 312.594 225.439 314.579 228.929 316.303C237.201 320.385 244.004 327.086 252.404 330.905C259.904 334.291 268.284 335.217 276.343 333.55C291.401 330.39 303.054 318.745 313.33 307.287C323.605 295.82 334.109 283.516 348.55 278.201C356.164 275.396 364.343 274.762 372.506 274.999Z" fill="black"/>
<path d="M437.454 97.1637C425.162 84.8359 409.859 75.9364 393.065 71.3483C391.95 71.0357 390.843 70.7568 389.719 70.4948C384.887 69.3404 379.975 68.5523 375.024 68.1373C374.162 68.0528 373.3 67.9936 372.43 67.9513C368.088 67.6767 363.732 67.6936 359.391 68.002C335.618 69.5928 313.192 79.616 296.15 96.268L295.846 95.9638L295.541 96.268C284.407 85.4033 270.896 77.2796 256.079 72.5398C255.242 72.2694 254.397 72.0074 253.552 71.7624C242.141 68.4526 230.236 67.1797 218.382 68.002C218.053 68.0189 217.724 68.0443 217.403 68.0781C195.669 69.7445 175.075 78.4686 158.758 92.9217C157.22 94.2738 155.707 95.6934 154.237 97.1637C140.424 111.003 130.939 128.565 126.941 147.705C122.944 166.845 124.606 186.735 131.726 204.946C132.021 205.741 132.343 206.526 132.68 207.312C137.709 219.304 145.032 230.197 154.237 239.381L187.125 271.847L189.711 274.407L260.879 344.654L262.712 346.47L281.404 364.926L295.845 379.181L437.454 239.372C456.285 220.5 466.861 194.928 466.861 168.268C466.861 141.608 456.285 116.036 437.454 97.1637ZM435.671 237.572L295.845 375.615L283.213 363.143L264.918 345.085L263.084 343.276L193.302 274.382L190.759 271.872L156.028 237.581C147.113 228.689 140.007 218.151 135.106 206.552C134.768 205.766 134.446 204.98 134.151 204.194C127.165 186.426 125.514 167.006 129.4 148.313C133.286 129.62 142.54 112.467 156.028 98.9552C157.6 97.3834 159.209 95.8793 160.853 94.4428H160.862C176.56 80.7055 196.25 72.3651 217.039 70.647C219.802 70.4104 222.568 70.292 225.337 70.292C226.376 70.292 227.407 70.3089 228.447 70.3427C236.939 70.6042 245.361 71.9677 253.502 74.3989C254.338 74.6439 255.175 74.9059 256.003 75.1847C264.809 78.0551 273.157 82.1789 280.787 87.4291C285.755 90.8354 290.397 94.6939 294.654 98.9552L295.55 99.8509L295.846 99.5551L296.141 99.8509L297.037 98.9552C306.504 89.4775 317.819 82.047 330.278 77.1249C342.737 72.2029 356.075 69.8944 369.464 70.3427C370.537 70.3765 371.61 70.4273 372.683 70.5033C373.545 70.554 374.407 70.6132 375.261 70.6977C380.708 71.1862 386.104 72.1331 391.392 73.5285C392.525 73.8158 393.648 74.1285 394.764 74.4749C410.976 79.3778 425.641 88.3994 437.328 100.66C449.014 112.92 457.323 128 461.444 144.429C465.565 160.858 465.356 178.075 460.839 194.399C456.322 210.724 447.651 225.598 435.671 237.572V237.572Z" fill="#3F3D56"/>
<path opacity="0.15" d="M239.331 74.1704C233.906 78.4547 228.084 82.4094 224.56 88.2654C221.966 92.5919 220.842 97.6198 220.005 102.589C218.383 112.256 217.69 122.159 214.512 131.429C211.344 140.699 205.158 149.555 195.99 153.011C190.303 155.149 184.033 155.03 177.974 154.616C163.026 153.602 147.976 150.924 134.523 144.341C127.002 140.657 119.71 135.688 111.353 135.139C109.652 135.029 107.944 135.123 106.266 135.418C113.558 112.655 128.816 93.2873 149.24 80.8705C169.663 68.4537 193.881 63.8214 217.445 67.8243H217.454C217.775 67.875 218.087 67.9257 218.408 67.9933C221.803 68.5923 225.162 69.3737 228.473 70.3341C232.163 71.4017 235.789 72.6826 239.331 74.1704Z" fill="black"/>
<path d="M175.674 92.8262H164.618V112.635H175.674V92.8262Z" fill="#2F2E41"/>
<path d="M197.786 92.8262H186.73V112.635H197.786V92.8262Z" fill="#2F2E41"/>
<path d="M173.832 116.32C178.92 116.32 183.045 114.773 183.045 112.865C183.045 110.957 178.92 109.41 173.832 109.41C168.743 109.41 164.618 110.957 164.618 112.865C164.618 114.773 168.743 116.32 173.832 116.32Z" fill="#2F2E41"/>
<path d="M195.944 115.86C201.032 115.86 205.157 114.313 205.157 112.405C205.157 110.497 201.032 108.95 195.944 108.95C190.855 108.95 186.73 110.497 186.73 112.405C186.73 114.313 190.855 115.86 195.944 115.86Z" fill="#2F2E41"/>
<path d="M145.9 30.4203C142.962 17.2601 152.355 3.96231 166.881 0.7188C181.407 -2.52471 195.565 5.51439 198.503 18.6746C201.442 31.8348 191.815 36.6885 177.289 39.9319C162.763 43.1754 148.839 43.5805 145.9 30.4203Z" fill="#E6E6E6"/>
<path d="M462.194 299.583C464.628 297.576 461.418 289.663 455.024 281.91C448.63 274.157 441.473 269.499 439.039 271.506C436.605 273.513 439.816 281.426 446.21 289.179C452.604 296.932 459.76 301.59 462.194 299.583Z" fill="#2F2E41"/>
<path d="M510.538 363.073H499.482V382.881H510.538V363.073Z" fill="#2F2E41"/>
<path d="M488.426 363.073H477.37V382.881H488.426V363.073Z" fill="#2F2E41"/>
<path d="M501.324 386.567C506.413 386.567 510.538 385.02 510.538 383.112C510.538 381.204 506.413 379.657 501.324 379.657C496.236 379.657 492.111 381.204 492.111 383.112C492.111 385.02 496.236 386.567 501.324 386.567Z" fill="#2F2E41"/>
<path d="M479.212 386.106C484.301 386.106 488.426 384.559 488.426 382.651C488.426 380.743 484.301 379.196 479.212 379.196C474.124 379.196 469.999 380.743 469.999 382.651C469.999 384.559 474.124 386.106 479.212 386.106Z" fill="#2F2E41"/>
<path d="M540.844 383.338C543.791 382.211 543.271 373.688 539.683 364.301C536.095 354.914 530.797 348.217 527.85 349.343C524.903 350.47 525.423 358.993 529.011 368.38C532.599 377.767 537.897 384.464 540.844 383.338Z" fill="#2F2E41"/>
<path d="M588.048 387H61.1908C61.0393 387 60.8939 387.316 60.7868 387.879C60.6796 388.441 60.6194 389.204 60.6194 390C60.6194 390.796 60.6796 391.559 60.7868 392.121C60.8939 392.684 61.0393 393 61.1908 393H588.048C449.452 387 588.345 392.684 588.452 392.121C588.559 391.559 588.619 390.796 588.619 390C588.619 389.204 588.559 388.441 588.452 387.879C588.345 387.316 588.199 387 588.048 387Z" fill="#CCCCCC"/>
<path d="M526.779 347.445C526.779 352.484 522.704 356.56 517.665 356.56H473.279C468.244 356.56 464.164 352.484 464.164 347.445V303.139C464.164 298.104 468.244 294.024 473.279 294.024H517.665C522.704 294.024 526.779 298.104 526.779 303.139V347.445ZM517.585 287.308H473.279C464.565 287.308 457.448 294.424 457.448 303.139V347.529C457.448 356.243 464.565 363.36 473.279 363.36H517.665C526.383 363.36 533.5 356.243 533.5 347.529V303.139C533.416 294.424 526.3 287.308 517.585 287.308Z" fill="#FF5757"/>
<path d="M483.199 303.059C486.777 303.059 489.673 305.964 489.673 309.542C489.673 313.12 486.777 316.016 483.199 316.016C479.621 316.016 476.725 313.12 476.725 309.542C476.725 305.964 479.621 303.059 483.199 303.059Z" fill="#FF5757"/>
<path d="M507.665 303.059C511.243 303.059 514.139 305.964 514.139 309.542C514.139 313.12 511.243 316.016 507.665 316.016C504.087 316.016 501.191 313.12 501.191 309.542C501.191 305.964 504.087 303.059 507.665 303.059Z" fill="#FF5757"/>
<path d="M514.707 324.255H476.161C474.718 324.255 473.521 325.457 473.521 326.892C473.521 332.732 475.757 338.251 479.916 342.327C484.075 346.486 489.519 348.721 495.35 348.721C501.191 348.721 506.705 346.486 510.785 342.327C514.944 338.167 517.185 332.732 517.185 326.892C517.259 325.373 516.146 324.255 514.707 324.255Z" fill="#FF5757"/>
<path d="M214.121 77.0377C214.121 82.0771 210.046 86.1525 205.007 86.1525H160.621C155.586 86.1525 151.506 82.0771 151.506 77.0377V32.7313C151.506 27.6964 155.586 23.6165 160.621 23.6165H205.007C210.046 23.6165 214.121 27.6964 214.121 32.7313V77.0377ZM204.927 16.9004H160.621C151.907 16.9004 144.79 24.0171 144.79 32.7313V77.1214C144.79 85.8356 151.907 92.9523 160.621 92.9523H205.007C213.725 92.9523 220.842 85.8356 220.842 77.1214V32.7313C220.758 24.0171 213.642 16.9004 204.927 16.9004Z" fill="#FF5757"/>
<path d="M170.541 32.6523C174.119 32.6523 177.015 35.5571 177.015 39.1352C177.015 42.7134 174.119 45.6093 170.541 45.6093C166.963 45.6093 164.067 42.7134 164.067 39.1352C164.067 35.5571 166.963 32.6523 170.541 32.6523Z" fill="#FF5757"/>
<path d="M195.007 32.6523C198.585 32.6523 201.481 35.5571 201.481 39.1352C201.481 42.7134 198.585 45.6093 195.007 45.6093C191.429 45.6093 188.533 42.7134 188.533 39.1352C188.533 35.5571 191.429 32.6523 195.007 32.6523Z" fill="#FF5757"/>
<path d="M202.049 53.8481H163.504C162.06 53.8481 160.863 55.0497 160.863 56.4844C160.863 62.3248 163.099 67.8438 167.258 71.9193C171.417 76.0784 176.861 78.3142 182.693 78.3142C188.533 78.3142 194.048 76.0784 198.128 71.9193C202.287 67.7602 204.527 62.3248 204.527 56.4844C204.602 54.966 203.488 53.8481 202.049 53.8481Z" fill="#FF5757"/>
<path d="M187.926 350.824C187.926 355.864 183.85 359.939 178.811 359.939H134.425C129.391 359.939 125.311 355.864 125.311 350.824V306.518C125.311 301.483 129.391 297.403 134.425 297.403H178.811C183.85 297.403 187.926 301.483 187.926 306.518V350.824ZM178.732 290.687H134.425C125.711 290.687 118.594 297.804 118.594 306.518V350.908C118.594 359.622 125.711 366.739 134.425 366.739H178.811C187.53 366.739 194.646 359.622 194.646 350.908V306.518C194.563 297.804 187.446 290.687 178.732 290.687Z" fill="#FF5757"/>
<path d="M144.345 306.439C147.924 306.439 150.82 309.344 150.82 312.922C150.82 316.5 147.924 319.396 144.345 319.396C140.767 319.396 137.871 316.5 137.871 312.922C137.871 309.344 140.767 306.439 144.345 306.439Z" fill="#FF5757"/>
<path d="M168.811 306.439C172.39 306.439 175.286 309.344 175.286 312.922C175.286 316.5 172.39 319.396 168.811 319.396C165.233 319.396 162.337 316.5 162.337 312.922C162.337 309.344 165.233 306.439 168.811 306.439Z" fill="#FF5757"/>
<path d="M175.853 327.635H137.308C135.864 327.635 134.667 328.836 134.667 330.271C134.667 336.111 136.903 341.63 141.062 345.706C145.221 349.865 150.665 352.101 156.497 352.101C162.337 352.101 167.852 349.865 171.932 345.706C176.091 341.547 178.331 336.111 178.331 330.271C178.406 328.753 177.292 327.635 175.853 327.635Z" fill="#FF5757"/>
<path d="M514.622 301.368C503.148 291.887 496.771 283.194 505.361 272.8C513.95 262.405 530.214 261.664 541.687 271.145C553.161 280.625 555.499 296.737 546.909 307.132C538.32 317.527 526.095 310.848 514.622 301.368Z" fill="#FFDE59"/>
</svg>
