<svg width="280" height="90" viewBox="0 0 280 90" fill="none" xmlns="http://www.w3.org/2000/svg">
<path d="M82.0469 71.1667C82.0469 77.1302 77.224 81.9531 71.2604 81.9531H18.7344C12.776 81.9531 7.94792 77.1302 7.94792 71.1667V18.7344C7.94792 12.776 12.776 7.94792 18.7344 7.94792H71.2604C77.224 7.94792 82.0469 12.776 82.0469 18.7344V71.1667ZM71.1667 0H18.7344C8.42188 0 0 8.42188 0 18.7344V71.2656C0 81.5781 8.42188 90 18.7344 90H71.2604C81.5781 90 90 81.5781 90 71.2656V18.7344C89.901 8.42188 81.4792 0 71.1667 0Z" fill="#FF5757"/>
<path d="M30.474 18.6406C34.7083 18.6406 38.1354 22.0781 38.1354 26.3125C38.1354 30.5469 34.7083 33.974 30.474 33.974C26.2396 33.974 22.8125 30.5469 22.8125 26.3125C22.8125 22.0781 26.2396 18.6406 30.474 18.6406Z" fill="#FF5757"/>
<path d="M59.4271 18.6406C63.6615 18.6406 67.0885 22.0781 67.0885 26.3125C67.0885 30.5469 63.6615 33.974 59.4271 33.974C55.1927 33.974 51.7656 30.5469 51.7656 26.3125C51.7656 22.0781 55.1927 18.6406 59.4271 18.6406Z" fill="#FF5757"/>
<path d="M67.7601 43.724H22.1455C20.4372 43.724 19.0205 45.1459 19.0205 46.8438C19.0205 53.7552 21.6663 60.2865 26.5882 65.1094C31.5101 70.0313 37.9528 72.6771 44.8538 72.6771C51.7653 72.6771 58.2913 70.0313 63.1195 65.1094C68.0413 60.1875 70.6924 53.7552 70.6924 46.8438C70.7809 45.0469 69.4632 43.724 67.7601 43.724Z" fill="#FF5757"/>
<path d="M114.501 18.5521C114.501 16.8594 113.699 16.0104 112.105 16.0104C111.855 16.0104 111.616 16.026 111.397 16.0521C111.173 16.0833 110.991 16.1146 110.855 16.1562V13.3229C111.074 13.2969 111.319 13.25 111.585 13.1771C111.803 13.1094 112.053 13.0625 112.335 13.0312C112.626 13.0052 112.949 12.9896 113.314 12.9896C114.105 12.9896 114.777 13.1458 115.335 13.4479C115.902 13.7396 116.361 14.1146 116.71 14.5729C117.069 15.0208 117.319 15.5052 117.46 16.0312C117.595 16.5625 117.668 17.0312 117.668 17.4479H117.918C118.335 16.5885 118.897 15.8021 119.605 15.0937C120.199 14.526 120.991 13.9896 121.98 13.4896C122.98 12.9896 124.236 12.7396 125.751 12.7396H127.897V16.0521H125.355C124.324 16.0521 123.355 16.2708 122.439 16.6979C121.533 17.1302 120.741 17.7396 120.064 18.5312C119.397 19.3125 118.861 20.2708 118.46 21.4062C118.069 22.5469 117.876 23.8177 117.876 25.2187V38.1354H114.501V18.5521Z" fill="#FF5757"/>
<path d="M140.823 38.8645C139.182 38.8645 137.677 38.5781 136.302 38.0104C134.927 37.427 133.745 36.5885 132.76 35.4895C131.786 34.3802 131.021 33.0208 130.469 31.4062C129.911 29.7812 129.635 27.9166 129.635 25.802C129.635 23.6927 129.911 21.8333 130.469 20.2187C131.021 18.5937 131.792 17.2291 132.781 16.1145C133.781 14.9895 134.974 14.1458 136.364 13.5729C137.765 12.9895 139.292 12.6979 140.948 12.6979C142.417 12.6979 143.765 12.9218 144.989 13.3645C146.208 13.8125 147.229 14.427 148.052 15.2187C148.885 16 149.531 16.9166 149.989 17.9687C150.458 19.026 150.698 20.1666 150.698 21.3854C150.698 22.2187 150.64 22.9635 150.531 23.6145C150.417 24.2708 150.302 24.8229 150.177 25.2812C150.01 25.8229 149.828 26.302 149.635 26.7187H133.177C133.344 29.7604 134.125 32.026 135.531 33.5104C136.932 35 138.807 35.7395 141.156 35.7395C142.406 35.7395 143.474 35.5208 144.364 35.0729C145.265 34.6145 146.015 34.1145 146.614 33.5729C147.323 32.9635 147.917 32.2395 148.406 31.4062L150.323 33.7604C149.739 34.7187 149.015 35.5677 148.156 36.302C147.417 36.9583 146.437 37.5468 145.219 38.0729C144.01 38.5989 142.542 38.8645 140.823 38.8645ZM146.948 23.677C147.015 23.4583 147.083 23.2187 147.156 22.9687C147.208 22.75 147.25 22.4843 147.281 22.177C147.323 21.875 147.344 21.5468 147.344 21.1979C147.344 19.6875 146.781 18.4166 145.656 17.3854C144.542 16.3437 142.974 15.8229 140.948 15.8229C138.781 15.8229 137.021 16.5104 135.677 17.8854C134.328 19.2604 133.495 21.1927 133.177 23.677H146.948Z" fill="#FF5757"/>
<path d="M153.1 13.4062H156.558L161.933 31.9896H162.12L167.495 13.4062H170.995L176.391 31.9896H176.579L181.954 13.4062H185.412L178.204 38.1354H175.079L169.37 18.5938H169.141L163.412 38.1354H160.308L153.1 13.4062Z" fill="#FF5757"/>
<path d="M195.103 38.8645C193.947 38.8645 192.9 38.6666 191.957 38.2812C191.009 37.8958 190.192 37.375 189.499 36.7187C188.817 36.0677 188.28 35.2968 187.895 34.4062C187.52 33.5052 187.332 32.526 187.332 31.4687C187.332 30.4427 187.525 29.4895 187.916 28.6145C188.317 27.7291 188.9 26.9583 189.666 26.302C190.442 25.651 191.384 25.1354 192.499 24.7604C193.624 24.375 194.921 24.177 196.395 24.177H202.978V22.302C202.978 20.0937 202.483 18.4635 201.499 17.4062C200.525 16.3541 199.176 15.8229 197.457 15.8229C195.718 15.8229 194.395 16.2395 193.478 17.0729C192.572 17.8958 192.124 18.901 192.124 20.0937C192.124 20.3177 192.129 20.5312 192.145 20.7395C192.155 20.9479 192.186 21.1302 192.228 21.2812C192.254 21.4791 192.301 21.6562 192.374 21.8229H188.999C188.942 21.6302 188.895 21.4218 188.853 21.1979C188.822 21.0052 188.801 20.7916 188.791 20.552C188.775 20.302 188.77 20.0416 188.77 19.7604C188.77 18.8333 188.962 17.9427 189.353 17.0937C189.754 16.25 190.332 15.5 191.082 14.8437C191.843 14.177 192.759 13.6562 193.832 13.2812C194.9 12.8958 196.108 12.6979 197.457 12.6979C200.176 12.6979 202.337 13.5416 203.936 15.2187C205.53 16.901 206.332 19.2604 206.332 22.302V33.052C206.332 34.75 207.129 35.5937 208.728 35.5937C208.853 35.5937 208.983 35.5937 209.124 35.5937C209.275 35.5937 209.416 35.5833 209.541 35.552C209.676 35.5104 209.822 35.4791 209.978 35.4479V38.2812C209.754 38.3489 209.52 38.4114 209.27 38.4687C208.811 38.5625 208.233 38.6145 207.541 38.6145C206.707 38.6145 206.009 38.4583 205.457 38.1562C204.916 37.8541 204.468 37.4791 204.124 37.0312C203.775 36.5885 203.525 36.1093 203.374 35.5937C203.233 35.0833 203.166 34.6041 203.166 34.1562H202.916C202.468 35.0468 201.879 35.8333 201.145 36.5104C200.504 37.1093 199.697 37.651 198.728 38.1354C197.754 38.6198 196.546 38.8645 195.103 38.8645ZM195.624 35.7395C196.582 35.7395 197.489 35.5416 198.353 35.1354C199.228 34.7343 199.999 34.1562 200.666 33.4062C201.343 32.6562 201.879 31.7604 202.27 30.7187C202.671 29.677 202.905 28.5052 202.978 27.1979H196.395C194.478 27.1979 193.046 27.6093 192.103 28.427C191.155 29.2343 190.686 30.25 190.686 31.4687C190.686 32.677 191.124 33.6927 191.999 34.5104C192.884 35.3333 194.093 35.7395 195.624 35.7395Z" fill="#FF5757"/>
<path d="M214.773 18.5521C214.773 16.8594 213.971 16.0104 212.377 16.0104C212.127 16.0104 211.888 16.026 211.669 16.0521C211.445 16.0833 211.263 16.1146 211.127 16.1562V13.3229C211.346 13.2969 211.591 13.25 211.857 13.1771C212.075 13.1094 212.325 13.0625 212.607 13.0312C212.898 13.0052 213.221 12.9896 213.586 12.9896C214.377 12.9896 215.049 13.1458 215.607 13.4479C216.174 13.7396 216.633 14.1146 216.982 14.5729C217.341 15.0208 217.591 15.5052 217.732 16.0312C217.867 16.5625 217.94 17.0312 217.94 17.4479H218.19C218.607 16.5885 219.169 15.8021 219.877 15.0937C220.471 14.526 221.263 13.9896 222.252 13.4896C223.252 12.9896 224.508 12.7396 226.023 12.7396H228.169V16.0521H225.627C224.596 16.0521 223.627 16.2708 222.711 16.6979C221.805 17.1302 221.013 17.7396 220.336 18.5312C219.669 19.3125 219.133 20.2708 218.732 21.4062C218.341 22.5469 218.148 23.8177 218.148 25.2187V38.1354H214.773V18.5521Z" fill="#FF5757"/>
<path d="M239.449 38.8646C238.199 38.8646 236.996 38.5833 235.845 38.0312C234.689 37.4635 233.678 36.6302 232.803 35.5312C231.928 34.4219 231.225 33.0625 230.699 31.4479C230.168 29.8229 229.907 27.9427 229.907 25.8021C229.907 23.75 230.184 21.9062 230.741 20.2812C231.293 18.6458 232.064 17.2708 233.053 16.1562C234.053 15.0312 235.23 14.1771 236.595 13.5937C237.954 13 239.418 12.6979 240.991 12.6979C241.918 12.6979 242.762 12.7812 243.512 12.9479C244.262 13.1041 244.928 13.276 245.512 13.4687C246.147 13.6927 246.751 13.9479 247.324 14.2396V2.42706H250.678V33.0521C250.678 34.75 251.48 35.5937 253.095 35.5937C253.345 35.5937 253.595 35.5729 253.845 35.5312C254.105 35.4791 254.267 35.4479 254.324 35.4479V38.2812C254.1 38.3489 253.866 38.4114 253.616 38.4687C253.168 38.5625 252.595 38.6146 251.887 38.6146C251.022 38.6146 250.303 38.4583 249.72 38.1562C249.147 37.8541 248.704 37.4791 248.387 37.0312C248.064 36.5885 247.835 36.1094 247.699 35.5937C247.574 35.0833 247.512 34.6041 247.512 34.1562H247.282C246.835 35.0469 246.246 35.8333 245.512 36.5104C244.855 37.1094 244.043 37.651 243.074 38.1354C242.1 38.6198 240.892 38.8646 239.449 38.8646ZM239.991 35.7396C240.949 35.7396 241.871 35.5312 242.762 35.1146C243.663 34.6979 244.449 34.0937 245.116 33.3021C245.782 32.5 246.314 31.5312 246.72 30.4062C247.121 29.2812 247.324 28.0052 247.324 26.5729V17.5937C246.782 17.276 246.189 16.9844 245.553 16.7187C245.012 16.5 244.355 16.2969 243.595 16.1146C242.845 15.9219 242.038 15.8229 241.178 15.8229C240.095 15.8229 239.074 16.0416 238.116 16.4687C237.157 16.901 236.324 17.5416 235.616 18.3854C234.907 19.2344 234.35 20.276 233.949 21.5104C233.559 22.7344 233.366 24.1666 233.366 25.8021C233.366 27.5 233.543 28.9687 233.907 30.2187C234.282 31.4687 234.767 32.5052 235.366 33.3229C235.975 34.1302 236.678 34.7344 237.47 35.1354C238.272 35.5416 239.116 35.7396 239.991 35.7396Z" fill="#FF5757"/>
<path d="M268.021 38.8645C266.381 38.8645 264.881 38.5833 263.521 38.0312C262.157 37.4635 261 36.6302 260.042 35.5312C259.084 34.4218 258.334 33.0625 257.792 31.4479C257.25 29.8229 256.979 27.9427 256.979 25.802C256.979 23.6666 257.25 21.776 257.792 20.1354C258.334 18.5 259.084 17.1302 260.042 16.0312C261 14.9375 262.157 14.1093 263.521 13.552C264.881 12.9843 266.381 12.6979 268.021 12.6979C269.646 12.6979 271.136 12.9843 272.5 13.552C273.86 14.1093 275.021 14.9375 275.979 16.0312C276.938 17.1302 277.688 18.5 278.229 20.1354C278.782 21.776 279.063 23.6666 279.063 25.802C279.063 27.9427 278.782 29.8229 278.229 31.4479C277.688 33.0625 276.938 34.4218 275.979 35.5312C275.021 36.6302 273.86 37.4635 272.5 38.0312C271.136 38.5833 269.646 38.8645 268.021 38.8645ZM268.021 35.7395C270.229 35.7395 272.042 34.9375 273.459 33.3229C274.886 31.6979 275.604 29.1927 275.604 25.802C275.604 22.4166 274.886 19.9062 273.459 18.2812C272.042 16.6458 270.229 15.8229 268.021 15.8229C265.813 15.8229 263.99 16.6458 262.563 18.2812C261.146 19.9062 260.438 22.4166 260.438 25.802C260.438 29.1927 261.146 31.6979 262.563 33.3229C263.99 34.9375 265.813 35.7395 268.021 35.7395Z" fill="#FF5757"/>
<path d="M114.605 66.9271H110.668V61.1771H114.605V59.0104C114.605 57.4427 114.819 56.0521 115.251 54.8437C115.678 53.625 116.277 52.5937 117.043 51.7604C117.819 50.9271 118.736 50.2916 119.793 49.8437C120.845 49.401 122.001 49.1771 123.251 49.1771C124.111 49.1771 124.908 49.2396 125.647 49.3646C126.382 49.4896 127.022 49.6354 127.564 49.8021C128.173 49.9583 128.736 50.151 129.251 50.3854L128.522 55.8021C128.173 55.6771 127.793 55.5469 127.376 55.4062C127.027 55.3229 126.616 55.2344 126.147 55.1354C125.689 55.0416 125.199 54.9896 124.689 54.9896C123.564 54.9896 122.678 55.3229 122.043 55.9896C121.402 56.6562 121.085 57.7291 121.085 59.1979V61.1771H127.46V66.9271H121.085V86.1354H114.605V66.9271Z" fill="#FF5757"/>
<path d="M142.212 86.8646C140.321 86.8646 138.607 86.5625 137.066 85.9688C135.535 85.375 134.222 84.5104 133.128 83.3854C132.045 82.25 131.201 80.8542 130.607 79.1979C130.024 77.5469 129.732 75.6667 129.732 73.5521C129.732 71.4427 130.024 69.5677 130.607 67.9271C131.201 66.276 132.045 64.8802 133.128 63.7396C134.222 62.6042 135.535 61.7344 137.066 61.1354C138.607 60.526 140.321 60.2188 142.212 60.2188C144.097 60.2188 145.805 60.526 147.337 61.1354C148.878 61.7344 150.191 62.6042 151.274 63.7396C152.368 64.8802 153.212 66.276 153.795 67.9271C154.389 69.5677 154.691 71.4427 154.691 73.5521C154.691 75.6667 154.389 77.5469 153.795 79.1979C153.212 80.8542 152.368 82.25 151.274 83.3854C150.191 84.5104 148.878 85.375 147.337 85.9688C145.805 86.5625 144.097 86.8646 142.212 86.8646ZM142.212 81.0938C143.837 81.0938 145.175 80.4844 146.232 79.2604C147.285 78.026 147.816 76.125 147.816 73.5521C147.816 71 147.285 69.1094 146.232 67.8854C145.175 66.651 143.837 66.0312 142.212 66.0312C140.571 66.0312 139.217 66.651 138.149 67.8854C137.076 69.1094 136.545 71 136.545 73.5521C136.545 76.125 137.076 78.026 138.149 79.2604C139.217 80.4844 140.571 81.0938 142.212 81.0938Z" fill="#FF5757"/>
<path d="M170.291 86.8646C168.401 86.8646 166.687 86.5625 165.145 85.9688C163.614 85.375 162.302 84.5104 161.208 83.3854C160.125 82.25 159.281 80.8542 158.687 79.1979C158.104 77.5469 157.812 75.6667 157.812 73.5521C157.812 71.4427 158.104 69.5677 158.687 67.9271C159.281 66.276 160.125 64.8802 161.208 63.7396C162.302 62.6042 163.614 61.7344 165.145 61.1354C166.687 60.526 168.401 60.2188 170.291 60.2188C172.177 60.2188 173.885 60.526 175.416 61.1354C176.958 61.7344 178.27 62.6042 179.354 63.7396C180.447 64.8802 181.291 66.276 181.875 67.9271C182.468 69.5677 182.77 71.4427 182.77 73.5521C182.77 75.6667 182.468 77.5469 181.875 79.1979C181.291 80.8542 180.447 82.25 179.354 83.3854C178.27 84.5104 176.958 85.375 175.416 85.9688C173.885 86.5625 172.177 86.8646 170.291 86.8646ZM170.291 81.0938C171.916 81.0938 173.255 80.4844 174.312 79.2604C175.364 78.026 175.895 76.125 175.895 73.5521C175.895 71 175.364 69.1094 174.312 67.8854C173.255 66.651 171.916 66.0312 170.291 66.0312C168.651 66.0312 167.296 66.651 166.229 67.8854C165.156 69.1094 164.625 71 164.625 73.5521C164.625 76.125 165.156 78.026 166.229 79.2604C167.296 80.4844 168.651 81.0938 170.291 81.0938Z" fill="#FF5757"/>
<path d="M195.83 86.8645C194.481 86.8645 193.205 86.5833 191.996 86.0312C190.798 85.4635 189.746 84.625 188.83 83.5104C187.923 82.3854 187.21 81.0104 186.684 79.3854C186.153 77.75 185.892 75.8385 185.892 73.6562C185.892 71.5208 186.173 69.6093 186.746 67.927C187.33 66.25 188.132 64.8385 189.163 63.6979C190.205 62.5625 191.423 61.6979 192.83 61.1145C194.246 60.5208 195.798 60.2187 197.496 60.2187C198.272 60.2187 198.996 60.276 199.663 60.3854C200.33 60.5 200.903 60.6302 201.392 60.7812C201.96 60.9479 202.475 61.1302 202.934 61.3229V49.8854H209.413V78.7812C209.413 80.3229 210.163 81.0937 211.663 81.0937H212.517V86.1354C212.168 86.2291 211.819 86.3281 211.475 86.427C211.153 86.4791 210.788 86.5416 210.371 86.6145C209.955 86.6823 209.501 86.7187 209.017 86.7187C207.736 86.7187 206.757 86.4948 206.08 86.052C205.413 85.5937 204.903 85.0937 204.559 84.552C204.168 83.9427 203.944 83.2187 203.892 82.3854H203.496C203.048 83.25 202.475 84.0052 201.767 84.6562C201.168 85.1979 200.382 85.6979 199.413 86.1562C198.455 86.625 197.257 86.8645 195.83 86.8645ZM197.496 81.0937C199.007 81.0937 200.293 80.4895 201.35 79.2812C202.403 78.0625 202.934 76.2604 202.934 73.8854V67.2187C202.517 67 202.064 66.8125 201.58 66.6562C201.163 66.4895 200.689 66.3437 200.163 66.2187C199.632 66.0937 199.064 66.0312 198.455 66.0312C196.757 66.0312 195.376 66.651 194.309 67.8854C193.236 69.1093 192.705 71 192.705 73.552C192.705 74.8437 192.835 75.9635 193.1 76.9062C193.376 77.8385 193.736 78.6145 194.184 79.2395C194.642 79.8645 195.153 80.3333 195.725 80.6354C196.293 80.9427 196.882 81.0937 197.496 81.0937Z" fill="#FF5757"/>
</svg>
