<svg width="198" height="64" viewBox="0 0 198 64" fill="none" xmlns="http://www.w3.org/2000/svg">
<path d="M58.2137 50.494C58.2137 54.7253 54.7918 58.1472 50.5605 58.1472H13.2924C9.06483 58.1472 5.63919 54.7253 5.63919 50.494V13.2924C5.63919 9.06483 9.06483 5.63919 13.2924 5.63919H50.5605C54.7918 5.63919 58.2137 9.06483 58.2137 13.2924V50.494ZM50.494 0H13.2924C5.97547 0 0 5.97547 0 13.2924V50.5642C0 57.8811 5.97547 63.8566 13.2924 63.8566H50.5605C57.8811 63.8566 63.8566 57.8811 63.8566 50.5642V13.2924C63.7864 5.97547 57.8109 0 50.494 0Z" fill="white"/>
<path d="M21.622 13.2256C24.6263 13.2256 27.0579 15.6646 27.0579 18.6689C27.0579 21.6733 24.6263 24.1049 21.622 24.1049C18.6176 24.1049 16.186 21.6733 16.186 18.6689C16.186 15.6646 18.6176 13.2256 21.622 13.2256Z" fill="white"/>
<path d="M42.1645 13.2256C45.1688 13.2256 47.6004 15.6646 47.6004 18.6689C47.6004 21.6733 45.1688 24.1049 42.1645 24.1049C39.1601 24.1049 36.7285 21.6733 36.7285 18.6689C36.7285 15.6646 39.1601 13.2256 42.1645 13.2256Z" fill="white"/>
<path d="M48.0772 31.0225H15.7128C14.5008 31.0225 13.4956 32.0313 13.4956 33.236C13.4956 38.1398 15.3729 42.7738 18.865 46.1958C22.3572 49.6879 26.9284 51.5652 31.8248 51.5652C36.7286 51.5652 41.359 49.6879 44.7846 46.1958C48.2768 42.7036 50.1577 38.1398 50.1577 33.236C50.2205 31.9611 49.2856 31.0225 48.0772 31.0225Z" fill="white"/>
<path d="M81.2406 13.1631C81.2406 11.9621 80.6715 11.3598 79.5407 11.3598C79.3633 11.3598 79.1933 11.3709 79.0381 11.3893C78.8792 11.4115 78.7499 11.4337 78.6538 11.4632V9.45295C78.809 9.43447 78.9827 9.40121 79.1712 9.34948C79.3264 9.30144 79.5038 9.26818 79.7033 9.24601C79.9102 9.22753 80.1394 9.21644 80.398 9.21644C80.9597 9.21644 81.4364 9.3273 81.8319 9.54164C82.2347 9.74858 82.5599 10.0146 82.8074 10.3398C83.0624 10.6576 83.2398 11.0013 83.3396 11.3746C83.4357 11.7515 83.4874 12.0841 83.4874 12.3797H83.6648C83.9604 11.77 84.3595 11.212 84.8621 10.7094C85.2834 10.3066 85.8451 9.92596 86.5472 9.5712C87.2567 9.21644 88.1473 9.03906 89.2227 9.03906H90.7452V11.3893H88.9418C88.2101 11.3893 87.5228 11.5445 86.8724 11.8476C86.2294 12.1543 85.6677 12.5867 85.1873 13.1484C84.7143 13.7027 84.3336 14.3826 84.0491 15.1882C83.7719 15.9975 83.6352 16.8992 83.6352 17.8933V27.0579H81.2406V13.1631Z" fill="white"/>
<path d="M99.9162 27.5755C98.7522 27.5755 97.6842 27.3722 96.7086 26.9694C95.733 26.5555 94.8942 25.9606 94.1958 25.1809C93.5047 24.3937 92.9615 23.4292 92.5698 22.2837C92.1744 21.1307 91.9785 19.8077 91.9785 18.3074C91.9785 16.8108 92.1744 15.4915 92.5698 14.3459C92.9615 13.193 93.5084 12.2248 94.2105 11.434C94.9201 10.6357 95.7663 10.0371 96.753 9.63059C97.747 9.21671 98.8298 9.00977 100.005 9.00977C101.047 9.00977 102.004 9.16867 102.873 9.48278C103.737 9.80058 104.462 10.2366 105.045 10.7983C105.637 11.3527 106.095 12.003 106.42 12.7495C106.753 13.4997 106.923 14.309 106.923 15.1737C106.923 15.765 106.882 16.2934 106.804 16.7553C106.723 17.221 106.642 17.6127 106.553 17.9379C106.435 18.3222 106.306 18.6622 106.169 18.9578H94.4914C94.6096 21.1159 95.164 22.7234 96.1617 23.7766C97.1558 24.8335 98.4861 25.3582 100.153 25.3582C101.04 25.3582 101.797 25.203 102.429 24.8852C103.068 24.56 103.601 24.2053 104.026 23.8209C104.528 23.3886 104.949 22.8749 105.297 22.2837L106.657 23.954C106.243 24.6339 105.729 25.2363 105.119 25.7573C104.595 26.223 103.9 26.6405 103.035 27.0138C102.178 27.387 101.136 27.5755 99.9162 27.5755ZM104.262 16.7997C104.31 16.6445 104.358 16.4745 104.41 16.2971C104.447 16.1419 104.476 15.9534 104.499 15.7354C104.528 15.5211 104.543 15.2883 104.543 15.0407C104.543 13.969 104.144 13.0673 103.346 12.3356C102.555 11.5965 101.442 11.227 100.005 11.227C98.4676 11.227 97.2186 11.7148 96.2652 12.6904C95.3081 13.666 94.7168 15.037 94.4914 16.7997H104.262Z" fill="white"/>
<path d="M108.627 9.51172H111.081L114.895 22.6969H115.028L118.842 9.51172H121.325L125.153 22.6969H125.286L129.1 9.51172H131.554L126.439 27.0575H124.222L120.172 13.1923H120.009L115.944 27.0575H113.742L108.627 9.51172Z" fill="white"/>
<path d="M138.429 27.5755C137.609 27.5755 136.866 27.4351 136.197 27.1616C135.524 26.8881 134.944 26.5186 134.453 26.053C133.969 25.591 133.588 25.0441 133.315 24.4122C133.049 23.7729 132.916 23.0782 132.916 22.328C132.916 21.6 133.052 20.9238 133.329 20.3029C133.614 19.6747 134.028 19.1278 134.571 18.6622C135.122 18.2002 135.791 17.8344 136.581 17.5683C137.38 17.2949 138.3 17.1544 139.346 17.1544H144.017V15.8241C144.017 14.2572 143.665 13.1006 142.967 12.3504C142.276 11.6039 141.319 11.227 140.099 11.227C138.865 11.227 137.926 11.5226 137.276 12.1139C136.633 12.6978 136.315 13.411 136.315 14.2572C136.315 14.4161 136.319 14.5677 136.33 14.7155C136.337 14.8633 136.36 14.9926 136.389 15.0998C136.408 15.2402 136.441 15.3659 136.493 15.4841H134.098C134.057 15.3474 134.024 15.1996 133.995 15.0407C133.972 14.9039 133.958 14.7524 133.95 14.5824C133.939 14.4051 133.935 14.2203 133.935 14.0207C133.935 13.363 134.072 12.731 134.349 12.1287C134.634 11.53 135.044 10.9979 135.576 10.5323C136.116 10.0593 136.766 9.68972 137.527 9.42365C138.285 9.15019 139.142 9.00977 140.099 9.00977C142.028 9.00977 143.562 9.60842 144.696 10.7983C145.827 11.992 146.396 13.666 146.396 15.8241V23.4514C146.396 24.6561 146.962 25.2548 148.096 25.2548C148.185 25.2548 148.277 25.2548 148.377 25.2548C148.484 25.2548 148.584 25.2474 148.673 25.2252C148.769 25.1956 148.872 25.1735 148.983 25.1513V27.1616C148.824 27.2096 148.658 27.254 148.481 27.2946C148.155 27.3611 147.745 27.3981 147.254 27.3981C146.662 27.3981 146.167 27.2872 145.776 27.0729C145.391 26.8586 145.073 26.5925 144.83 26.2747C144.582 25.9606 144.405 25.6206 144.297 25.2548C144.198 24.8926 144.15 24.5526 144.15 24.2348H143.972C143.654 24.8667 143.237 25.4248 142.716 25.9052C142.261 26.3301 141.688 26.7145 141.001 27.0581C140.31 27.4018 139.453 27.5755 138.429 27.5755ZM138.799 25.3582C139.479 25.3582 140.122 25.2178 140.735 24.9296C141.356 24.645 141.903 24.2348 142.376 23.7027C142.856 23.1706 143.237 22.5349 143.514 21.7959C143.798 21.0568 143.965 20.2253 144.017 19.2978H139.346C137.986 19.2978 136.969 19.5897 136.301 20.1699C135.628 20.7427 135.295 21.4633 135.295 22.328C135.295 23.1853 135.606 23.9059 136.227 24.4861C136.855 25.07 137.712 25.3582 138.799 25.3582Z" fill="white"/>
<path d="M152.386 13.1631C152.386 11.9621 151.817 11.3598 150.686 11.3598C150.508 11.3598 150.338 11.3709 150.183 11.3893C150.024 11.4115 149.895 11.4337 149.799 11.4632V9.45295C149.954 9.43447 150.128 9.40121 150.316 9.34948C150.471 9.30144 150.649 9.26818 150.848 9.24601C151.055 9.22753 151.284 9.21644 151.543 9.21644C152.105 9.21644 152.581 9.3273 152.977 9.54164C153.38 9.74858 153.705 10.0146 153.952 10.3398C154.207 10.6576 154.385 11.0013 154.485 11.3746C154.581 11.7515 154.632 12.0841 154.632 12.3797H154.81C155.105 11.77 155.505 11.212 156.007 10.7094C156.428 10.3066 156.99 9.92596 157.692 9.5712C158.402 9.21644 159.292 9.03906 160.368 9.03906H161.89V11.3893H160.087C159.355 11.3893 158.668 11.5445 158.017 11.8476C157.374 12.1543 156.813 12.5867 156.332 13.1484C155.859 13.7027 155.479 14.3826 155.194 15.1882C154.917 15.9975 154.78 16.8992 154.78 17.8933V27.0579H152.386V13.1631Z" fill="white"/>
<path d="M169.894 27.5747C169.007 27.5747 168.153 27.3752 167.336 26.9835C166.516 26.5807 165.799 25.9894 165.178 25.2097C164.557 24.4226 164.058 23.458 163.685 22.3125C163.308 21.1595 163.124 19.8255 163.124 18.3067C163.124 16.8507 163.319 15.5425 163.715 14.3895C164.107 13.2292 164.653 12.2536 165.356 11.4628C166.065 10.6646 166.9 10.0585 167.868 9.64463C168.833 9.22335 169.871 9.00902 170.987 9.00902C171.645 9.00902 172.244 9.06814 172.776 9.1864C173.308 9.29726 173.781 9.41921 174.195 9.55594C174.646 9.71484 175.074 9.89591 175.481 10.1029V1.72168H177.861V23.4507C177.861 24.6554 178.43 25.254 179.575 25.254C179.753 25.254 179.93 25.2392 180.108 25.2097C180.292 25.1727 180.407 25.1505 180.448 25.1505V27.1608C180.289 27.2089 180.122 27.2532 179.945 27.2939C179.627 27.3604 179.221 27.3974 178.718 27.3974C178.105 27.3974 177.595 27.2865 177.181 27.0722C176.774 26.8578 176.46 26.5918 176.235 26.2739C176.006 25.9598 175.843 25.6199 175.747 25.254C175.658 24.8919 175.614 24.5519 175.614 24.2341H175.451C175.134 24.866 174.716 25.424 174.195 25.9044C173.729 26.3294 173.153 26.7137 172.466 27.0574C171.774 27.401 170.917 27.5747 169.894 27.5747ZM170.278 25.3575C170.958 25.3575 171.612 25.2097 172.244 24.914C172.883 24.6184 173.441 24.1897 173.914 23.628C174.387 23.0589 174.764 22.3716 175.052 21.5734C175.337 20.7752 175.481 19.8698 175.481 18.8536V12.4827C175.097 12.2573 174.675 12.0503 174.225 11.8619C173.84 11.7067 173.375 11.5625 172.835 11.4332C172.303 11.2965 171.73 11.2263 171.12 11.2263C170.352 11.2263 169.627 11.3815 168.947 11.6845C168.268 11.9912 167.676 12.4457 167.174 13.0444C166.671 13.6468 166.276 14.3858 165.991 15.2616C165.714 16.1301 165.577 17.1463 165.577 18.3067C165.577 19.5114 165.703 20.5535 165.962 21.4404C166.228 22.3273 166.571 23.0626 166.996 23.6428C167.429 24.2156 167.928 24.6443 168.489 24.9288C169.058 25.2171 169.657 25.3575 170.278 25.3575Z" fill="white"/>
<path d="M190.166 27.5755C189.002 27.5755 187.937 27.3759 186.973 26.9842C186.005 26.5814 185.184 25.9902 184.504 25.2104C183.824 24.4233 183.292 23.4588 182.908 22.3132C182.524 21.1603 182.332 19.8262 182.332 18.3074C182.332 16.7923 182.524 15.4509 182.908 14.2868C183.292 13.1264 183.824 12.1546 184.504 11.3748C185.184 10.5988 186.005 10.0112 186.973 9.61581C187.937 9.21301 189.002 9.00977 190.166 9.00977C191.319 9.00977 192.376 9.21301 193.344 9.61581C194.308 10.0112 195.132 10.5988 195.812 11.3748C196.492 12.1546 197.024 13.1264 197.409 14.2868C197.801 15.4509 198 16.7923 198 18.3074C198 19.8262 197.801 21.1603 197.409 22.3132C197.024 23.4588 196.492 24.4233 195.812 25.2104C195.132 25.9902 194.308 26.5814 193.344 26.9842C192.376 27.3759 191.319 27.5755 190.166 27.5755ZM190.166 25.3582C191.733 25.3582 193.019 24.7891 194.024 23.6436C195.036 22.4906 195.546 20.7131 195.546 18.3074C195.546 15.9054 195.036 14.1242 194.024 12.9712C193.019 11.8109 191.733 11.227 190.166 11.227C188.599 11.227 187.306 11.8109 186.293 12.9712C185.288 14.1242 184.785 15.9054 184.785 18.3074C184.785 20.7131 185.288 22.4906 186.293 23.6436C187.306 24.7891 188.599 25.3582 190.166 25.3582Z" fill="white"/>
<path d="M81.3147 47.4855H78.521V43.4058H81.3147V41.8685C81.3147 40.7562 81.4662 39.7695 81.773 38.9122C82.076 38.0475 82.5009 37.3158 83.0442 36.7245C83.5948 36.1333 84.2452 35.6824 84.9953 35.3646C85.7418 35.0505 86.5622 34.8916 87.4491 34.8916C88.0588 34.8916 88.6242 34.9359 89.149 35.0246C89.67 35.1133 90.1246 35.2168 90.5089 35.3351C90.9413 35.4459 91.3404 35.5826 91.7062 35.7489L91.1888 39.5922C90.9413 39.5035 90.6715 39.4111 90.3759 39.3113C90.1283 39.2522 89.8363 39.1894 89.5037 39.1191C89.1785 39.0526 88.8312 39.0157 88.469 39.0157C87.6708 39.0157 87.0426 39.2522 86.5918 39.7252C86.1372 40.1982 85.9118 40.9595 85.9118 42.0016V43.4058H90.435V47.4855H85.9118V61.1142H81.3147V47.4855Z" fill="white"/>
<path d="M100.902 61.6323C99.5601 61.6323 98.3443 61.4179 97.2505 60.9966C96.164 60.5754 95.2328 59.9619 94.4568 59.1637C93.6881 58.3581 93.0895 57.3678 92.6682 56.1926C92.2543 55.0212 92.0474 53.6871 92.0474 52.1868C92.0474 50.6902 92.2543 49.3598 92.6682 48.1958C93.0895 47.0243 93.6881 46.034 94.4568 45.2247C95.2328 44.4191 96.164 43.8019 97.2505 43.377C98.3443 42.9446 99.5601 42.7266 100.902 42.7266C102.239 42.7266 103.451 42.9446 104.538 43.377C105.632 43.8019 106.563 44.4191 107.332 45.2247C108.108 46.034 108.706 47.0243 109.12 48.1958C109.541 49.3598 109.756 50.6902 109.756 52.1868C109.756 53.6871 109.541 55.0212 109.12 56.1926C108.706 57.3678 108.108 58.3581 107.332 59.1637C106.563 59.9619 105.632 60.5754 104.538 60.9966C103.451 61.4179 102.239 61.6323 100.902 61.6323ZM100.902 57.5377C102.055 57.5377 103.004 57.1054 103.754 56.237C104.501 55.3612 104.878 54.0123 104.878 52.1868C104.878 50.3761 104.501 49.0346 103.754 48.1662C103.004 47.2904 102.055 46.8506 100.902 46.8506C99.7375 46.8506 98.7767 47.2904 98.0191 48.1662C97.2579 49.0346 96.881 50.3761 96.881 52.1868C96.881 54.0123 97.2579 55.3612 98.0191 56.237C98.7767 57.1054 99.7375 57.5377 100.902 57.5377Z" fill="white"/>
<path d="M120.824 61.6323C119.483 61.6323 118.267 61.4179 117.173 60.9966C116.087 60.5754 115.156 59.9619 114.38 59.1637C113.611 58.3581 113.012 57.3678 112.591 56.1926C112.177 55.0212 111.97 53.6871 111.97 52.1868C111.97 50.6902 112.177 49.3598 112.591 48.1958C113.012 47.0243 113.611 46.034 114.38 45.2247C115.156 44.4191 116.087 43.8019 117.173 43.377C118.267 42.9446 119.483 42.7266 120.824 42.7266C122.162 42.7266 123.374 42.9446 124.461 43.377C125.555 43.8019 126.486 44.4191 127.254 45.2247C128.03 46.034 128.629 47.0243 129.043 48.1958C129.464 49.3598 129.679 50.6902 129.679 52.1868C129.679 53.6871 129.464 55.0212 129.043 56.1926C128.629 57.3678 128.03 58.3581 127.254 59.1637C126.486 59.9619 125.555 60.5754 124.461 60.9966C123.374 61.4179 122.162 61.6323 120.824 61.6323ZM120.824 57.5377C121.977 57.5377 122.927 57.1054 123.677 56.237C124.424 55.3612 124.801 54.0123 124.801 52.1868C124.801 50.3761 124.424 49.0346 123.677 48.1662C122.927 47.2904 121.977 46.8506 120.824 46.8506C119.66 46.8506 118.7 47.2904 117.942 48.1662C117.181 49.0346 116.804 50.3761 116.804 52.1868C116.804 54.0123 117.181 55.3612 117.942 56.237C118.7 57.1054 119.66 57.5377 120.824 57.5377Z" fill="white"/>
<path d="M138.944 61.6319C137.987 61.6319 137.082 61.4324 136.225 61.0406C135.375 60.6378 134.628 60.0429 133.978 59.2521C133.335 58.4539 132.828 57.4783 132.455 56.3253C132.078 55.1649 131.894 53.8087 131.894 52.2604C131.894 50.7452 132.093 49.389 132.5 48.1954C132.913 47.0055 133.483 46.004 134.214 45.1947C134.953 44.3891 135.818 43.7757 136.816 43.3618C137.821 42.9405 138.922 42.7262 140.127 42.7262C140.678 42.7262 141.191 42.7669 141.664 42.8445C142.137 42.9258 142.544 43.0182 142.891 43.1253C143.294 43.2436 143.66 43.3729 143.985 43.5096V35.3945H148.582V55.8966C148.582 56.9905 149.114 57.5374 150.178 57.5374H150.784V61.1145C150.537 61.1811 150.289 61.2513 150.045 61.3215C149.816 61.3584 149.558 61.4028 149.262 61.4545C148.966 61.5026 148.645 61.5284 148.301 61.5284C147.392 61.5284 146.697 61.3695 146.217 61.0554C145.744 60.7302 145.382 60.3755 145.138 59.9911C144.861 59.5588 144.702 59.0451 144.665 58.4539H144.384C144.066 59.0673 143.66 59.6031 143.157 60.0651C142.732 60.4494 142.174 60.8041 141.487 61.1293C140.807 61.4619 139.957 61.6319 138.944 61.6319ZM140.127 57.5374C141.199 57.5374 142.111 57.1087 142.862 56.2514C143.608 55.3867 143.985 54.1081 143.985 52.423V47.6928C143.689 47.5376 143.368 47.4046 143.024 47.2937C142.728 47.1755 142.392 47.072 142.019 46.9833C141.642 46.8946 141.239 46.8503 140.807 46.8503C139.602 46.8503 138.623 47.29 137.865 48.1658C137.104 49.0343 136.727 50.3757 136.727 52.1864C136.727 53.1029 136.82 53.8974 137.008 54.5663C137.204 55.2278 137.459 55.7784 137.777 56.2218C138.102 56.6653 138.464 56.9979 138.87 57.2122C139.273 57.4302 139.691 57.5374 140.127 57.5374Z" fill="white"/>
</svg>
