<svg width="370" height="916" viewBox="0 0 370 916" fill="none" xmlns="http://www.w3.org/2000/svg">
<path d="M252.732 595.141C252.732 605.879 244.048 614.563 233.31 614.563H138.733C128.004 614.563 119.311 605.879 119.311 595.141V500.733C119.311 490.004 128.004 481.311 138.733 481.311H233.31C244.048 481.311 252.732 490.004 252.732 500.733V595.141ZM233.141 467H138.733C120.164 467 105 482.164 105 500.733V595.319C105 613.888 120.164 629.052 138.733 629.052H233.31C251.888 629.052 267.052 613.888 267.052 595.319V500.733C266.874 482.164 251.709 467 233.141 467Z" fill="#FF5757"/>
<path d="M159.871 500.564C167.495 500.564 173.666 506.754 173.666 514.378C173.666 522.003 167.495 528.173 159.871 528.173C152.246 528.173 146.076 522.003 146.076 514.378C146.076 506.754 152.246 500.564 159.871 500.564Z" fill="#FF5757"/>
<path d="M212.003 500.564C219.627 500.564 225.798 506.754 225.798 514.378C225.798 522.003 219.627 528.173 212.003 528.173C204.378 528.173 198.208 522.003 198.208 514.378C198.208 506.754 204.378 500.564 212.003 500.564Z" fill="#FF5757"/>
<path d="M227.008 545.729H144.875C141.799 545.729 139.249 548.29 139.249 551.347C139.249 563.792 144.013 575.552 152.875 584.236C161.737 593.098 173.338 597.862 185.763 597.862C198.208 597.862 209.959 593.098 218.652 584.236C227.514 575.373 232.288 563.792 232.288 551.347C232.447 548.112 230.075 545.729 227.008 545.729Z" fill="#FF5757"/>
<path d="M92.5207 684.675L85.3107 709H80.7957L75.6857 690.59L70.2607 709L65.7807 709.035L58.8857 684.675H63.1207L68.1607 704.485L73.6207 684.675H78.1007L83.1757 704.38L88.2507 684.675H92.5207ZM97.8415 687.16C97.1182 687.16 96.5115 686.915 96.0215 686.425C95.5315 685.935 95.2865 685.328 95.2865 684.605C95.2865 683.882 95.5315 683.275 96.0215 682.785C96.5115 682.295 97.1182 682.05 97.8415 682.05C98.5415 682.05 99.1365 682.295 99.6265 682.785C100.117 683.275 100.362 683.882 100.362 684.605C100.362 685.328 100.117 685.935 99.6265 686.425C99.1365 686.915 98.5415 687.16 97.8415 687.16ZM99.8015 689.715V709H95.8115V689.715H99.8015ZM109.03 692.515C109.613 691.535 110.383 690.777 111.34 690.24C112.32 689.68 113.475 689.4 114.805 689.4V693.53H113.79C112.227 693.53 111.037 693.927 110.22 694.72C109.427 695.513 109.03 696.89 109.03 698.85V709H105.04V689.715H109.03V692.515ZM153.464 689.715L147.479 709H143.279L139.394 694.755L135.509 709H131.309L125.289 689.715H129.349L133.374 705.22L137.469 689.715H141.634L145.554 705.15L149.544 689.715H153.464ZM164.811 709.315C162.991 709.315 161.346 708.907 159.876 708.09C158.406 707.25 157.251 706.083 156.411 704.59C155.571 703.073 155.151 701.323 155.151 699.34C155.151 697.38 155.583 695.642 156.446 694.125C157.31 692.608 158.488 691.442 159.981 690.625C161.475 689.808 163.143 689.4 164.986 689.4C166.83 689.4 168.498 689.808 169.991 690.625C171.485 691.442 172.663 692.608 173.526 694.125C174.39 695.642 174.821 697.38 174.821 699.34C174.821 701.3 174.378 703.038 173.491 704.555C172.605 706.072 171.391 707.25 169.851 708.09C168.335 708.907 166.655 709.315 164.811 709.315ZM164.811 705.85C165.838 705.85 166.795 705.605 167.681 705.115C168.591 704.625 169.326 703.89 169.886 702.91C170.446 701.93 170.726 700.74 170.726 699.34C170.726 697.94 170.458 696.762 169.921 695.805C169.385 694.825 168.673 694.09 167.786 693.6C166.9 693.11 165.943 692.865 164.916 692.865C163.89 692.865 162.933 693.11 162.046 693.6C161.183 694.09 160.495 694.825 159.981 695.805C159.468 696.762 159.211 697.94 159.211 699.34C159.211 701.417 159.736 703.027 160.786 704.17C161.86 705.29 163.201 705.85 164.811 705.85ZM182.756 683.1V709H178.766V683.1H182.756ZM191.984 683.1V709H187.994V683.1H191.984ZM214.898 698.885C214.898 699.608 214.851 700.262 214.758 700.845H200.023C200.139 702.385 200.711 703.622 201.738 704.555C202.764 705.488 204.024 705.955 205.518 705.955C207.664 705.955 209.181 705.057 210.068 703.26H214.373C213.789 705.033 212.728 706.492 211.188 707.635C209.671 708.755 207.781 709.315 205.518 709.315C203.674 709.315 202.018 708.907 200.548 708.09C199.101 707.25 197.958 706.083 197.118 704.59C196.301 703.073 195.893 701.323 195.893 699.34C195.893 697.357 196.289 695.618 197.083 694.125C197.899 692.608 199.031 691.442 200.478 690.625C201.948 689.808 203.628 689.4 205.518 689.4C207.338 689.4 208.959 689.797 210.383 690.59C211.806 691.383 212.914 692.503 213.708 693.95C214.501 695.373 214.898 697.018 214.898 698.885ZM210.733 697.625C210.709 696.155 210.184 694.977 209.158 694.09C208.131 693.203 206.859 692.76 205.343 692.76C203.966 692.76 202.788 693.203 201.808 694.09C200.828 694.953 200.244 696.132 200.058 697.625H210.733ZM228.554 689.4C230.071 689.4 231.424 689.715 232.614 690.345C233.828 690.975 234.773 691.908 235.449 693.145C236.126 694.382 236.464 695.875 236.464 697.625V709H232.509V698.22C232.509 696.493 232.078 695.175 231.214 694.265C230.351 693.332 229.173 692.865 227.679 692.865C226.186 692.865 224.996 693.332 224.109 694.265C223.246 695.175 222.814 696.493 222.814 698.22V709H218.824V689.715H222.814V691.92C223.468 691.127 224.296 690.508 225.299 690.065C226.326 689.622 227.411 689.4 228.554 689.4ZM258.591 684.675C261.181 684.675 263.444 685.177 265.381 686.18C267.341 687.16 268.846 688.583 269.896 690.45C270.969 692.293 271.506 694.452 271.506 696.925C271.506 699.398 270.969 701.545 269.896 703.365C268.846 705.185 267.341 706.585 265.381 707.565C263.444 708.522 261.181 709 258.591 709H250.646V684.675H258.591ZM258.591 705.745C261.437 705.745 263.619 704.975 265.136 703.435C266.652 701.895 267.411 699.725 267.411 696.925C267.411 694.102 266.652 691.897 265.136 690.31C263.619 688.723 261.437 687.93 258.591 687.93H254.636V705.745H258.591ZM277.49 687.16C276.767 687.16 276.16 686.915 275.67 686.425C275.18 685.935 274.935 685.328 274.935 684.605C274.935 683.882 275.18 683.275 275.67 682.785C276.16 682.295 276.767 682.05 277.49 682.05C278.19 682.05 278.785 682.295 279.275 682.785C279.765 683.275 280.01 683.882 280.01 684.605C280.01 685.328 279.765 685.935 279.275 686.425C278.785 686.915 278.19 687.16 277.49 687.16ZM279.45 689.715V709H275.46V689.715H279.45ZM283.358 699.34C283.358 697.357 283.755 695.618 284.548 694.125C285.365 692.608 286.485 691.442 287.908 690.625C289.332 689.808 290.965 689.4 292.808 689.4C295.142 689.4 297.067 689.96 298.583 691.08C300.123 692.177 301.162 693.752 301.698 695.805H297.393C297.043 694.848 296.483 694.102 295.713 693.565C294.943 693.028 293.975 692.76 292.808 692.76C291.175 692.76 289.868 693.343 288.888 694.51C287.932 695.653 287.453 697.263 287.453 699.34C287.453 701.417 287.932 703.038 288.888 704.205C289.868 705.372 291.175 705.955 292.808 705.955C295.118 705.955 296.647 704.94 297.393 702.91H301.698C301.138 704.87 300.088 706.433 298.548 707.6C297.008 708.743 295.095 709.315 292.808 709.315C290.965 709.315 289.332 708.907 287.908 708.09C286.485 707.25 285.365 706.083 284.548 704.59C283.755 703.073 283.358 701.323 283.358 699.34ZM315.65 689.4C317.12 689.4 318.426 689.715 319.57 690.345C320.736 690.975 321.646 691.908 322.3 693.145C322.976 694.382 323.315 695.875 323.315 697.625V709H319.36V698.22C319.36 696.493 318.928 695.175 318.065 694.265C317.201 693.332 316.023 692.865 314.53 692.865C313.036 692.865 311.846 693.332 310.96 694.265C310.096 695.175 309.665 696.493 309.665 698.22V709H305.675V683.1H309.665V691.955C310.341 691.138 311.193 690.508 312.22 690.065C313.27 689.622 314.413 689.4 315.65 689.4ZM121.963 743.885C121.963 744.608 121.916 745.262 121.823 745.845H107.088C107.205 747.385 107.776 748.622 108.803 749.555C109.83 750.488 111.09 750.955 112.583 750.955C114.73 750.955 116.246 750.057 117.133 748.26H121.438C120.855 750.033 119.793 751.492 118.253 752.635C116.736 753.755 114.846 754.315 112.583 754.315C110.74 754.315 109.083 753.907 107.613 753.09C106.166 752.25 105.023 751.083 104.183 749.59C103.366 748.073 102.958 746.323 102.958 744.34C102.958 742.357 103.355 740.618 104.148 739.125C104.965 737.608 106.096 736.442 107.543 735.625C109.013 734.808 110.693 734.4 112.583 734.4C114.403 734.4 116.025 734.797 117.448 735.59C118.871 736.383 119.98 737.503 120.773 738.95C121.566 740.373 121.963 742.018 121.963 743.885ZM117.798 742.625C117.775 741.155 117.25 739.977 116.223 739.09C115.196 738.203 113.925 737.76 112.408 737.76C111.031 737.76 109.853 738.203 108.873 739.09C107.893 739.953 107.31 741.132 107.123 742.625H117.798ZM129.88 737.515C130.463 736.535 131.233 735.777 132.19 735.24C133.17 734.68 134.325 734.4 135.655 734.4V738.53H134.64C133.076 738.53 131.886 738.927 131.07 739.72C130.276 740.513 129.88 741.89 129.88 743.85V754H125.89V734.715H129.88V737.515ZM147.407 737.97H143.837V754H139.812V737.97H137.537V734.715H139.812V733.35C139.812 731.133 140.396 729.523 141.562 728.52C142.752 727.493 144.607 726.98 147.127 726.98V730.305C145.914 730.305 145.062 730.538 144.572 731.005C144.082 731.448 143.837 732.23 143.837 733.35V734.715H147.407V737.97ZM159.308 754.315C157.488 754.315 155.843 753.907 154.373 753.09C152.903 752.25 151.748 751.083 150.908 749.59C150.068 748.073 149.648 746.323 149.648 744.34C149.648 742.38 150.08 740.642 150.943 739.125C151.807 737.608 152.985 736.442 154.478 735.625C155.972 734.808 157.64 734.4 159.483 734.4C161.327 734.4 162.995 734.808 164.488 735.625C165.982 736.442 167.16 737.608 168.023 739.125C168.887 740.642 169.318 742.38 169.318 744.34C169.318 746.3 168.875 748.038 167.988 749.555C167.102 751.072 165.888 752.25 164.348 753.09C162.832 753.907 161.152 754.315 159.308 754.315ZM159.308 750.85C160.335 750.85 161.292 750.605 162.178 750.115C163.088 749.625 163.823 748.89 164.383 747.91C164.943 746.93 165.223 745.74 165.223 744.34C165.223 742.94 164.955 741.762 164.418 740.805C163.882 739.825 163.17 739.09 162.283 738.6C161.397 738.11 160.44 737.865 159.413 737.865C158.387 737.865 157.43 738.11 156.543 738.6C155.68 739.09 154.992 739.825 154.478 740.805C153.965 741.762 153.708 742.94 153.708 744.34C153.708 746.417 154.233 748.027 155.283 749.17C156.357 750.29 157.698 750.85 159.308 750.85ZM181.033 734.4C182.526 734.4 183.844 734.703 184.988 735.31C186.154 735.893 187.064 736.628 187.718 737.515V734.715H191.743V754.315C191.743 756.088 191.369 757.663 190.623 759.04C189.876 760.44 188.791 761.537 187.368 762.33C185.968 763.123 184.288 763.52 182.328 763.52C179.714 763.52 177.544 762.902 175.818 761.665C174.091 760.452 173.111 758.795 172.878 756.695H176.833C177.136 757.698 177.778 758.503 178.758 759.11C179.761 759.74 180.951 760.055 182.328 760.055C183.938 760.055 185.233 759.565 186.213 758.585C187.216 757.605 187.718 756.182 187.718 754.315V751.095C187.041 752.005 186.119 752.775 184.953 753.405C183.809 754.012 182.503 754.315 181.033 754.315C179.353 754.315 177.813 753.895 176.413 753.055C175.036 752.192 173.939 751.002 173.123 749.485C172.329 747.945 171.933 746.207 171.933 744.27C171.933 742.333 172.329 740.618 173.123 739.125C173.939 737.632 175.036 736.477 176.413 735.66C177.813 734.82 179.353 734.4 181.033 734.4ZM187.718 744.34C187.718 743.01 187.438 741.855 186.878 740.875C186.341 739.895 185.629 739.148 184.743 738.635C183.856 738.122 182.899 737.865 181.873 737.865C180.846 737.865 179.889 738.122 179.003 738.635C178.116 739.125 177.393 739.86 176.833 740.84C176.296 741.797 176.028 742.94 176.028 744.27C176.028 745.6 176.296 746.767 176.833 747.77C177.393 748.773 178.116 749.543 179.003 750.08C179.913 750.593 180.869 750.85 181.873 750.85C182.899 750.85 183.856 750.593 184.743 750.08C185.629 749.567 186.341 748.82 186.878 747.84C187.438 746.837 187.718 745.67 187.718 744.34ZM200.973 737.515C201.557 736.535 202.327 735.777 203.283 735.24C204.263 734.68 205.418 734.4 206.748 734.4V738.53H205.733C204.17 738.53 202.98 738.927 202.163 739.72C201.37 740.513 200.973 741.89 200.973 743.85V754H196.983V734.715H200.973V737.515ZM228.091 743.885C228.091 744.608 228.044 745.262 227.951 745.845H213.216C213.333 747.385 213.904 748.622 214.931 749.555C215.958 750.488 217.218 750.955 218.711 750.955C220.858 750.955 222.374 750.057 223.261 748.26H227.566C226.983 750.033 225.921 751.492 224.381 752.635C222.864 753.755 220.974 754.315 218.711 754.315C216.868 754.315 215.211 753.907 213.741 753.09C212.294 752.25 211.151 751.083 210.311 749.59C209.494 748.073 209.086 746.323 209.086 744.34C209.086 742.357 209.483 740.618 210.276 739.125C211.093 737.608 212.224 736.442 213.671 735.625C215.141 734.808 216.821 734.4 218.711 734.4C220.531 734.4 222.153 734.797 223.576 735.59C224.999 736.383 226.108 737.503 226.901 738.95C227.694 740.373 228.091 742.018 228.091 743.885ZM223.926 742.625C223.903 741.155 223.378 739.977 222.351 739.09C221.324 738.203 220.053 737.76 218.536 737.76C217.159 737.76 215.981 738.203 215.001 739.09C214.021 739.953 213.438 741.132 213.251 742.625H223.926ZM234.048 732.16C233.324 732.16 232.718 731.915 232.228 731.425C231.738 730.935 231.493 730.328 231.493 729.605C231.493 728.882 231.738 728.275 232.228 727.785C232.718 727.295 233.324 727.05 234.048 727.05C234.748 727.05 235.343 727.295 235.833 727.785C236.323 728.275 236.568 728.882 236.568 729.605C236.568 730.328 236.323 730.935 235.833 731.425C235.343 731.915 234.748 732.16 234.048 732.16ZM236.008 734.715V754H232.018V734.715H236.008ZM239.916 744.34C239.916 742.357 240.313 740.618 241.106 739.125C241.923 737.608 243.043 736.442 244.466 735.625C245.889 734.808 247.523 734.4 249.366 734.4C251.699 734.4 253.624 734.96 255.141 736.08C256.681 737.177 257.719 738.752 258.256 740.805H253.951C253.601 739.848 253.041 739.102 252.271 738.565C251.501 738.028 250.533 737.76 249.366 737.76C247.733 737.76 246.426 738.343 245.446 739.51C244.489 740.653 244.011 742.263 244.011 744.34C244.011 746.417 244.489 748.038 245.446 749.205C246.426 750.372 247.733 750.955 249.366 750.955C251.676 750.955 253.204 749.94 253.951 747.91H258.256C257.696 749.87 256.646 751.433 255.106 752.6C253.566 753.743 251.653 754.315 249.366 754.315C247.523 754.315 245.889 753.907 244.466 753.09C243.043 752.25 241.923 751.083 241.106 749.59C240.313 748.073 239.916 746.323 239.916 744.34ZM272.207 734.4C273.677 734.4 274.984 734.715 276.127 735.345C277.294 735.975 278.204 736.908 278.857 738.145C279.534 739.382 279.872 740.875 279.872 742.625V754H275.917V743.22C275.917 741.493 275.486 740.175 274.622 739.265C273.759 738.332 272.581 737.865 271.087 737.865C269.594 737.865 268.404 738.332 267.517 739.265C266.654 740.175 266.222 741.493 266.222 743.22V754H262.232V728.1H266.222V736.955C266.899 736.138 267.751 735.508 268.777 735.065C269.827 734.622 270.971 734.4 272.207 734.4ZM143.903 779.4C145.419 779.4 146.773 779.715 147.963 780.345C149.176 780.975 150.121 781.908 150.798 783.145C151.498 784.382 151.848 785.875 151.848 787.625V799H147.893V788.22C147.893 786.493 147.461 785.175 146.598 784.265C145.734 783.332 144.556 782.865 143.063 782.865C141.569 782.865 140.379 783.332 139.493 784.265C138.629 785.175 138.198 786.493 138.198 788.22V799H134.243V788.22C134.243 786.493 133.811 785.175 132.948 784.265C132.084 783.332 130.906 782.865 129.413 782.865C127.919 782.865 126.729 783.332 125.843 784.265C124.979 785.175 124.548 786.493 124.548 788.22V799H120.558V779.715H124.548V781.92C125.201 781.127 126.029 780.508 127.033 780.065C128.036 779.622 129.109 779.4 130.253 779.4C131.793 779.4 133.169 779.727 134.383 780.38C135.596 781.033 136.529 781.978 137.183 783.215C137.766 782.048 138.676 781.127 139.913 780.45C141.149 779.75 142.479 779.4 143.903 779.4ZM155.595 789.27C155.595 787.333 155.991 785.618 156.785 784.125C157.601 782.632 158.698 781.477 160.075 780.66C161.475 779.82 163.015 779.4 164.695 779.4C166.211 779.4 167.53 779.703 168.65 780.31C169.793 780.893 170.703 781.628 171.38 782.515V779.715H175.405V799H171.38V796.13C170.703 797.04 169.781 797.798 168.615 798.405C167.448 799.012 166.118 799.315 164.625 799.315C162.968 799.315 161.451 798.895 160.075 798.055C158.698 797.192 157.601 796.002 156.785 794.485C155.991 792.945 155.595 791.207 155.595 789.27ZM171.38 789.34C171.38 788.01 171.1 786.855 170.54 785.875C170.003 784.895 169.291 784.148 168.405 783.635C167.518 783.122 166.561 782.865 165.535 782.865C164.508 782.865 163.551 783.122 162.665 783.635C161.778 784.125 161.055 784.86 160.495 785.84C159.958 786.797 159.69 787.94 159.69 789.27C159.69 790.6 159.958 791.767 160.495 792.77C161.055 793.773 161.778 794.543 162.665 795.08C163.575 795.593 164.531 795.85 165.535 795.85C166.561 795.85 167.518 795.593 168.405 795.08C169.291 794.567 170.003 793.82 170.54 792.84C171.1 791.837 171.38 790.67 171.38 789.34ZM179.316 789.34C179.316 787.357 179.712 785.618 180.506 784.125C181.322 782.608 182.442 781.442 183.866 780.625C185.289 779.808 186.922 779.4 188.766 779.4C191.099 779.4 193.024 779.96 194.541 781.08C196.081 782.177 197.119 783.752 197.656 785.805H193.351C193.001 784.848 192.441 784.102 191.671 783.565C190.901 783.028 189.932 782.76 188.766 782.76C187.132 782.76 185.826 783.343 184.846 784.51C183.889 785.653 183.411 787.263 183.411 789.34C183.411 791.417 183.889 793.038 184.846 794.205C185.826 795.372 187.132 795.955 188.766 795.955C191.076 795.955 192.604 794.94 193.351 792.91H197.656C197.096 794.87 196.046 796.433 194.506 797.6C192.966 798.743 191.052 799.315 188.766 799.315C186.922 799.315 185.289 798.907 183.866 798.09C182.442 797.25 181.322 796.083 180.506 794.59C179.712 793.073 179.316 791.323 179.316 789.34ZM211.607 779.4C213.077 779.4 214.384 779.715 215.527 780.345C216.694 780.975 217.604 781.908 218.257 783.145C218.934 784.382 219.272 785.875 219.272 787.625V799H215.317V788.22C215.317 786.493 214.885 785.175 214.022 784.265C213.159 783.332 211.98 782.865 210.487 782.865C208.994 782.865 207.804 783.332 206.917 784.265C206.054 785.175 205.622 786.493 205.622 788.22V799H201.632V773.1H205.622V781.955C206.299 781.138 207.15 780.508 208.177 780.065C209.227 779.622 210.37 779.4 211.607 779.4ZM242.036 788.885C242.036 789.608 241.99 790.262 241.896 790.845H227.161C227.278 792.385 227.85 793.622 228.876 794.555C229.903 795.488 231.163 795.955 232.656 795.955C234.803 795.955 236.32 795.057 237.206 793.26H241.511C240.928 795.033 239.866 796.492 238.326 797.635C236.81 798.755 234.92 799.315 232.656 799.315C230.813 799.315 229.156 798.907 227.686 798.09C226.24 797.25 225.096 796.083 224.256 794.59C223.44 793.073 223.031 791.323 223.031 789.34C223.031 787.357 223.428 785.618 224.221 784.125C225.038 782.608 226.17 781.442 227.616 780.625C229.086 779.808 230.766 779.4 232.656 779.4C234.476 779.4 236.098 779.797 237.521 780.59C238.945 781.383 240.053 782.503 240.846 783.95C241.64 785.373 242.036 787.018 242.036 788.885ZM237.871 787.625C237.848 786.155 237.323 784.977 236.296 784.09C235.27 783.203 233.998 782.76 232.481 782.76C231.105 782.76 229.926 783.203 228.946 784.09C227.966 784.953 227.383 786.132 227.196 787.625H237.871ZM255.693 779.4C257.21 779.4 258.563 779.715 259.753 780.345C260.966 780.975 261.911 781.908 262.588 783.145C263.265 784.382 263.603 785.875 263.603 787.625V799H259.648V788.22C259.648 786.493 259.216 785.175 258.353 784.265C257.49 783.332 256.311 782.865 254.818 782.865C253.325 782.865 252.135 783.332 251.248 784.265C250.385 785.175 249.953 786.493 249.953 788.22V799H245.963V779.715H249.953V781.92C250.606 781.127 251.435 780.508 252.438 780.065C253.465 779.622 254.55 779.4 255.693 779.4Z" fill="black"/>
<path d="M343.536 44.0933C375.52 80.5555 375.782 145.873 357.693 199.385C339.342 252.898 302.639 294.607 252.828 325.035C202.755 355.202 139.574 373.826 104.444 350.48C69.5769 327.134 62.4986 262.079 49.6526 199.648C36.5445 137.478 17.6688 78.1946 39.1661 43.831C60.6634 9.72975 122.534 0.548636 185.453 0.024001C248.109 -0.500634 311.553 7.36889 343.536 44.0933Z" fill="#FF5757"/>
<g filter="url(#filter0_d_55_2338)">
<path d="M10 35.0557C10 28.4282 15.3726 23.0557 22 23.0557H271.632C278.259 23.0557 283.632 28.4282 283.632 35.0557V373C283.632 379.627 278.259 385 271.632 385H22C15.3726 385 10 379.627 10 373V35.0557Z" fill="white"/>
</g>
<path d="M43.7895 62.231C43.3095 62.231 42.8695 62.1177 42.4695 61.891C42.0828 61.651 41.7695 61.3377 41.5295 60.951C41.3028 60.551 41.1895 60.111 41.1895 59.631C41.1895 58.8977 41.4428 58.2777 41.9495 57.771C42.4561 57.2643 43.0695 57.011 43.7895 57.011C44.5361 57.011 45.1628 57.2643 45.6695 57.771C46.1761 58.2777 46.4295 58.8977 46.4295 59.631C46.4295 60.3643 46.1761 60.9843 45.6695 61.491C45.1628 61.9843 44.5361 62.231 43.7895 62.231ZM195.118 60.791L200.198 66.291H197.118L193.038 61.551V66.291H190.758V51.491H193.038V60.091L197.038 55.271H200.198L195.118 60.791ZM204.112 51.491V66.291H201.832V51.491H204.112ZM208.265 53.811C207.852 53.811 207.505 53.671 207.225 53.391C206.945 53.111 206.805 52.7643 206.805 52.351C206.805 51.9377 206.945 51.591 207.225 51.311C207.505 51.031 207.852 50.891 208.265 50.891C208.665 50.891 209.005 51.031 209.285 51.311C209.565 51.591 209.705 51.9377 209.705 52.351C209.705 52.7643 209.565 53.111 209.285 53.391C209.005 53.671 208.665 53.811 208.265 53.811ZM209.385 55.271V66.291H207.105V55.271H209.385ZM211.619 60.771C211.619 59.6377 211.846 58.6443 212.299 57.791C212.766 56.9243 213.406 56.2577 214.219 55.791C215.032 55.3243 215.966 55.091 217.019 55.091C218.352 55.091 219.452 55.411 220.319 56.051C221.199 56.6777 221.792 57.5777 222.099 58.751H219.639C219.439 58.2043 219.119 57.7777 218.679 57.471C218.239 57.1643 217.686 57.011 217.019 57.011C216.086 57.011 215.339 57.3443 214.779 58.011C214.232 58.6643 213.959 59.5843 213.959 60.771C213.959 61.9577 214.232 62.8843 214.779 63.551C215.339 64.2177 216.086 64.551 217.019 64.551C218.339 64.551 219.212 63.971 219.639 62.811H222.099C221.779 63.931 221.179 64.8243 220.299 65.491C219.419 66.1443 218.326 66.471 217.019 66.471C215.966 66.471 215.032 66.2377 214.219 65.771C213.406 65.291 212.766 64.6243 212.299 63.771C211.846 62.9043 211.619 61.9043 211.619 60.771ZM228.731 60.791L233.811 66.291H230.731L226.651 61.551V66.291H224.371V51.491H226.651V60.091L230.651 55.271H233.811L228.731 60.791ZM245.545 60.511C245.545 60.9243 245.519 61.2977 245.465 61.631H237.045C237.112 62.511 237.439 63.2177 238.025 63.751C238.612 64.2843 239.332 64.551 240.185 64.551C241.412 64.551 242.279 64.0377 242.785 63.011H245.245C244.912 64.0243 244.305 64.8577 243.425 65.511C242.559 66.151 241.479 66.471 240.185 66.471C239.132 66.471 238.185 66.2377 237.345 65.771C236.519 65.291 235.865 64.6243 235.385 63.771C234.919 62.9043 234.685 61.9043 234.685 60.771C234.685 59.6377 234.912 58.6443 235.365 57.791C235.832 56.9243 236.479 56.2577 237.305 55.791C238.145 55.3243 239.105 55.091 240.185 55.091C241.225 55.091 242.152 55.3177 242.965 55.771C243.779 56.2243 244.412 56.8643 244.865 57.691C245.319 58.5043 245.545 59.4443 245.545 60.511ZM243.165 59.791C243.152 58.951 242.852 58.2777 242.265 57.771C241.679 57.2643 240.952 57.011 240.085 57.011C239.299 57.011 238.625 57.2643 238.065 57.771C237.505 58.2643 237.172 58.9377 237.065 59.791H243.165ZM253.349 55.091C254.216 55.091 254.989 55.271 255.669 55.631C256.362 55.991 256.902 56.5243 257.289 57.231C257.676 57.9377 257.869 58.791 257.869 59.791V66.291H255.609V60.131C255.609 59.1443 255.362 58.391 254.869 57.871C254.376 57.3377 253.702 57.071 252.849 57.071C251.996 57.071 251.316 57.3377 250.809 57.871C250.316 58.391 250.069 59.1443 250.069 60.131V66.291H247.789V55.271H250.069V56.531C250.442 56.0777 250.916 55.7243 251.489 55.471C252.076 55.2177 252.696 55.091 253.349 55.091ZM43.7895 92.231C43.3095 92.231 42.8695 92.1177 42.4695 91.891C42.0828 91.651 41.7695 91.3377 41.5295 90.951C41.3028 90.551 41.1895 90.111 41.1895 89.631C41.1895 88.8977 41.4428 88.2777 41.9495 87.771C42.4561 87.2643 43.0695 87.011 43.7895 87.011C44.5361 87.011 45.1628 87.2643 45.6695 87.771C46.1761 88.2777 46.4295 88.8977 46.4295 89.631C46.4295 90.3643 46.1761 90.9843 45.6695 91.491C45.1628 91.9843 44.5361 92.231 43.7895 92.231ZM78.4086 82.391L74.2886 96.291H71.7086L68.7886 85.771L65.6886 96.291L63.1286 96.311L59.1886 82.391H61.6086L64.4886 93.711L67.6086 82.391H70.1686L73.0686 93.651L75.9686 82.391H78.4086ZM81.4491 83.811C81.0357 83.811 80.6891 83.671 80.4091 83.391C80.1291 83.111 79.9891 82.7643 79.9891 82.351C79.9891 81.9377 80.1291 81.591 80.4091 81.311C80.6891 81.031 81.0357 80.891 81.4491 80.891C81.8491 80.891 82.1891 81.031 82.4691 81.311C82.7491 81.591 82.8891 81.9377 82.8891 82.351C82.8891 82.7643 82.7491 83.111 82.4691 83.391C82.1891 83.671 81.8491 83.811 81.4491 83.811ZM82.5691 85.271V96.291H80.2891V85.271H82.5691ZM87.8425 86.871C88.1758 86.311 88.6158 85.8777 89.1625 85.571C89.7225 85.251 90.3825 85.091 91.1425 85.091V87.451H90.5625C89.6692 87.451 88.9892 87.6777 88.5225 88.131C88.0692 88.5843 87.8425 89.371 87.8425 90.491V96.291H85.5625V85.271H87.8425V86.871ZM102.794 90.791L107.874 96.291H104.794L100.714 91.551V96.291H98.4336V81.491H100.714V90.091L104.714 85.271H107.874L102.794 90.791ZM114.288 96.471C113.248 96.471 112.308 96.2377 111.468 95.771C110.628 95.291 109.968 94.6243 109.488 93.771C109.008 92.9043 108.768 91.9043 108.768 90.771C108.768 89.651 109.014 88.6577 109.508 87.791C110.001 86.9243 110.674 86.2577 111.528 85.791C112.381 85.3243 113.334 85.091 114.388 85.091C115.441 85.091 116.394 85.3243 117.248 85.791C118.101 86.2577 118.774 86.9243 119.268 87.791C119.761 88.6577 120.008 89.651 120.008 90.771C120.008 91.891 119.754 92.8843 119.248 93.751C118.741 94.6177 118.048 95.291 117.168 95.771C116.301 96.2377 115.341 96.471 114.288 96.471ZM114.288 94.491C114.874 94.491 115.421 94.351 115.928 94.071C116.448 93.791 116.868 93.371 117.188 92.811C117.508 92.251 117.668 91.571 117.668 90.771C117.668 89.971 117.514 89.2977 117.208 88.751C116.901 88.191 116.494 87.771 115.988 87.491C115.481 87.211 114.934 87.071 114.348 87.071C113.761 87.071 113.214 87.211 112.708 87.491C112.214 87.771 111.821 88.191 111.528 88.751C111.234 89.2977 111.088 89.971 111.088 90.771C111.088 91.9577 111.388 92.8777 111.988 93.531C112.601 94.171 113.368 94.491 114.288 94.491ZM127.822 85.091C128.688 85.091 129.462 85.271 130.142 85.631C130.835 85.991 131.375 86.5243 131.762 87.231C132.148 87.9377 132.342 88.791 132.342 89.791V96.291H130.082V90.131C130.082 89.1443 129.835 88.391 129.342 87.871C128.848 87.3377 128.175 87.071 127.322 87.071C126.468 87.071 125.788 87.3377 125.282 87.871C124.788 88.391 124.542 89.1443 124.542 90.131V96.291H122.262V85.271H124.542V86.531C124.915 86.0777 125.388 85.7243 125.962 85.471C126.548 85.2177 127.168 85.091 127.822 85.091ZM137.91 87.131V93.231C137.91 93.6443 138.003 93.9443 138.19 94.131C138.39 94.3043 138.723 94.391 139.19 94.391H140.59V96.291H138.79C137.763 96.291 136.977 96.051 136.43 95.571C135.883 95.091 135.61 94.311 135.61 93.231V87.131H134.31V85.271H135.61V82.531H137.91V85.271H140.59V87.131H137.91ZM141.931 90.731C141.931 89.6243 142.158 88.6443 142.611 87.791C143.078 86.9377 143.705 86.2777 144.491 85.811C145.291 85.331 146.171 85.091 147.131 85.091C147.998 85.091 148.751 85.2643 149.391 85.611C150.045 85.9443 150.565 86.3643 150.951 86.871V85.271H153.251V96.291H150.951V94.651C150.565 95.171 150.038 95.6043 149.371 95.951C148.705 96.2977 147.945 96.471 147.091 96.471C146.145 96.471 145.278 96.231 144.491 95.751C143.705 95.2577 143.078 94.5777 142.611 93.711C142.158 92.831 141.931 91.8377 141.931 90.731ZM150.951 90.771C150.951 90.011 150.791 89.351 150.471 88.791C150.165 88.231 149.758 87.8043 149.251 87.511C148.745 87.2177 148.198 87.071 147.611 87.071C147.025 87.071 146.478 87.2177 145.971 87.511C145.465 87.791 145.051 88.211 144.731 88.771C144.425 89.3177 144.271 89.971 144.271 90.731C144.271 91.491 144.425 92.1577 144.731 92.731C145.051 93.3043 145.465 93.7443 145.971 94.051C146.491 94.3443 147.038 94.491 147.611 94.491C148.198 94.491 148.745 94.3443 149.251 94.051C149.758 93.7577 150.165 93.331 150.471 92.771C150.791 92.1977 150.951 91.531 150.951 90.771ZM160.606 90.791L165.686 96.291H162.606L158.526 91.551V96.291H156.246V81.491H158.526V90.091L162.526 85.271H165.686L160.606 90.791ZM169.98 87.131V93.231C169.98 93.6443 170.074 93.9443 170.26 94.131C170.46 94.3043 170.794 94.391 171.26 94.391H172.66V96.291H170.86C169.834 96.291 169.047 96.051 168.5 95.571C167.954 95.091 167.68 94.311 167.68 93.231V87.131H166.38V85.271H167.68V82.531H169.98V85.271H172.66V87.131H169.98ZM175.922 83.811C175.508 83.811 175.162 83.671 174.882 83.391C174.602 83.111 174.462 82.7643 174.462 82.351C174.462 81.9377 174.602 81.591 174.882 81.311C175.162 81.031 175.508 80.891 175.922 80.891C176.322 80.891 176.662 81.031 176.942 81.311C177.222 81.591 177.362 81.9377 177.362 82.351C177.362 82.7643 177.222 83.111 176.942 83.391C176.662 83.671 176.322 83.811 175.922 83.811ZM177.042 85.271V96.291H174.762V85.271H177.042ZM190.135 90.511C190.135 90.9243 190.108 91.2977 190.055 91.631H181.635C181.702 92.511 182.028 93.2177 182.615 93.751C183.202 94.2843 183.922 94.551 184.775 94.551C186.002 94.551 186.868 94.0377 187.375 93.011H189.835C189.502 94.0243 188.895 94.8577 188.015 95.511C187.148 96.151 186.068 96.471 184.775 96.471C183.722 96.471 182.775 96.2377 181.935 95.771C181.108 95.291 180.455 94.6243 179.975 93.771C179.508 92.9043 179.275 91.9043 179.275 90.771C179.275 89.6377 179.502 88.6443 179.955 87.791C180.422 86.9243 181.068 86.2577 181.895 85.791C182.735 85.3243 183.695 85.091 184.775 85.091C185.815 85.091 186.742 85.3177 187.555 85.771C188.368 86.2243 189.002 86.8643 189.455 87.691C189.908 88.5043 190.135 89.4443 190.135 90.511ZM187.755 89.791C187.742 88.951 187.442 88.2777 186.855 87.771C186.268 87.2643 185.542 87.011 184.675 87.011C183.888 87.011 183.215 87.2643 182.655 87.771C182.095 88.2643 181.762 88.9377 181.655 89.791H187.755ZM194.659 86.871C194.992 86.311 195.432 85.8777 195.979 85.571C196.539 85.251 197.199 85.091 197.959 85.091V87.451H197.379C196.486 87.451 195.806 87.6777 195.339 88.131C194.886 88.5843 194.659 89.371 194.659 90.491V96.291H192.379V85.271H194.659V86.871ZM210.155 90.511C210.155 90.9243 210.128 91.2977 210.075 91.631H201.655C201.721 92.511 202.048 93.2177 202.635 93.751C203.221 94.2843 203.941 94.551 204.795 94.551C206.021 94.551 206.888 94.0377 207.395 93.011H209.855C209.521 94.0243 208.915 94.8577 208.035 95.511C207.168 96.151 206.088 96.471 204.795 96.471C203.741 96.471 202.795 96.2377 201.955 95.771C201.128 95.291 200.475 94.6243 199.995 93.771C199.528 92.9043 199.295 91.9043 199.295 90.771C199.295 89.6377 199.521 88.6443 199.975 87.791C200.441 86.9243 201.088 86.2577 201.915 85.791C202.755 85.3243 203.715 85.091 204.795 85.091C205.835 85.091 206.761 85.3177 207.575 85.771C208.388 86.2243 209.021 86.8643 209.475 87.691C209.928 88.5043 210.155 89.4443 210.155 90.511ZM207.775 89.791C207.761 88.951 207.461 88.2777 206.875 87.771C206.288 87.2643 205.561 87.011 204.695 87.011C203.908 87.011 203.235 87.2643 202.675 87.771C202.115 88.2643 201.781 88.9377 201.675 89.791H207.775ZM217.958 85.091C218.825 85.091 219.598 85.271 220.278 85.631C220.972 85.991 221.512 86.5243 221.898 87.231C222.285 87.9377 222.478 88.791 222.478 89.791V96.291H220.218V90.131C220.218 89.1443 219.972 88.391 219.478 87.871C218.985 87.3377 218.312 87.071 217.458 87.071C216.605 87.071 215.925 87.3377 215.418 87.871C214.925 88.391 214.678 89.1443 214.678 90.131V96.291H212.398V85.271H214.678V86.531C215.052 86.0777 215.525 85.7243 216.098 85.471C216.685 85.2177 217.305 85.091 217.958 85.091ZM64.8486 112.391C66.3286 112.391 67.6219 112.678 68.7286 113.251C69.8486 113.811 70.7086 114.624 71.3086 115.691C71.9219 116.744 72.2286 117.978 72.2286 119.391C72.2286 120.804 71.9219 122.031 71.3086 123.071C70.7086 124.111 69.8486 124.911 68.7286 125.471C67.6219 126.018 66.3286 126.291 64.8486 126.291H60.3086V112.391H64.8486ZM64.8486 124.431C66.4753 124.431 67.7219 123.991 68.5886 123.111C69.4553 122.231 69.8886 120.991 69.8886 119.391C69.8886 117.778 69.4553 116.518 68.5886 115.611C67.7219 114.704 66.4753 114.251 64.8486 114.251H62.5886V124.431H64.8486ZM75.6483 113.811C75.2349 113.811 74.8883 113.671 74.6083 113.391C74.3283 113.111 74.1883 112.764 74.1883 112.351C74.1883 111.938 74.3283 111.591 74.6083 111.311C74.8883 111.031 75.2349 110.891 75.6483 110.891C76.0483 110.891 76.3883 111.031 76.6683 111.311C76.9483 111.591 77.0883 111.938 77.0883 112.351C77.0883 112.764 76.9483 113.111 76.6683 113.391C76.3883 113.671 76.0483 113.811 75.6483 113.811ZM76.7683 115.271V126.291H74.4883V115.271H76.7683ZM79.0017 120.771C79.0017 119.638 79.2284 118.644 79.6817 117.791C80.1484 116.924 80.7884 116.258 81.6017 115.791C82.4151 115.324 83.3484 115.091 84.4017 115.091C85.7351 115.091 86.8351 115.411 87.7017 116.051C88.5817 116.678 89.1751 117.578 89.4817 118.751H87.0217C86.8217 118.204 86.5017 117.778 86.0617 117.471C85.6217 117.164 85.0684 117.011 84.4017 117.011C83.4684 117.011 82.7217 117.344 82.1617 118.011C81.6151 118.664 81.3417 119.584 81.3417 120.771C81.3417 121.958 81.6151 122.884 82.1617 123.551C82.7217 124.218 83.4684 124.551 84.4017 124.551C85.7217 124.551 86.5951 123.971 87.0217 122.811H89.4817C89.1617 123.931 88.5617 124.824 87.6817 125.491C86.8017 126.144 85.7084 126.471 84.4017 126.471C83.3484 126.471 82.4151 126.238 81.6017 125.771C80.7884 125.291 80.1484 124.624 79.6817 123.771C79.2284 122.904 79.0017 121.904 79.0017 120.771ZM97.4539 115.091C98.2939 115.091 99.0406 115.271 99.6939 115.631C100.361 115.991 100.881 116.524 101.254 117.231C101.641 117.938 101.834 118.791 101.834 119.791V126.291H99.5739V120.131C99.5739 119.144 99.3272 118.391 98.8339 117.871C98.3406 117.338 97.6672 117.071 96.8139 117.071C95.9606 117.071 95.2806 117.338 94.7739 117.871C94.2806 118.391 94.0339 119.144 94.0339 120.131V126.291H91.7539V111.491H94.0339V116.551C94.4206 116.084 94.9072 115.724 95.4939 115.471C96.0939 115.218 96.7472 115.091 97.4539 115.091ZM119.918 115.271V126.291H117.638V124.991C117.278 125.444 116.804 125.804 116.218 126.071C115.644 126.324 115.031 126.451 114.378 126.451C113.511 126.451 112.731 126.271 112.038 125.911C111.358 125.551 110.818 125.018 110.418 124.311C110.031 123.604 109.838 122.751 109.838 121.751V115.271H112.098V121.411C112.098 122.398 112.344 123.158 112.838 123.691C113.331 124.211 114.004 124.471 114.858 124.471C115.711 124.471 116.384 124.211 116.878 123.691C117.384 123.158 117.638 122.398 117.638 121.411V115.271H119.918ZM128.486 115.091C129.352 115.091 130.126 115.271 130.806 115.631C131.499 115.991 132.039 116.524 132.426 117.231C132.812 117.938 133.006 118.791 133.006 119.791V126.291H130.746V120.131C130.746 119.144 130.499 118.391 130.006 117.871C129.512 117.338 128.839 117.071 127.986 117.071C127.132 117.071 126.452 117.338 125.946 117.871C125.452 118.391 125.206 119.144 125.206 120.131V126.291H122.926V115.271H125.206V116.531C125.579 116.078 126.052 115.724 126.626 115.471C127.212 115.218 127.832 115.091 128.486 115.091ZM135.154 120.731C135.154 119.624 135.381 118.644 135.834 117.791C136.301 116.938 136.927 116.278 137.714 115.811C138.514 115.331 139.401 115.091 140.374 115.091C141.094 115.091 141.801 115.251 142.494 115.571C143.201 115.878 143.761 116.291 144.174 116.811V111.491H146.474V126.291H144.174V124.631C143.801 125.164 143.281 125.604 142.614 125.951C141.961 126.298 141.207 126.471 140.354 126.471C139.394 126.471 138.514 126.231 137.714 125.751C136.927 125.258 136.301 124.578 135.834 123.711C135.381 122.831 135.154 121.838 135.154 120.731ZM144.174 120.771C144.174 120.011 144.014 119.351 143.694 118.791C143.387 118.231 142.981 117.804 142.474 117.511C141.967 117.218 141.421 117.071 140.834 117.071C140.247 117.071 139.701 117.218 139.194 117.511C138.687 117.791 138.274 118.211 137.954 118.771C137.647 119.318 137.494 119.971 137.494 120.731C137.494 121.491 137.647 122.158 137.954 122.731C138.274 123.304 138.687 123.744 139.194 124.051C139.714 124.344 140.261 124.491 140.834 124.491C141.421 124.491 141.967 124.344 142.474 124.051C142.981 123.758 143.387 123.331 143.694 122.771C144.014 122.198 144.174 121.531 144.174 120.771ZM168.004 115.091C168.871 115.091 169.644 115.271 170.324 115.631C171.017 115.991 171.557 116.524 171.944 117.231C172.344 117.938 172.544 118.791 172.544 119.791V126.291H170.284V120.131C170.284 119.144 170.037 118.391 169.544 117.871C169.051 117.338 168.377 117.071 167.524 117.071C166.671 117.071 165.991 117.338 165.484 117.871C164.991 118.391 164.744 119.144 164.744 120.131V126.291H162.484V120.131C162.484 119.144 162.237 118.391 161.744 117.871C161.251 117.338 160.577 117.071 159.724 117.071C158.871 117.071 158.191 117.338 157.684 117.871C157.191 118.391 156.944 119.144 156.944 120.131V126.291H154.664V115.271H156.944V116.531C157.317 116.078 157.791 115.724 158.364 115.471C158.937 115.218 159.551 115.091 160.204 115.091C161.084 115.091 161.871 115.278 162.564 115.651C163.257 116.024 163.791 116.564 164.164 117.271C164.497 116.604 165.017 116.078 165.724 115.691C166.431 115.291 167.191 115.091 168.004 115.091ZM174.685 120.731C174.685 119.624 174.912 118.644 175.365 117.791C175.832 116.938 176.459 116.278 177.245 115.811C178.045 115.331 178.925 115.091 179.885 115.091C180.752 115.091 181.505 115.264 182.145 115.611C182.799 115.944 183.319 116.364 183.705 116.871V115.271H186.005V126.291H183.705V124.651C183.319 125.171 182.792 125.604 182.125 125.951C181.459 126.298 180.699 126.471 179.845 126.471C178.899 126.471 178.032 126.231 177.245 125.751C176.459 125.258 175.832 124.578 175.365 123.711C174.912 122.831 174.685 121.838 174.685 120.731ZM183.705 120.771C183.705 120.011 183.545 119.351 183.225 118.791C182.919 118.231 182.512 117.804 182.005 117.511C181.499 117.218 180.952 117.071 180.365 117.071C179.779 117.071 179.232 117.218 178.725 117.511C178.219 117.791 177.805 118.211 177.485 118.771C177.179 119.318 177.025 119.971 177.025 120.731C177.025 121.491 177.179 122.158 177.485 122.731C177.805 123.304 178.219 123.744 178.725 124.051C179.245 124.344 179.792 124.491 180.365 124.491C180.952 124.491 181.499 124.344 182.005 124.051C182.512 123.758 182.919 123.331 183.225 122.771C183.545 122.198 183.705 121.531 183.705 120.771ZM188.24 120.771C188.24 119.638 188.467 118.644 188.92 117.791C189.387 116.924 190.027 116.258 190.84 115.791C191.653 115.324 192.587 115.091 193.64 115.091C194.973 115.091 196.073 115.411 196.94 116.051C197.82 116.678 198.413 117.578 198.72 118.751H196.26C196.06 118.204 195.74 117.778 195.3 117.471C194.86 117.164 194.307 117.011 193.64 117.011C192.707 117.011 191.96 117.344 191.4 118.011C190.853 118.664 190.58 119.584 190.58 120.771C190.58 121.958 190.853 122.884 191.4 123.551C191.96 124.218 192.707 124.551 193.64 124.551C194.96 124.551 195.833 123.971 196.26 122.811H198.72C198.4 123.931 197.8 124.824 196.92 125.491C196.04 126.144 194.947 126.471 193.64 126.471C192.587 126.471 191.653 126.238 190.84 125.771C190.027 125.291 189.387 124.624 188.92 123.771C188.467 122.904 188.24 121.904 188.24 120.771ZM206.692 115.091C207.532 115.091 208.279 115.271 208.932 115.631C209.599 115.991 210.119 116.524 210.492 117.231C210.879 117.938 211.072 118.791 211.072 119.791V126.291H208.812V120.131C208.812 119.144 208.566 118.391 208.072 117.871C207.579 117.338 206.906 117.071 206.052 117.071C205.199 117.071 204.519 117.338 204.012 117.871C203.519 118.391 203.272 119.144 203.272 120.131V126.291H200.992V111.491H203.272V116.551C203.659 116.084 204.146 115.724 204.732 115.471C205.332 115.218 205.986 115.091 206.692 115.091ZM224.08 120.511C224.08 120.924 224.054 121.298 224 121.631H215.58C215.647 122.511 215.974 123.218 216.56 123.751C217.147 124.284 217.867 124.551 218.72 124.551C219.947 124.551 220.814 124.038 221.32 123.011H223.78C223.447 124.024 222.84 124.858 221.96 125.511C221.094 126.151 220.014 126.471 218.72 126.471C217.667 126.471 216.72 126.238 215.88 125.771C215.054 125.291 214.4 124.624 213.92 123.771C213.454 122.904 213.22 121.904 213.22 120.771C213.22 119.638 213.447 118.644 213.9 117.791C214.367 116.924 215.014 116.258 215.84 115.791C216.68 115.324 217.64 115.091 218.72 115.091C219.76 115.091 220.687 115.318 221.5 115.771C222.314 116.224 222.947 116.864 223.4 117.691C223.854 118.504 224.08 119.444 224.08 120.511ZM221.7 119.791C221.687 118.951 221.387 118.278 220.8 117.771C220.214 117.264 219.487 117.011 218.62 117.011C217.834 117.011 217.16 117.264 216.6 117.771C216.04 118.264 215.707 118.938 215.6 119.791H221.7ZM231.884 115.091C232.751 115.091 233.524 115.271 234.204 115.631C234.898 115.991 235.438 116.524 235.824 117.231C236.211 117.938 236.404 118.791 236.404 119.791V126.291H234.144V120.131C234.144 119.144 233.898 118.391 233.404 117.871C232.911 117.338 232.238 117.071 231.384 117.071C230.531 117.071 229.851 117.338 229.344 117.871C228.851 118.391 228.604 119.144 228.604 120.131V126.291H226.324V115.271H228.604V116.531C228.978 116.078 229.451 115.724 230.024 115.471C230.611 115.218 231.231 115.091 231.884 115.091ZM70.2886 145.271V156.291H68.0086V154.991C67.6486 155.444 67.1753 155.804 66.5886 156.071C66.0153 156.324 65.4019 156.451 64.7486 156.451C63.8819 156.451 63.1019 156.271 62.4086 155.911C61.7286 155.551 61.1886 155.018 60.7886 154.311C60.4019 153.604 60.2086 152.751 60.2086 151.751V145.271H62.4686V151.411C62.4686 152.398 62.7153 153.158 63.2086 153.691C63.7019 154.211 64.3753 154.471 65.2286 154.471C66.0819 154.471 66.7553 154.211 67.2486 153.691C67.7553 153.158 68.0086 152.398 68.0086 151.411V145.271H70.2886ZM78.8569 145.091C79.7235 145.091 80.4969 145.271 81.1769 145.631C81.8702 145.991 82.4102 146.524 82.7969 147.231C83.1835 147.938 83.3769 148.791 83.3769 149.791V156.291H81.1169V150.131C81.1169 149.144 80.8702 148.391 80.3769 147.871C79.8835 147.338 79.2102 147.071 78.3569 147.071C77.5035 147.071 76.8235 147.338 76.3169 147.871C75.8235 148.391 75.5769 149.144 75.5769 150.131V156.291H73.2969V145.271H75.5769V146.531C75.9502 146.078 76.4235 145.724 76.9969 145.471C77.5835 145.218 78.2035 145.091 78.8569 145.091ZM90.2852 156.471C89.4185 156.471 88.6385 156.318 87.9452 156.011C87.2652 155.691 86.7252 155.264 86.3252 154.731C85.9252 154.184 85.7118 153.578 85.6852 152.911H88.0452C88.0852 153.378 88.3052 153.771 88.7052 154.091C89.1185 154.398 89.6318 154.551 90.2452 154.551C90.8852 154.551 91.3785 154.431 91.7252 154.191C92.0852 153.938 92.2652 153.618 92.2652 153.231C92.2652 152.818 92.0652 152.511 91.6652 152.311C91.2785 152.111 90.6585 151.891 89.8052 151.651C88.9785 151.424 88.3052 151.204 87.7852 150.991C87.2652 150.778 86.8118 150.451 86.4252 150.011C86.0518 149.571 85.8652 148.991 85.8652 148.271C85.8652 147.684 86.0385 147.151 86.3852 146.671C86.7318 146.178 87.2252 145.791 87.8652 145.511C88.5185 145.231 89.2652 145.091 90.1052 145.091C91.3585 145.091 92.3652 145.411 93.1252 146.051C93.8985 146.678 94.3118 147.538 94.3652 148.631H92.0852C92.0452 148.138 91.8452 147.744 91.4852 147.451C91.1252 147.158 90.6385 147.011 90.0252 147.011C89.4252 147.011 88.9652 147.124 88.6452 147.351C88.3252 147.578 88.1652 147.878 88.1652 148.251C88.1652 148.544 88.2718 148.791 88.4852 148.991C88.6985 149.191 88.9585 149.351 89.2652 149.471C89.5718 149.578 90.0252 149.718 90.6252 149.891C91.4252 150.104 92.0785 150.324 92.5852 150.551C93.1052 150.764 93.5518 151.084 93.9252 151.511C94.2985 151.938 94.4918 152.504 94.5052 153.211C94.5052 153.838 94.3318 154.398 93.9852 154.891C93.6385 155.384 93.1452 155.771 92.5052 156.051C91.8785 156.331 91.1385 156.471 90.2852 156.471ZM112.264 150.511C112.264 150.924 112.237 151.298 112.184 151.631H103.764C103.831 152.511 104.157 153.218 104.744 153.751C105.331 154.284 106.051 154.551 106.904 154.551C108.131 154.551 108.997 154.038 109.504 153.011H111.964C111.631 154.024 111.024 154.858 110.144 155.511C109.277 156.151 108.197 156.471 106.904 156.471C105.851 156.471 104.904 156.238 104.064 155.771C103.237 155.291 102.584 154.624 102.104 153.771C101.637 152.904 101.404 151.904 101.404 150.771C101.404 149.638 101.631 148.644 102.084 147.791C102.551 146.924 103.197 146.258 104.024 145.791C104.864 145.324 105.824 145.091 106.904 145.091C107.944 145.091 108.871 145.318 109.684 145.771C110.497 146.224 111.131 146.864 111.584 147.691C112.037 148.504 112.264 149.444 112.264 150.511ZM109.884 149.791C109.871 148.951 109.571 148.278 108.984 147.771C108.397 147.264 107.671 147.011 106.804 147.011C106.017 147.011 105.344 147.264 104.784 147.771C104.224 148.264 103.891 148.938 103.784 149.791H109.884ZM115.668 143.811C115.254 143.811 114.908 143.671 114.628 143.391C114.348 143.111 114.208 142.764 114.208 142.351C114.208 141.938 114.348 141.591 114.628 141.311C114.908 141.031 115.254 140.891 115.668 140.891C116.068 140.891 116.408 141.031 116.688 141.311C116.968 141.591 117.108 141.938 117.108 142.351C117.108 142.764 116.968 143.111 116.688 143.391C116.408 143.671 116.068 143.811 115.668 143.811ZM116.788 145.271V156.291H114.508V145.271H116.788ZM125.341 145.091C126.208 145.091 126.981 145.271 127.661 145.631C128.355 145.991 128.895 146.524 129.281 147.231C129.668 147.938 129.861 148.791 129.861 149.791V156.291H127.601V150.131C127.601 149.144 127.355 148.391 126.861 147.871C126.368 147.338 125.695 147.071 124.841 147.071C123.988 147.071 123.308 147.338 122.801 147.871C122.308 148.391 122.061 149.144 122.061 150.131V156.291H119.781V145.271H122.061V146.531C122.435 146.078 122.908 145.724 123.481 145.471C124.068 145.218 124.688 145.091 125.341 145.091ZM142.87 150.511C142.87 150.924 142.843 151.298 142.79 151.631H134.37C134.436 152.511 134.763 153.218 135.35 153.751C135.936 154.284 136.656 154.551 137.51 154.551C138.736 154.551 139.603 154.038 140.11 153.011H142.57C142.236 154.024 141.63 154.858 140.75 155.511C139.883 156.151 138.803 156.471 137.51 156.471C136.456 156.471 135.51 156.238 134.67 155.771C133.843 155.291 133.19 154.624 132.71 153.771C132.243 152.904 132.01 151.904 132.01 150.771C132.01 149.638 132.236 148.644 132.69 147.791C133.156 146.924 133.803 146.258 134.63 145.791C135.47 145.324 136.43 145.091 137.51 145.091C138.55 145.091 139.476 145.318 140.29 145.771C141.103 146.224 141.736 146.864 142.19 147.691C142.643 148.504 142.87 149.444 142.87 150.511ZM140.49 149.791C140.476 148.951 140.176 148.278 139.59 147.771C139.003 147.264 138.276 147.011 137.41 147.011C136.623 147.011 135.95 147.264 135.39 147.771C134.83 148.264 134.496 148.938 134.39 149.791H140.49ZM150.673 145.091C151.54 145.091 152.313 145.271 152.993 145.631C153.687 145.991 154.227 146.524 154.613 147.231C155 147.938 155.193 148.791 155.193 149.791V156.291H152.933V150.131C152.933 149.144 152.687 148.391 152.193 147.871C151.7 147.338 151.027 147.071 150.173 147.071C149.32 147.071 148.64 147.338 148.133 147.871C147.64 148.391 147.393 149.144 147.393 150.131V156.291H145.113V145.271H147.393V146.531C147.767 146.078 148.24 145.724 148.813 145.471C149.4 145.218 150.02 145.091 150.673 145.091ZM172.277 142.391V144.251H168.577V156.291H166.297V144.251H162.577V142.391H172.277ZM184.686 150.511C184.686 150.924 184.659 151.298 184.606 151.631H176.186C176.253 152.511 176.579 153.218 177.166 153.751C177.753 154.284 178.473 154.551 179.326 154.551C180.553 154.551 181.419 154.038 181.926 153.011H184.386C184.053 154.024 183.446 154.858 182.566 155.511C181.699 156.151 180.619 156.471 179.326 156.471C178.273 156.471 177.326 156.238 176.486 155.771C175.659 155.291 175.006 154.624 174.526 153.771C174.059 152.904 173.826 151.904 173.826 150.771C173.826 149.638 174.053 148.644 174.506 147.791C174.973 146.924 175.619 146.258 176.446 145.791C177.286 145.324 178.246 145.091 179.326 145.091C180.366 145.091 181.293 145.318 182.106 145.771C182.919 146.224 183.553 146.864 184.006 147.691C184.459 148.504 184.686 149.444 184.686 150.511ZM182.306 149.791C182.293 148.951 181.993 148.278 181.406 147.771C180.819 147.264 180.093 147.011 179.226 147.011C178.439 147.011 177.766 147.264 177.206 147.771C176.646 148.264 176.313 148.938 176.206 149.791H182.306ZM189.21 146.871C189.543 146.311 189.983 145.878 190.53 145.571C191.09 145.251 191.75 145.091 192.51 145.091V147.451H191.93C191.036 147.451 190.356 147.678 189.89 148.131C189.436 148.584 189.21 149.371 189.21 150.491V156.291H186.93V145.271H189.21V146.871ZM207.945 145.091C208.812 145.091 209.585 145.271 210.265 145.631C210.959 145.991 211.499 146.524 211.885 147.231C212.285 147.938 212.485 148.791 212.485 149.791V156.291H210.225V150.131C210.225 149.144 209.979 148.391 209.485 147.871C208.992 147.338 208.319 147.071 207.465 147.071C206.612 147.071 205.932 147.338 205.425 147.871C204.932 148.391 204.685 149.144 204.685 150.131V156.291H202.425V150.131C202.425 149.144 202.179 148.391 201.685 147.871C201.192 147.338 200.519 147.071 199.665 147.071C198.812 147.071 198.132 147.338 197.625 147.871C197.132 148.391 196.885 149.144 196.885 150.131V156.291H194.605V145.271H196.885V146.531C197.259 146.078 197.732 145.724 198.305 145.471C198.879 145.218 199.492 145.091 200.145 145.091C201.025 145.091 201.812 145.278 202.505 145.651C203.199 146.024 203.732 146.564 204.105 147.271C204.439 146.604 204.959 146.078 205.665 145.691C206.372 145.291 207.132 145.091 207.945 145.091ZM216.547 143.811C216.133 143.811 215.787 143.671 215.507 143.391C215.227 143.111 215.087 142.764 215.087 142.351C215.087 141.938 215.227 141.591 215.507 141.311C215.787 141.031 216.133 140.891 216.547 140.891C216.947 140.891 217.287 141.031 217.567 141.311C217.847 141.591 217.987 141.938 217.987 142.351C217.987 142.764 217.847 143.111 217.567 143.391C217.287 143.671 216.947 143.811 216.547 143.811ZM217.667 145.271V156.291H215.387V145.271H217.667ZM226.22 145.091C227.087 145.091 227.86 145.271 228.54 145.631C229.233 145.991 229.773 146.524 230.16 147.231C230.547 147.938 230.74 148.791 230.74 149.791V156.291H228.48V150.131C228.48 149.144 228.233 148.391 227.74 147.871C227.247 147.338 226.573 147.071 225.72 147.071C224.867 147.071 224.187 147.338 223.68 147.871C223.187 148.391 222.94 149.144 222.94 150.131V156.291H220.66V145.271H222.94V146.531C223.313 146.078 223.787 145.724 224.36 145.471C224.947 145.218 225.567 145.091 226.22 145.091ZM59.5486 180.731C59.5486 179.624 59.7753 178.644 60.2286 177.791C60.6953 176.938 61.3219 176.278 62.1086 175.811C62.9086 175.331 63.7886 175.091 64.7486 175.091C65.6153 175.091 66.3686 175.264 67.0086 175.611C67.6619 175.944 68.1819 176.364 68.5686 176.871V175.271H70.8686V186.291H68.5686V184.651C68.1819 185.171 67.6553 185.604 66.9886 185.951C66.3219 186.298 65.5619 186.471 64.7086 186.471C63.7619 186.471 62.8953 186.231 62.1086 185.751C61.3219 185.258 60.6953 184.578 60.2286 183.711C59.7753 182.831 59.5486 181.838 59.5486 180.731ZM68.5686 180.771C68.5686 180.011 68.4086 179.351 68.0886 178.791C67.7819 178.231 67.3753 177.804 66.8686 177.511C66.3619 177.218 65.8153 177.071 65.2286 177.071C64.6419 177.071 64.0953 177.218 63.5886 177.511C63.0819 177.791 62.6686 178.211 62.3486 178.771C62.0419 179.318 61.8886 179.971 61.8886 180.731C61.8886 181.491 62.0419 182.158 62.3486 182.731C62.6686 183.304 63.0819 183.744 63.5886 184.051C64.1086 184.344 64.6553 184.491 65.2286 184.491C65.8153 184.491 66.3619 184.344 66.8686 184.051C67.3753 183.758 67.7819 183.331 68.0886 182.771C68.4086 182.198 68.5686 181.531 68.5686 180.771ZM83.8433 175.271V186.291H81.5633V184.991C81.2033 185.444 80.7299 185.804 80.1433 186.071C79.5699 186.324 78.9566 186.451 78.3033 186.451C77.4366 186.451 76.6566 186.271 75.9633 185.911C75.2833 185.551 74.7433 185.018 74.3433 184.311C73.9566 183.604 73.7633 182.751 73.7633 181.751V175.271H76.0233V181.411C76.0233 182.398 76.2699 183.158 76.7633 183.691C77.2566 184.211 77.9299 184.471 78.7833 184.471C79.6366 184.471 80.3099 184.211 80.8033 183.691C81.3099 183.158 81.5633 182.398 81.5633 181.411V175.271H83.8433ZM90.8516 186.471C89.9849 186.471 89.2049 186.318 88.5116 186.011C87.8316 185.691 87.2916 185.264 86.8916 184.731C86.4916 184.184 86.2782 183.578 86.2516 182.911H88.6116C88.6516 183.378 88.8716 183.771 89.2716 184.091C89.6849 184.398 90.1982 184.551 90.8116 184.551C91.4516 184.551 91.9449 184.431 92.2916 184.191C92.6516 183.938 92.8316 183.618 92.8316 183.231C92.8316 182.818 92.6316 182.511 92.2316 182.311C91.8449 182.111 91.2249 181.891 90.3716 181.651C89.5449 181.424 88.8716 181.204 88.3516 180.991C87.8316 180.778 87.3782 180.451 86.9916 180.011C86.6182 179.571 86.4316 178.991 86.4316 178.271C86.4316 177.684 86.6049 177.151 86.9516 176.671C87.2982 176.178 87.7916 175.791 88.4316 175.511C89.0849 175.231 89.8316 175.091 90.6716 175.091C91.9249 175.091 92.9316 175.411 93.6916 176.051C94.4649 176.678 94.8782 177.538 94.9316 178.631H92.6516C92.6116 178.138 92.4116 177.744 92.0516 177.451C91.6916 177.158 91.2049 177.011 90.5916 177.011C89.9916 177.011 89.5316 177.124 89.2116 177.351C88.8916 177.578 88.7316 177.878 88.7316 178.251C88.7316 178.544 88.8382 178.791 89.0516 178.991C89.2649 179.191 89.5249 179.351 89.8316 179.471C90.1382 179.578 90.5916 179.718 91.1916 179.891C91.9916 180.104 92.6449 180.324 93.1516 180.551C93.6716 180.764 94.1182 181.084 94.4916 181.511C94.8649 181.938 95.0582 182.504 95.0716 183.211C95.0716 183.838 94.8982 184.398 94.5516 184.891C94.2049 185.384 93.7116 185.771 93.0716 186.051C92.4449 186.331 91.7049 186.471 90.8516 186.471ZM43.7895 212.231C43.3095 212.231 42.8695 212.118 42.4695 211.891C42.0828 211.651 41.7695 211.338 41.5295 210.951C41.3028 210.551 41.1895 210.111 41.1895 209.631C41.1895 208.898 41.4428 208.278 41.9495 207.771C42.4561 207.264 43.0695 207.011 43.7895 207.011C44.5361 207.011 45.1628 207.264 45.6695 207.771C46.1761 208.278 46.4295 208.898 46.4295 209.631C46.4295 210.364 46.1761 210.984 45.6695 211.491C45.1628 211.984 44.5361 212.231 43.7895 212.231ZM78.4086 202.391L74.2886 216.291H71.7086L68.7886 205.771L65.6886 216.291L63.1286 216.311L59.1886 202.391H61.6086L64.4886 213.711L67.6086 202.391H70.1686L73.0686 213.651L75.9686 202.391H78.4086ZM81.4491 203.811C81.0357 203.811 80.6891 203.671 80.4091 203.391C80.1291 203.111 79.9891 202.764 79.9891 202.351C79.9891 201.938 80.1291 201.591 80.4091 201.311C80.6891 201.031 81.0357 200.891 81.4491 200.891C81.8491 200.891 82.1891 201.031 82.4691 201.311C82.7491 201.591 82.8891 201.938 82.8891 202.351C82.8891 202.764 82.7491 203.111 82.4691 203.391C82.1891 203.671 81.8491 203.811 81.4491 203.811ZM82.5691 205.271V216.291H80.2891V205.271H82.5691ZM87.8425 206.871C88.1758 206.311 88.6158 205.878 89.1625 205.571C89.7225 205.251 90.3825 205.091 91.1425 205.091V207.451H90.5625C89.6692 207.451 88.9892 207.678 88.5225 208.131C88.0692 208.584 87.8425 209.371 87.8425 210.491V216.291H85.5625V205.271H87.8425V206.871ZM108.534 210.511C108.534 210.924 108.507 211.298 108.454 211.631H100.034C100.1 212.511 100.427 213.218 101.014 213.751C101.6 214.284 102.32 214.551 103.174 214.551C104.4 214.551 105.267 214.038 105.774 213.011H108.234C107.9 214.024 107.294 214.858 106.414 215.511C105.547 216.151 104.467 216.471 103.174 216.471C102.12 216.471 101.174 216.238 100.334 215.771C99.5069 215.291 98.8536 214.624 98.3736 213.771C97.9069 212.904 97.6736 211.904 97.6736 210.771C97.6736 209.638 97.9003 208.644 98.3536 207.791C98.8203 206.924 99.4669 206.258 100.294 205.791C101.134 205.324 102.094 205.091 103.174 205.091C104.214 205.091 105.14 205.318 105.954 205.771C106.767 206.224 107.4 206.864 107.854 207.691C108.307 208.504 108.534 209.444 108.534 210.511ZM106.154 209.791C106.14 208.951 105.84 208.278 105.254 207.771C104.667 207.264 103.94 207.011 103.074 207.011C102.287 207.011 101.614 207.264 101.054 207.771C100.494 208.264 100.16 208.938 100.054 209.791H106.154ZM113.057 206.871C113.391 206.311 113.831 205.878 114.377 205.571C114.937 205.251 115.597 205.091 116.357 205.091V207.451H115.777C114.884 207.451 114.204 207.678 113.737 208.131C113.284 208.584 113.057 209.371 113.057 210.491V216.291H110.777V205.271H113.057V206.871ZM122.453 216.471C121.586 216.471 120.806 216.318 120.113 216.011C119.433 215.691 118.893 215.264 118.493 214.731C118.093 214.184 117.88 213.578 117.853 212.911H120.213C120.253 213.378 120.473 213.771 120.873 214.091C121.286 214.398 121.8 214.551 122.413 214.551C123.053 214.551 123.546 214.431 123.893 214.191C124.253 213.938 124.433 213.618 124.433 213.231C124.433 212.818 124.233 212.511 123.833 212.311C123.446 212.111 122.826 211.891 121.973 211.651C121.146 211.424 120.473 211.204 119.953 210.991C119.433 210.778 118.98 210.451 118.593 210.011C118.22 209.571 118.033 208.991 118.033 208.271C118.033 207.684 118.206 207.151 118.553 206.671C118.9 206.178 119.393 205.791 120.033 205.511C120.686 205.231 121.433 205.091 122.273 205.091C123.526 205.091 124.533 205.411 125.293 206.051C126.066 206.678 126.48 207.538 126.533 208.631H124.253C124.213 208.138 124.013 207.744 123.653 207.451C123.293 207.158 122.806 207.011 122.193 207.011C121.593 207.011 121.133 207.124 120.813 207.351C120.493 207.578 120.333 207.878 120.333 208.251C120.333 208.544 120.44 208.791 120.653 208.991C120.866 209.191 121.126 209.351 121.433 209.471C121.74 209.578 122.193 209.718 122.793 209.891C123.593 210.104 124.246 210.324 124.753 210.551C125.273 210.764 125.72 211.084 126.093 211.511C126.466 211.938 126.66 212.504 126.673 213.211C126.673 213.838 126.5 214.398 126.153 214.891C125.806 215.384 125.313 215.771 124.673 216.051C124.046 216.331 123.306 216.471 122.453 216.471ZM131.797 207.131V213.231C131.797 213.644 131.89 213.944 132.077 214.131C132.277 214.304 132.61 214.391 133.077 214.391H134.477V216.291H132.677C131.65 216.291 130.863 216.051 130.317 215.571C129.77 215.091 129.497 214.311 129.497 213.231V207.131H128.197V205.271H129.497V202.531H131.797V205.271H134.477V207.131H131.797ZM146.678 210.511C146.678 210.924 146.651 211.298 146.598 211.631H138.178C138.245 212.511 138.571 213.218 139.158 213.751C139.745 214.284 140.465 214.551 141.318 214.551C142.545 214.551 143.411 214.038 143.918 213.011H146.378C146.045 214.024 145.438 214.858 144.558 215.511C143.691 216.151 142.611 216.471 141.318 216.471C140.265 216.471 139.318 216.238 138.478 215.771C137.651 215.291 136.998 214.624 136.518 213.771C136.051 212.904 135.818 211.904 135.818 210.771C135.818 209.638 136.045 208.644 136.498 207.791C136.965 206.924 137.611 206.258 138.438 205.791C139.278 205.324 140.238 205.091 141.318 205.091C142.358 205.091 143.285 205.318 144.098 205.771C144.911 206.224 145.545 206.864 145.998 207.691C146.451 208.504 146.678 209.444 146.678 210.511ZM144.298 209.791C144.285 208.951 143.985 208.278 143.398 207.771C142.811 207.264 142.085 207.011 141.218 207.011C140.431 207.011 139.758 207.264 139.198 207.771C138.638 208.264 138.305 208.938 138.198 209.791H144.298ZM151.202 201.491V216.291H148.922V201.491H151.202ZM156.475 201.491V216.291H154.195V201.491H156.475ZM169.569 210.511C169.569 210.924 169.542 211.298 169.489 211.631H161.069C161.135 212.511 161.462 213.218 162.049 213.751C162.635 214.284 163.355 214.551 164.209 214.551C165.435 214.551 166.302 214.038 166.809 213.011H169.269C168.935 214.024 168.329 214.858 167.449 215.511C166.582 216.151 165.502 216.471 164.209 216.471C163.155 216.471 162.209 216.238 161.369 215.771C160.542 215.291 159.889 214.624 159.409 213.771C158.942 212.904 158.709 211.904 158.709 210.771C158.709 209.638 158.935 208.644 159.389 207.791C159.855 206.924 160.502 206.258 161.329 205.791C162.169 205.324 163.129 205.091 164.209 205.091C165.249 205.091 166.175 205.318 166.989 205.771C167.802 206.224 168.435 206.864 168.889 207.691C169.342 208.504 169.569 209.444 169.569 210.511ZM167.189 209.791C167.175 208.951 166.875 208.278 166.289 207.771C165.702 207.264 164.975 207.011 164.109 207.011C163.322 207.011 162.649 207.264 162.089 207.771C161.529 208.264 161.195 208.938 161.089 209.791H167.189ZM177.373 205.091C178.239 205.091 179.013 205.271 179.693 205.631C180.386 205.991 180.926 206.524 181.313 207.231C181.699 207.938 181.893 208.791 181.893 209.791V216.291H179.633V210.131C179.633 209.144 179.386 208.391 178.893 207.871C178.399 207.338 177.726 207.071 176.873 207.071C176.019 207.071 175.339 207.338 174.833 207.871C174.339 208.391 174.093 209.144 174.093 210.131V216.291H171.813V205.271H174.093V206.531C174.466 206.078 174.939 205.724 175.513 205.471C176.099 205.218 176.719 205.091 177.373 205.091ZM200.096 210.511C200.096 210.924 200.069 211.298 200.016 211.631H191.596C191.663 212.511 191.989 213.218 192.576 213.751C193.163 214.284 193.883 214.551 194.736 214.551C195.963 214.551 196.829 214.038 197.336 213.011H199.796C199.463 214.024 198.856 214.858 197.976 215.511C197.109 216.151 196.029 216.471 194.736 216.471C193.683 216.471 192.736 216.238 191.896 215.771C191.069 215.291 190.416 214.624 189.936 213.771C189.469 212.904 189.236 211.904 189.236 210.771C189.236 209.638 189.463 208.644 189.916 207.791C190.383 206.924 191.029 206.258 191.856 205.791C192.696 205.324 193.656 205.091 194.736 205.091C195.776 205.091 196.703 205.318 197.516 205.771C198.329 206.224 198.963 206.864 199.416 207.691C199.869 208.504 200.096 209.444 200.096 210.511ZM197.716 209.791C197.703 208.951 197.403 208.278 196.816 207.771C196.229 207.264 195.503 207.011 194.636 207.011C193.849 207.011 193.176 207.264 192.616 207.771C192.056 208.264 191.723 208.938 191.616 209.791H197.716ZM203.5 203.811C203.087 203.811 202.74 203.671 202.46 203.391C202.18 203.111 202.04 202.764 202.04 202.351C202.04 201.938 202.18 201.591 202.46 201.311C202.74 201.031 203.087 200.891 203.5 200.891C203.9 200.891 204.24 201.031 204.52 201.311C204.8 201.591 204.94 201.938 204.94 202.351C204.94 202.764 204.8 203.111 204.52 203.391C204.24 203.671 203.9 203.811 203.5 203.811ZM204.62 205.271V216.291H202.34V205.271H204.62ZM213.173 205.091C214.04 205.091 214.813 205.271 215.493 205.631C216.187 205.991 216.727 206.524 217.113 207.231C217.5 207.938 217.693 208.791 217.693 209.791V216.291H215.433V210.131C215.433 209.144 215.187 208.391 214.693 207.871C214.2 207.338 213.527 207.071 212.673 207.071C211.82 207.071 211.14 207.338 210.633 207.871C210.14 208.391 209.893 209.144 209.893 210.131V216.291H207.613V205.271H209.893V206.531C210.267 206.078 210.74 205.724 211.313 205.471C211.9 205.218 212.52 205.091 213.173 205.091ZM230.702 210.511C230.702 210.924 230.675 211.298 230.622 211.631H222.202C222.268 212.511 222.595 213.218 223.182 213.751C223.768 214.284 224.488 214.551 225.342 214.551C226.568 214.551 227.435 214.038 227.942 213.011H230.402C230.068 214.024 229.462 214.858 228.582 215.511C227.715 216.151 226.635 216.471 225.342 216.471C224.288 216.471 223.342 216.238 222.502 215.771C221.675 215.291 221.022 214.624 220.542 213.771C220.075 212.904 219.842 211.904 219.842 210.771C219.842 209.638 220.068 208.644 220.522 207.791C220.988 206.924 221.635 206.258 222.462 205.791C223.302 205.324 224.262 205.091 225.342 205.091C226.382 205.091 227.308 205.318 228.122 205.771C228.935 206.224 229.568 206.864 230.022 207.691C230.475 208.504 230.702 209.444 230.702 210.511ZM228.322 209.791C228.308 208.951 228.008 208.278 227.422 207.771C226.835 207.264 226.108 207.011 225.242 207.011C224.455 207.011 223.782 207.264 223.222 207.771C222.662 208.264 222.328 208.938 222.222 209.791H228.322ZM61.4686 233.811C61.0553 233.811 60.7086 233.671 60.4286 233.391C60.1486 233.111 60.0086 232.764 60.0086 232.351C60.0086 231.938 60.1486 231.591 60.4286 231.311C60.7086 231.031 61.0553 230.891 61.4686 230.891C61.8686 230.891 62.2086 231.031 62.4886 231.311C62.7686 231.591 62.9086 231.938 62.9086 232.351C62.9086 232.764 62.7686 233.111 62.4886 233.391C62.2086 233.671 61.8686 233.811 61.4686 233.811ZM62.5886 235.271V246.291H60.3086V235.271H62.5886ZM71.142 235.091C72.0087 235.091 72.782 235.271 73.462 235.631C74.1554 235.991 74.6954 236.524 75.082 237.231C75.4687 237.938 75.662 238.791 75.662 239.791V246.291H73.402V240.131C73.402 239.144 73.1554 238.391 72.662 237.871C72.1687 237.338 71.4954 237.071 70.642 237.071C69.7887 237.071 69.1087 237.338 68.602 237.871C68.1087 238.391 67.862 239.144 67.862 240.131V246.291H65.582V235.271H67.862V236.531C68.2354 236.078 68.7087 235.724 69.282 235.471C69.8687 235.218 70.4887 235.091 71.142 235.091ZM77.8103 240.731C77.8103 239.624 78.037 238.644 78.4903 237.791C78.957 236.938 79.5836 236.278 80.3703 235.811C81.1703 235.331 82.057 235.091 83.0303 235.091C83.7503 235.091 84.457 235.251 85.1503 235.571C85.857 235.878 86.417 236.291 86.8303 236.811V231.491H89.1303V246.291H86.8303V244.631C86.457 245.164 85.937 245.604 85.2703 245.951C84.617 246.298 83.8636 246.471 83.0103 246.471C82.0503 246.471 81.1703 246.231 80.3703 245.751C79.5836 245.258 78.957 244.578 78.4903 243.711C78.037 242.831 77.8103 241.838 77.8103 240.731ZM86.8303 240.771C86.8303 240.011 86.6703 239.351 86.3503 238.791C86.0436 238.231 85.637 237.804 85.1303 237.511C84.6236 237.218 84.077 237.071 83.4903 237.071C82.9036 237.071 82.357 237.218 81.8503 237.511C81.3436 237.791 80.9303 238.211 80.6103 238.771C80.3036 239.318 80.1503 239.971 80.1503 240.731C80.1503 241.491 80.3036 242.158 80.6103 242.731C80.9303 243.304 81.3436 243.744 81.8503 244.051C82.3703 244.344 82.917 244.491 83.4903 244.491C84.077 244.491 84.6236 244.344 85.1303 244.051C85.637 243.758 86.0436 243.331 86.3503 242.771C86.6703 242.198 86.8303 241.531 86.8303 240.771ZM93.285 233.811C92.8717 233.811 92.525 233.671 92.245 233.391C91.965 233.111 91.825 232.764 91.825 232.351C91.825 231.938 91.965 231.591 92.245 231.311C92.525 231.031 92.8717 230.891 93.285 230.891C93.685 230.891 94.025 231.031 94.305 231.311C94.585 231.591 94.725 231.938 94.725 232.351C94.725 232.764 94.585 233.111 94.305 233.391C94.025 233.671 93.685 233.811 93.285 233.811ZM94.405 235.271V246.291H92.125V235.271H94.405ZM101.658 244.251L104.778 235.271H107.198L102.998 246.291H100.278L96.0984 235.271H98.5384L101.658 244.251ZM110.082 233.811C109.669 233.811 109.322 233.671 109.042 233.391C108.762 233.111 108.622 232.764 108.622 232.351C108.622 231.938 108.762 231.591 109.042 231.311C109.322 231.031 109.669 230.891 110.082 230.891C110.482 230.891 110.822 231.031 111.102 231.311C111.382 231.591 111.522 231.938 111.522 232.351C111.522 232.764 111.382 233.111 111.102 233.391C110.822 233.671 110.482 233.811 110.082 233.811ZM111.202 235.271V246.291H108.922V235.271H111.202ZM113.435 240.731C113.435 239.624 113.662 238.644 114.115 237.791C114.582 236.938 115.209 236.278 115.995 235.811C116.795 235.331 117.682 235.091 118.655 235.091C119.375 235.091 120.082 235.251 120.775 235.571C121.482 235.878 122.042 236.291 122.455 236.811V231.491H124.755V246.291H122.455V244.631C122.082 245.164 121.562 245.604 120.895 245.951C120.242 246.298 119.489 246.471 118.635 246.471C117.675 246.471 116.795 246.231 115.995 245.751C115.209 245.258 114.582 244.578 114.115 243.711C113.662 242.831 113.435 241.838 113.435 240.731ZM122.455 240.771C122.455 240.011 122.295 239.351 121.975 238.791C121.669 238.231 121.262 237.804 120.755 237.511C120.249 237.218 119.702 237.071 119.115 237.071C118.529 237.071 117.982 237.218 117.475 237.511C116.969 237.791 116.555 238.211 116.235 238.771C115.929 239.318 115.775 239.971 115.775 240.731C115.775 241.491 115.929 242.158 116.235 242.731C116.555 243.304 116.969 243.744 117.475 244.051C117.995 244.344 118.542 244.491 119.115 244.491C119.702 244.491 120.249 244.344 120.755 244.051C121.262 243.758 121.669 243.331 121.975 242.771C122.295 242.198 122.455 241.531 122.455 240.771ZM137.73 235.271V246.291H135.45V244.991C135.09 245.444 134.617 245.804 134.03 246.071C133.457 246.324 132.843 246.451 132.19 246.451C131.323 246.451 130.543 246.271 129.85 245.911C129.17 245.551 128.63 245.018 128.23 244.311C127.843 243.604 127.65 242.751 127.65 241.751V235.271H129.91V241.411C129.91 242.398 130.157 243.158 130.65 243.691C131.143 244.211 131.817 244.471 132.67 244.471C133.523 244.471 134.197 244.211 134.69 243.691C135.197 243.158 135.45 242.398 135.45 241.411V235.271H137.73ZM150.838 240.511C150.838 240.924 150.812 241.298 150.758 241.631H142.338C142.405 242.511 142.732 243.218 143.318 243.751C143.905 244.284 144.625 244.551 145.478 244.551C146.705 244.551 147.572 244.038 148.078 243.011H150.538C150.205 244.024 149.598 244.858 148.718 245.511C147.852 246.151 146.772 246.471 145.478 246.471C144.425 246.471 143.478 246.238 142.638 245.771C141.812 245.291 141.158 244.624 140.678 243.771C140.212 242.904 139.978 241.904 139.978 240.771C139.978 239.638 140.205 238.644 140.658 237.791C141.125 236.924 141.772 236.258 142.598 235.791C143.438 235.324 144.398 235.091 145.478 235.091C146.518 235.091 147.445 235.318 148.258 235.771C149.072 236.224 149.705 236.864 150.158 237.691C150.612 238.504 150.838 239.444 150.838 240.511ZM148.458 239.791C148.445 238.951 148.145 238.278 147.558 237.771C146.972 237.264 146.245 237.011 145.378 237.011C144.592 237.011 143.918 237.264 143.358 237.771C142.798 238.264 142.465 238.938 142.358 239.791H148.458ZM155.362 231.491V246.291H153.082V231.491H155.362ZM160.635 231.491V246.291H158.355V231.491H160.635ZM173.729 240.511C173.729 240.924 173.702 241.298 173.649 241.631H165.229C165.296 242.511 165.622 243.218 166.209 243.751C166.796 244.284 167.516 244.551 168.369 244.551C169.596 244.551 170.462 244.038 170.969 243.011H173.429C173.096 244.024 172.489 244.858 171.609 245.511C170.742 246.151 169.662 246.471 168.369 246.471C167.316 246.471 166.369 246.238 165.529 245.771C164.702 245.291 164.049 244.624 163.569 243.771C163.102 242.904 162.869 241.904 162.869 240.771C162.869 239.638 163.096 238.644 163.549 237.791C164.016 236.924 164.662 236.258 165.489 235.791C166.329 235.324 167.289 235.091 168.369 235.091C169.409 235.091 170.336 235.318 171.149 235.771C171.962 236.224 172.596 236.864 173.049 237.691C173.502 238.504 173.729 239.444 173.729 240.511ZM171.349 239.791C171.336 238.951 171.036 238.278 170.449 237.771C169.862 237.264 169.136 237.011 168.269 237.011C167.482 237.011 166.809 237.264 166.249 237.771C165.689 238.264 165.356 238.938 165.249 239.791H171.349ZM189.548 243.451H183.728L182.728 246.291H180.348L185.328 232.371H187.968L192.948 246.291H190.548L189.548 243.451ZM188.908 241.591L186.648 235.131L184.368 241.591H188.908ZM197.393 236.891C197.78 236.384 198.307 235.958 198.973 235.611C199.64 235.264 200.393 235.091 201.233 235.091C202.193 235.091 203.067 235.331 203.853 235.811C204.653 236.278 205.28 236.938 205.733 237.791C206.187 238.644 206.413 239.624 206.413 240.731C206.413 241.838 206.187 242.831 205.733 243.711C205.28 244.578 204.653 245.258 203.853 245.751C203.067 246.231 202.193 246.471 201.233 246.471C200.393 246.471 199.647 246.304 198.993 245.971C198.34 245.624 197.807 245.198 197.393 244.691V251.531H195.113V235.271H197.393V236.891ZM204.093 240.731C204.093 239.971 203.933 239.318 203.613 238.771C203.307 238.211 202.893 237.791 202.373 237.511C201.867 237.218 201.32 237.071 200.733 237.071C200.16 237.071 199.613 237.218 199.093 237.511C198.587 237.804 198.173 238.231 197.853 238.791C197.547 239.351 197.393 240.011 197.393 240.771C197.393 241.531 197.547 242.198 197.853 242.771C198.173 243.331 198.587 243.758 199.093 244.051C199.613 244.344 200.16 244.491 200.733 244.491C201.32 244.491 201.867 244.344 202.373 244.051C202.893 243.744 203.307 243.304 203.613 242.731C203.933 242.158 204.093 241.491 204.093 240.731ZM210.948 236.891C211.335 236.384 211.861 235.958 212.528 235.611C213.195 235.264 213.948 235.091 214.788 235.091C215.748 235.091 216.621 235.331 217.408 235.811C218.208 236.278 218.835 236.938 219.288 237.791C219.741 238.644 219.968 239.624 219.968 240.731C219.968 241.838 219.741 242.831 219.288 243.711C218.835 244.578 218.208 245.258 217.408 245.751C216.621 246.231 215.748 246.471 214.788 246.471C213.948 246.471 213.201 246.304 212.548 245.971C211.895 245.624 211.361 245.198 210.948 244.691V251.531H208.668V235.271H210.948V236.891ZM217.648 240.731C217.648 239.971 217.488 239.318 217.168 238.771C216.861 238.211 216.448 237.791 215.928 237.511C215.421 237.218 214.875 237.071 214.288 237.071C213.715 237.071 213.168 237.218 212.648 237.511C212.141 237.804 211.728 238.231 211.408 238.791C211.101 239.351 210.948 240.011 210.948 240.771C210.948 241.531 211.101 242.198 211.408 242.771C211.728 243.331 212.141 243.758 212.648 244.051C213.168 244.344 213.715 244.491 214.288 244.491C214.875 244.491 215.421 244.344 215.928 244.051C216.448 243.744 216.861 243.304 217.168 242.731C217.488 242.158 217.648 241.491 217.648 240.731ZM232.038 237.131H229.998V246.291H227.698V237.131H226.398V235.271H227.698V234.491C227.698 233.224 228.031 232.304 228.698 231.731C229.378 231.144 230.438 230.851 231.878 230.851V232.751C231.185 232.751 230.698 232.884 230.418 233.151C230.138 233.404 229.998 233.851 229.998 234.491V235.271H232.038V237.131ZM244.039 235.271V246.291H241.759V244.991C241.399 245.444 240.925 245.804 240.339 246.071C239.765 246.324 239.152 246.451 238.499 246.451C237.632 246.451 236.852 246.271 236.159 245.911C235.479 245.551 234.939 245.018 234.539 244.311C234.152 243.604 233.959 242.751 233.959 241.751V235.271H236.219V241.411C236.219 242.398 236.465 243.158 236.959 243.691C237.452 244.211 238.125 244.471 238.979 244.471C239.832 244.471 240.505 244.211 240.999 243.691C241.505 243.158 241.759 242.398 241.759 241.411V235.271H244.039ZM237.339 233.891C237.005 233.891 236.719 233.778 236.479 233.551C236.252 233.311 236.139 233.024 236.139 232.691C236.139 232.358 236.252 232.078 236.479 231.851C236.719 231.611 237.005 231.491 237.339 231.491C237.672 231.491 237.952 231.611 238.179 231.851C238.419 232.078 238.539 232.358 238.539 232.691C238.539 233.024 238.419 233.311 238.179 233.551C237.952 233.778 237.672 233.891 237.339 233.891ZM240.779 233.891C240.445 233.891 240.159 233.778 239.919 233.551C239.692 233.311 239.579 233.024 239.579 232.691C239.579 232.358 239.692 232.078 239.919 231.851C240.159 231.611 240.445 231.491 240.779 231.491C241.112 231.491 241.392 231.611 241.619 231.851C241.859 232.078 241.979 232.358 241.979 232.691C241.979 233.024 241.859 233.311 241.619 233.551C241.392 233.778 241.112 233.891 240.779 233.891ZM249.327 236.871C249.66 236.311 250.1 235.878 250.647 235.571C251.207 235.251 251.867 235.091 252.627 235.091V237.451H252.047C251.154 237.451 250.474 237.678 250.007 238.131C249.554 238.584 249.327 239.371 249.327 240.491V246.291H247.047V235.271H249.327V236.871ZM64.8486 262.391C66.3286 262.391 67.6219 262.678 68.7286 263.251C69.8486 263.811 70.7086 264.624 71.3086 265.691C71.9219 266.744 72.2286 267.978 72.2286 269.391C72.2286 270.804 71.9219 272.031 71.3086 273.071C70.7086 274.111 69.8486 274.911 68.7286 275.471C67.6219 276.018 66.3286 276.291 64.8486 276.291H60.3086V262.391H64.8486ZM64.8486 274.431C66.4753 274.431 67.7219 273.991 68.5886 273.111C69.4553 272.231 69.8886 270.991 69.8886 269.391C69.8886 267.778 69.4553 266.518 68.5886 265.611C67.7219 264.704 66.4753 264.251 64.8486 264.251H62.5886V274.431H64.8486ZM75.6483 263.811C75.2349 263.811 74.8883 263.671 74.6083 263.391C74.3283 263.111 74.1883 262.764 74.1883 262.351C74.1883 261.938 74.3283 261.591 74.6083 261.311C74.8883 261.031 75.2349 260.891 75.6483 260.891C76.0483 260.891 76.3883 261.031 76.6683 261.311C76.9483 261.591 77.0883 261.938 77.0883 262.351C77.0883 262.764 76.9483 263.111 76.6683 263.391C76.3883 263.671 76.0483 263.811 75.6483 263.811ZM76.7683 265.271V276.291H74.4883V265.271H76.7683ZM79.0017 270.771C79.0017 269.638 79.2284 268.644 79.6817 267.791C80.1484 266.924 80.7884 266.258 81.6017 265.791C82.4151 265.324 83.3484 265.091 84.4017 265.091C85.7351 265.091 86.8351 265.411 87.7017 266.051C88.5817 266.678 89.1751 267.578 89.4817 268.751H87.0217C86.8217 268.204 86.5017 267.778 86.0617 267.471C85.6217 267.164 85.0684 267.011 84.4017 267.011C83.4684 267.011 82.7217 267.344 82.1617 268.011C81.6151 268.664 81.3417 269.584 81.3417 270.771C81.3417 271.958 81.6151 272.884 82.1617 273.551C82.7217 274.218 83.4684 274.551 84.4017 274.551C85.7217 274.551 86.5951 273.971 87.0217 272.811H89.4817C89.1617 273.931 88.5617 274.824 87.6817 275.491C86.8017 276.144 85.7084 276.471 84.4017 276.471C83.3484 276.471 82.4151 276.238 81.6017 275.771C80.7884 275.291 80.1484 274.624 79.6817 273.771C79.2284 272.904 79.0017 271.904 79.0017 270.771ZM97.4539 265.091C98.2939 265.091 99.0406 265.271 99.6939 265.631C100.361 265.991 100.881 266.524 101.254 267.231C101.641 267.938 101.834 268.791 101.834 269.791V276.291H99.5739V270.131C99.5739 269.144 99.3272 268.391 98.8339 267.871C98.3406 267.338 97.6672 267.071 96.8139 267.071C95.9606 267.071 95.2806 267.338 94.7739 267.871C94.2806 268.391 94.0339 269.144 94.0339 270.131V276.291H91.7539V261.491H94.0339V266.551C94.4206 266.084 94.9072 265.724 95.4939 265.471C96.0939 265.218 96.7472 265.091 97.4539 265.091Z" fill="black"/>
<path d="M67.8886 52.391V62.411C67.8886 63.651 67.5086 64.631 66.7486 65.351C66.0019 66.071 65.0153 66.431 63.7886 66.431C62.5619 66.431 61.5686 66.071 60.8086 65.351C60.0619 64.631 59.6886 63.651 59.6886 62.411H61.9886C62.0019 63.0243 62.1553 63.511 62.4486 63.871C62.7553 64.231 63.2019 64.411 63.7886 64.411C64.3753 64.411 64.8219 64.231 65.1286 63.871C65.4353 63.4977 65.5886 63.011 65.5886 62.411V52.391H67.8886ZM81.6977 60.511C81.6977 60.9243 81.671 61.2977 81.6177 61.631H73.1977C73.2643 62.511 73.591 63.2177 74.1777 63.751C74.7643 64.2843 75.4843 64.551 76.3377 64.551C77.5643 64.551 78.431 64.0377 78.9377 63.011H81.3977C81.0643 64.0243 80.4577 64.8577 79.5777 65.511C78.711 66.151 77.631 66.471 76.3377 66.471C75.2843 66.471 74.3377 66.2377 73.4977 65.771C72.671 65.291 72.0177 64.6243 71.5377 63.771C71.071 62.9043 70.8377 61.9043 70.8377 60.771C70.8377 59.6377 71.0643 58.6443 71.5177 57.791C71.9843 56.9243 72.631 56.2577 73.4577 55.791C74.2977 55.3243 75.2577 55.091 76.3377 55.091C77.3777 55.091 78.3043 55.3177 79.1177 55.771C79.931 56.2243 80.5643 56.8643 81.0177 57.691C81.471 58.5043 81.6977 59.4443 81.6977 60.511ZM79.3177 59.791C79.3043 58.951 79.0043 58.2777 78.4177 57.771C77.831 57.2643 77.1043 57.011 76.2377 57.011C75.451 57.011 74.7777 57.2643 74.2177 57.771C73.6577 58.2643 73.3243 58.9377 73.2177 59.791H79.3177ZM86.6014 57.131V63.231C86.6014 63.6443 86.6947 63.9443 86.8814 64.131C87.0814 64.3043 87.4147 64.391 87.8814 64.391H89.2814V66.291H87.4814C86.4547 66.291 85.6681 66.051 85.1214 65.571C84.5747 65.091 84.3014 64.311 84.3014 63.231V57.131H83.0014V55.271H84.3014V52.531H86.6014V55.271H89.2814V57.131H86.6014ZM93.4028 64.431H98.4028V66.291H90.7628V64.431L95.7828 57.131H90.7628V55.271H98.4028V57.131L93.4028 64.431ZM103.457 57.131V63.231C103.457 63.6443 103.55 63.9443 103.737 64.131C103.937 64.3043 104.27 64.391 104.737 64.391H106.137V66.291H104.337C103.31 66.291 102.524 66.051 101.977 65.571C101.43 65.091 101.157 64.311 101.157 63.231V57.131H99.8569V55.271H101.157V52.531H103.457V55.271H106.137V57.131H103.457ZM117.434 66.471C116.567 66.471 115.787 66.3177 115.094 66.011C114.414 65.691 113.874 65.2643 113.474 64.731C113.074 64.1843 112.86 63.5777 112.834 62.911H115.194C115.234 63.3777 115.454 63.771 115.854 64.091C116.267 64.3977 116.78 64.551 117.394 64.551C118.034 64.551 118.527 64.431 118.874 64.191C119.234 63.9377 119.414 63.6177 119.414 63.231C119.414 62.8177 119.214 62.511 118.814 62.311C118.427 62.111 117.807 61.891 116.954 61.651C116.127 61.4243 115.454 61.2043 114.934 60.991C114.414 60.7777 113.96 60.451 113.574 60.011C113.2 59.571 113.014 58.991 113.014 58.271C113.014 57.6843 113.187 57.151 113.534 56.671C113.88 56.1777 114.374 55.791 115.014 55.511C115.667 55.231 116.414 55.091 117.254 55.091C118.507 55.091 119.514 55.411 120.274 56.051C121.047 56.6777 121.46 57.5377 121.514 58.631H119.234C119.194 58.1377 118.994 57.7443 118.634 57.451C118.274 57.1577 117.787 57.011 117.174 57.011C116.574 57.011 116.114 57.1243 115.794 57.351C115.474 57.5777 115.314 57.8777 115.314 58.251C115.314 58.5443 115.42 58.791 115.634 58.991C115.847 59.191 116.107 59.351 116.414 59.471C116.72 59.5777 117.174 59.7177 117.774 59.891C118.574 60.1043 119.227 60.3243 119.734 60.551C120.254 60.7643 120.7 61.0843 121.074 61.511C121.447 61.9377 121.64 62.5043 121.654 63.211C121.654 63.8377 121.48 64.3977 121.134 64.891C120.787 65.3843 120.294 65.771 119.654 66.051C119.027 66.331 118.287 66.471 117.434 66.471ZM126.777 57.131V63.231C126.777 63.6443 126.871 63.9443 127.057 64.131C127.257 64.3043 127.591 64.391 128.057 64.391H129.457V66.291H127.657C126.631 66.291 125.844 66.051 125.297 65.571C124.751 65.091 124.477 64.311 124.477 63.231V57.131H123.177V55.271H124.477V52.531H126.777V55.271H129.457V57.131H126.777ZM130.799 60.731C130.799 59.6243 131.025 58.6443 131.479 57.791C131.945 56.9377 132.572 56.2777 133.359 55.811C134.159 55.331 135.039 55.091 135.999 55.091C136.865 55.091 137.619 55.2643 138.259 55.611C138.912 55.9443 139.432 56.3643 139.819 56.871V55.271H142.119V66.291H139.819V64.651C139.432 65.171 138.905 65.6043 138.239 65.951C137.572 66.2977 136.812 66.471 135.959 66.471C135.012 66.471 134.145 66.231 133.359 65.751C132.572 65.2577 131.945 64.5777 131.479 63.711C131.025 62.831 130.799 61.8377 130.799 60.731ZM139.819 60.771C139.819 60.011 139.659 59.351 139.339 58.791C139.032 58.231 138.625 57.8043 138.119 57.511C137.612 57.2177 137.065 57.071 136.479 57.071C135.892 57.071 135.345 57.2177 134.839 57.511C134.332 57.791 133.919 58.211 133.599 58.771C133.292 59.3177 133.139 59.971 133.139 60.731C133.139 61.491 133.292 62.1577 133.599 62.731C133.919 63.3043 134.332 63.7443 134.839 64.051C135.359 64.3443 135.905 64.491 136.479 64.491C137.065 64.491 137.612 64.3443 138.119 64.051C138.625 63.7577 139.032 63.331 139.339 62.771C139.659 62.1977 139.819 61.531 139.819 60.771ZM147.393 56.871C147.727 56.311 148.167 55.8777 148.713 55.571C149.273 55.251 149.933 55.091 150.693 55.091V57.451H150.113C149.22 57.451 148.54 57.6777 148.073 58.131C147.62 58.5843 147.393 59.371 147.393 60.491V66.291H145.113V55.271H147.393V56.871ZM155.449 57.131V63.231C155.449 63.6443 155.542 63.9443 155.729 64.131C155.929 64.3043 156.262 64.391 156.729 64.391H158.129V66.291H156.329C155.302 66.291 154.516 66.051 153.969 65.571C153.422 65.091 153.149 64.311 153.149 63.231V57.131H151.849V55.271H153.149V52.531H155.449V55.271H158.129V57.131H155.449ZM170.33 60.511C170.33 60.9243 170.304 61.2977 170.25 61.631H161.83C161.897 62.511 162.224 63.2177 162.81 63.751C163.397 64.2843 164.117 64.551 164.97 64.551C166.197 64.551 167.064 64.0377 167.57 63.011H170.03C169.697 64.0243 169.09 64.8577 168.21 65.511C167.344 66.151 166.264 66.471 164.97 66.471C163.917 66.471 162.97 66.2377 162.13 65.771C161.304 65.291 160.65 64.6243 160.17 63.771C159.704 62.9043 159.47 61.9043 159.47 60.771C159.47 59.6377 159.697 58.6443 160.15 57.791C160.617 56.9243 161.264 56.2577 162.09 55.791C162.93 55.3243 163.89 55.091 164.97 55.091C166.01 55.091 166.937 55.3177 167.75 55.771C168.564 56.2243 169.197 56.8643 169.65 57.691C170.104 58.5043 170.33 59.4443 170.33 60.511ZM167.95 59.791C167.937 58.951 167.637 58.2777 167.05 57.771C166.464 57.2643 165.737 57.011 164.87 57.011C164.084 57.011 163.41 57.2643 162.85 57.771C162.29 58.2643 161.957 58.9377 161.85 59.791H167.95ZM178.134 55.091C179.001 55.091 179.774 55.271 180.454 55.631C181.148 55.991 181.688 56.5243 182.074 57.231C182.461 57.9377 182.654 58.791 182.654 59.791V66.291H180.394V60.131C180.394 59.1443 180.148 58.391 179.654 57.871C179.161 57.3377 178.488 57.071 177.634 57.071C176.781 57.071 176.101 57.3377 175.594 57.871C175.101 58.391 174.854 59.1443 174.854 60.131V66.291H172.574V55.271H174.854V56.531C175.228 56.0777 175.701 55.7243 176.274 55.471C176.861 55.2177 177.481 55.091 178.134 55.091Z" fill="#FF5757"/>
<path d="M35 338.842C35 326.779 44.779 317 56.842 317H237.039C249.102 317 258.881 326.779 258.881 338.842V338.842C258.881 350.905 249.102 360.684 237.039 360.684H56.842C44.779 360.684 35 350.905 35 338.842V338.842Z" fill="#FFDE59"/>
<path d="M93.0899 332.1V342.12C93.0899 343.36 92.7099 344.34 91.9499 345.06C91.2032 345.78 90.2166 346.14 88.9899 346.14C87.7632 346.14 86.7699 345.78 86.0099 345.06C85.2632 344.34 84.8899 343.36 84.8899 342.12H87.1899C87.2032 342.733 87.3566 343.22 87.6499 343.58C87.9566 343.94 88.4032 344.12 88.9899 344.12C89.5766 344.12 90.0232 343.94 90.3299 343.58C90.6366 343.207 90.7899 342.72 90.7899 342.12V332.1H93.0899ZM106.899 340.22C106.899 340.633 106.872 341.007 106.819 341.34H98.399C98.4656 342.22 98.7923 342.927 99.379 343.46C99.9656 343.993 100.686 344.26 101.539 344.26C102.766 344.26 103.632 343.747 104.139 342.72H106.599C106.266 343.733 105.659 344.567 104.779 345.22C103.912 345.86 102.832 346.18 101.539 346.18C100.486 346.18 99.539 345.947 98.699 345.48C97.8723 345 97.219 344.333 96.739 343.48C96.2723 342.613 96.039 341.613 96.039 340.48C96.039 339.347 96.2656 338.353 96.719 337.5C97.1856 336.633 97.8323 335.967 98.659 335.5C99.499 335.033 100.459 334.8 101.539 334.8C102.579 334.8 103.506 335.027 104.319 335.48C105.132 335.933 105.766 336.573 106.219 337.4C106.672 338.213 106.899 339.153 106.899 340.22ZM104.519 339.5C104.506 338.66 104.206 337.987 103.619 337.48C103.032 336.973 102.306 336.72 101.439 336.72C100.652 336.72 99.979 336.973 99.419 337.48C98.859 337.973 98.5256 338.647 98.419 339.5H104.519ZM111.803 336.84V342.94C111.803 343.353 111.896 343.653 112.083 343.84C112.283 344.013 112.616 344.1 113.083 344.1H114.483V346H112.683C111.656 346 110.869 345.76 110.323 345.28C109.776 344.8 109.503 344.02 109.503 342.94V336.84H108.203V334.98H109.503V332.24H111.803V334.98H114.483V336.84H111.803ZM118.604 344.14H123.604V346H115.964V344.14L120.984 336.84H115.964V334.98H123.604V336.84L118.604 344.14ZM128.658 336.84V342.94C128.658 343.353 128.752 343.653 128.938 343.84C129.138 344.013 129.472 344.1 129.938 344.1H131.338V346H129.538C128.512 346 127.725 345.76 127.178 345.28C126.632 344.8 126.358 344.02 126.358 342.94V336.84H125.058V334.98H126.358V332.24H128.658V334.98H131.338V336.84H128.658ZM142.635 346.18C141.768 346.18 140.988 346.027 140.295 345.72C139.615 345.4 139.075 344.973 138.675 344.44C138.275 343.893 138.062 343.287 138.035 342.62H140.395C140.435 343.087 140.655 343.48 141.055 343.8C141.468 344.107 141.982 344.26 142.595 344.26C143.235 344.26 143.728 344.14 144.075 343.9C144.435 343.647 144.615 343.327 144.615 342.94C144.615 342.527 144.415 342.22 144.015 342.02C143.628 341.82 143.008 341.6 142.155 341.36C141.328 341.133 140.655 340.913 140.135 340.7C139.615 340.487 139.162 340.16 138.775 339.72C138.402 339.28 138.215 338.7 138.215 337.98C138.215 337.393 138.388 336.86 138.735 336.38C139.082 335.887 139.575 335.5 140.215 335.22C140.868 334.94 141.615 334.8 142.455 334.8C143.708 334.8 144.715 335.12 145.475 335.76C146.248 336.387 146.662 337.247 146.715 338.34H144.435C144.395 337.847 144.195 337.453 143.835 337.16C143.475 336.867 142.988 336.72 142.375 336.72C141.775 336.72 141.315 336.833 140.995 337.06C140.675 337.287 140.515 337.587 140.515 337.96C140.515 338.253 140.622 338.5 140.835 338.7C141.048 338.9 141.308 339.06 141.615 339.18C141.922 339.287 142.375 339.427 142.975 339.6C143.775 339.813 144.428 340.033 144.935 340.26C145.455 340.473 145.902 340.793 146.275 341.22C146.648 341.647 146.842 342.213 146.855 342.92C146.855 343.547 146.682 344.107 146.335 344.6C145.988 345.093 145.495 345.48 144.855 345.76C144.228 346.04 143.488 346.18 142.635 346.18ZM151.978 336.84V342.94C151.978 343.353 152.072 343.653 152.258 343.84C152.458 344.013 152.792 344.1 153.258 344.1H154.658V346H152.858C151.832 346 151.045 345.76 150.498 345.28C149.952 344.8 149.678 344.02 149.678 342.94V336.84H148.378V334.98H149.678V332.24H151.978V334.98H154.658V336.84H151.978ZM156 340.44C156 339.333 156.227 338.353 156.68 337.5C157.147 336.647 157.773 335.987 158.56 335.52C159.36 335.04 160.24 334.8 161.2 334.8C162.067 334.8 162.82 334.973 163.46 335.32C164.113 335.653 164.633 336.073 165.02 336.58V334.98H167.32V346H165.02V344.36C164.633 344.88 164.107 345.313 163.44 345.66C162.773 346.007 162.013 346.18 161.16 346.18C160.213 346.18 159.347 345.94 158.56 345.46C157.773 344.967 157.147 344.287 156.68 343.42C156.227 342.54 156 341.547 156 340.44ZM165.02 340.48C165.02 339.72 164.86 339.06 164.54 338.5C164.233 337.94 163.827 337.513 163.32 337.22C162.813 336.927 162.267 336.78 161.68 336.78C161.093 336.78 160.547 336.927 160.04 337.22C159.533 337.5 159.12 337.92 158.8 338.48C158.493 339.027 158.34 339.68 158.34 340.44C158.34 341.2 158.493 341.867 158.8 342.44C159.12 343.013 159.533 343.453 160.04 343.76C160.56 344.053 161.107 344.2 161.68 344.2C162.267 344.2 162.813 344.053 163.32 343.76C163.827 343.467 164.233 343.04 164.54 342.48C164.86 341.907 165.02 341.24 165.02 340.48ZM172.595 336.58C172.928 336.02 173.368 335.587 173.915 335.28C174.475 334.96 175.135 334.8 175.895 334.8V337.16H175.315C174.421 337.16 173.741 337.387 173.275 337.84C172.821 338.293 172.595 339.08 172.595 340.2V346H170.315V334.98H172.595V336.58ZM180.65 336.84V342.94C180.65 343.353 180.744 343.653 180.93 343.84C181.13 344.013 181.464 344.1 181.93 344.1H183.33V346H181.53C180.504 346 179.717 345.76 179.17 345.28C178.624 344.8 178.35 344.02 178.35 342.94V336.84H177.05V334.98H178.35V332.24H180.65V334.98H183.33V336.84H180.65ZM195.532 340.22C195.532 340.633 195.505 341.007 195.452 341.34H187.032C187.098 342.22 187.425 342.927 188.012 343.46C188.598 343.993 189.318 344.26 190.172 344.26C191.398 344.26 192.265 343.747 192.772 342.72H195.232C194.898 343.733 194.292 344.567 193.412 345.22C192.545 345.86 191.465 346.18 190.172 346.18C189.118 346.18 188.172 345.947 187.332 345.48C186.505 345 185.852 344.333 185.372 343.48C184.905 342.613 184.672 341.613 184.672 340.48C184.672 339.347 184.898 338.353 185.352 337.5C185.818 336.633 186.465 335.967 187.292 335.5C188.132 335.033 189.092 334.8 190.172 334.8C191.212 334.8 192.138 335.027 192.952 335.48C193.765 335.933 194.398 336.573 194.852 337.4C195.305 338.213 195.532 339.153 195.532 340.22ZM193.152 339.5C193.138 338.66 192.838 337.987 192.252 337.48C191.665 336.973 190.938 336.72 190.072 336.72C189.285 336.72 188.612 336.973 188.052 337.48C187.492 337.973 187.158 338.647 187.052 339.5H193.152ZM203.336 334.8C204.202 334.8 204.976 334.98 205.656 335.34C206.349 335.7 206.889 336.233 207.276 336.94C207.662 337.647 207.856 338.5 207.856 339.5V346H205.596V339.84C205.596 338.853 205.349 338.1 204.856 337.58C204.362 337.047 203.689 336.78 202.836 336.78C201.982 336.78 201.302 337.047 200.796 337.58C200.302 338.1 200.056 338.853 200.056 339.84V346H197.776V334.98H200.056V336.24C200.429 335.787 200.902 335.433 201.476 335.18C202.062 334.927 202.682 334.8 203.336 334.8Z" fill="black"/>
<defs>
<filter id="filter0_d_55_2338" x="0" y="17.0557" width="293.632" height="381.944" filterUnits="userSpaceOnUse" color-interpolation-filters="sRGB">
<feFlood flood-opacity="0" result="BackgroundImageFix"/>
<feColorMatrix in="SourceAlpha" type="matrix" values="0 0 0 0 0 0 0 0 0 0 0 0 0 0 0 0 0 0 127 0" result="hardAlpha"/>
<feOffset dy="4"/>
<feGaussianBlur stdDeviation="5"/>
<feComposite in2="hardAlpha" operator="out"/>
<feColorMatrix type="matrix" values="0 0 0 0 0 0 0 0 0 0 0 0 0 0 0 0 0 0 0.25 0"/>
<feBlend mode="normal" in2="BackgroundImageFix" result="effect1_dropShadow_55_2338"/>
<feBlend mode="normal" in="SourceGraphic" in2="effect1_dropShadow_55_2338" result="shape"/>
</filter>
</defs>
</svg>
